0
SECTION
2
HEADER
9
$INSUNITS
70
4
9
$ACADVER
1
AC1014
9
$HANDSEED
5
FFFF
0
ENDSEC
0
SECTION
2
TABLES
0
TABLE
2
VPORT
5
8
100
AcDbSymbolTable
0
ENDTAB
0
TABLE
2
LTYPE
5
5
100
AcDbSymbolTable
0
LTYPE
5
14
100
AcDbSymbolTableRecord
100
AcDbLinetypeTableRecord
2
BYBLOCK
70
0
0
LTYPE
5
15
100
AcDbSymbolTableRecord
100
AcDbLinetypeTableRecord
2
BYLAYER
70
0
0
ENDTAB
0
TABLE
2
LAYER
5
2
100
AcDbSymbolTable
70
2
0
LAYER
5
50
100
AcDbSymbolTableRecord
100
AcDbLayerTableRecord
2
0
70
0
6
CONTINUOUS
0
ENDTAB
0
TABLE
2
STYLE
5
3
100
AcDbSymbolTable
70
1
0
STYLE
5
11
100
AcDbSymbolTableRecord
100
AcDbTextStyleTableRecord
2
STANDARD
70
0
0
ENDTAB
0
TABLE
2
VIEW
5
6
100
AcDbSymbolTable
70
0
0
ENDTAB
0
TABLE
2
UCS
5
7
100
AcDbSymbolTable
70
0
0
ENDTAB
0
TABLE
2
APPID
5
9
100
AcDbSymbolTable
70
2
0
APPID
5
12
100
AcDbSymbolTableRecord
100
AcDbRegAppTableRecord
2
ACAD
70
0
0
ENDTAB
0
TABLE
2
DIMSTYLE
5
A
100
AcDbSymbolTable
70
1
0
ENDTAB
0
TABLE
2
BLOCK_RECORD
5
1
100
AcDbSymbolTable
70
1
0
BLOCK_RECORD
5
1F
100
AcDbSymbolTableRecord
100
AcDbBlockTableRecord
2
*MODEL_SPACE
0
BLOCK_RECORD
5
1B
100
AcDbSymbolTableRecord
100
AcDbBlockTableRecord
2
*PAPER_SPACE
0
ENDTAB
0
ENDSEC
0
SECTION
2
BLOCKS
0
BLOCK
5
20
100
AcDbEntity
100
AcDbBlockBegin
2
*MODEL_SPACE
0
ENDBLK
5
21
100
AcDbEntity
100
AcDbBlockEnd
0
BLOCK
5
1C
100
AcDbEntity
100
AcDbBlockBegin
2
*PAPER_SPACE
0
ENDBLK
5
1D
100
AcDbEntity
100
AcDbBlockEnd
0
ENDSEC
0
SECTION
2
ENTITIES
0
LWPOLYLINE
5
100
100
AcDbEntity
8
0
100
AcDbPolyline
90
8
70
1
43
0.0
10
1.1102230246251565e-15
20
10
42
0.41421356237309559
10
9.9999999999999982
20
1.1102230246251565e-15
10
159.99999999999997
20
0
42
0.4142135623730907
10
169.99999999999997
20
9.9999999999999982
10
169.99999999999997
20
45
42
0.4142135623730987
10
159.99999999999997
20
55
10
10
20
55
42
0.41421356237309509
10
-2.2204460492503131e-15
20
45
0
LWPOLYLINE
5
101
100
AcDbEntity
8
0
100
AcDbPolyline
90
4
70
1
43
0.0
10
124.00000000000003
20
40.050000000000011
10
124.00000000000003
20
25.049999999999994
10
109.00000000000003
20
25.049999999999994
10
109.00000000000003
20
40.050000000000011
0
LWPOLYLINE
5
102
100
AcDbEntity
8
0
100
AcDbPolyline
90
4
70
1
43
0.0
10
119.70000000000005
20
44
10
113.30000000000004
20
44
10
113.30000000000004
20
49.200000000000003
10
119.70000000000005
20
49.200000000000003
0
LWPOLYLINE
5
103
100
AcDbEntity
8
0
100
AcDbPolyline
90
4
70
1
43
0.0
10
90.000000000000028
20
40.050000000000011
10
105.00000000000003
20
40.050000000000011
10
105.00000000000003
20
25.049999999999994
10
90.000000000000028
20
25.049999999999994
0
LWPOLYLINE
5
104
100
AcDbEntity
8
0
100
AcDbPolyline
90
4
70
1
43
0.0
10
132.30000000000001
20
49.200000000000003
10
138.70000000000005
20
49.200000000000003
10
138.70000000000005
20
44
10
132.30000000000001
20
44
0
LWPOLYLINE
5
105
100
AcDbEntity
8
0
100
AcDbPolyline
90
4
70
1
43
0.0
10
147.00000000000003
20
31
10
147.00000000000003
20
46
10
162.00000000000003
20
46
10
162.00000000000003
20
30.999999999999996
0
LWPOLYLINE
5
106
100
AcDbEntity
8
0
100
AcDbPolyline
90
4
70
1
43
0.0
10
143.00000000000003
20
25.04999999999999
10
128.00000000000003
20
25.04999999999999
10
128.00000000000003
20
40.050000000000011
10
143.00000000000003
20
40.049999999999997
0
LWPOLYLINE
5
107
100
AcDbEntity
8
0
100
AcDbPolyline
90
4
70
1
43
0.0
10
162.00000000000003
20
26.999999999999993
10
162.00000000000003
20
11.999999999999996
10
147.00000000000003
20
11.999999999999996
10
147.00000000000003
20
26.999999999999996
0
LWPOLYLINE
5
108
100
AcDbEntity
8
0
100
AcDbPolyline
90
4
70
1
43
0.0
10
94.30000000000004
20
44
10
94.30000000000004
20
49.200000000000003
10
100.70000000000002
20
49.200000000000003
10
100.70000000000002
20
44
0
LWPOLYLINE
5
109
100
AcDbEntity
8
0
100
AcDbPolyline
90
4
70
1
43
0.0
10
143.00000000000003
20
6.0000000000000009
10
128.00000000000003
20
6.0000000000000009
10
128.00000000000003
20
21
10
143.00000000000003
20
21
0
LWPOLYLINE
5
110
100
AcDbEntity
8
0
100
AcDbPolyline
90
4
70
1
43
0.0
10
124.00000000000003
20
6.0000000000000009
10
109.00000000000003
20
6.0000000000000009
10
109.00000000000003
20
21.000000000000007
10
124.00000000000003
20
21.000000000000007
0
LWPOLYLINE
5
111
100
AcDbEntity
8
0
100
AcDbPolyline
90
4
70
1
43
0.0
10
105.00000000000003
20
6.0000000000000009
10
90.000000000000028
20
6.0000000000000009
10
90.000000000000028
20
21.000000000000007
10
105.00000000000003
20
21.000000000000007
0
LWPOLYLINE
5
112
100
AcDbEntity
8
0
100
AcDbPolyline
90
4
70
1
43
0.0
10
8.8795314003572479
20
19.02903761134397
10
4.9972457238194421
20
33.517925005679942
10
19.486133118155418
20
37.400210682217732
10
23.36841879469322
20
22.911323287881768
0
LWPOLYLINE
5
113
100
AcDbEntity
8
0
100
AcDbPolyline
90
4
70
1
43
0.0
10
27.765091023807393
20
24.078288814156856
10
23.882805347269599
20
38.567176208492818
10
38.371692741605557
20
42.449461885030615
10
42.253978418143355
20
27.960574490694647
0
LWPOLYLINE
5
114
100
AcDbEntity
8
0
100
AcDbPolyline
90
4
70
1
43
0.0
10
28.980095435637342
20
19.478410794522681
10
43.468982829973307
20
23.360696471060468
10
47.351268506511097
20
8.8718090767245084
10
32.862381112175115
20
4.989523400186715
0
LWPOLYLINE
5
115
100
AcDbEntity
8
0
100
AcDbPolyline
90
4
70
1
43
0.0
10
57.253592111017831
20
47.485052833805632
10
61.135877787555643
20
32.996165439469671
10
46.64699039321966
20
29.113879762931877
10
42.764704716681877
20
43.602767157267841
0
CIRCLE
5
116
100
AcDbEntity
8
0
100
AcDbCircle
10
164.00000244379044
20
49.000000730156898
30
0
40
1.0999999999999943
210
0
220
0
230
1
0
CIRCLE
5
117
100
AcDbEntity
8
0
100
AcDbCircle
10
6.0000000894069672
20
6.0000000894069672
30
0
40
1.100000000000001
210
0
220
0
230
1
0
CIRCLE
5
118
100
AcDbEntity
8
0
100
AcDbCircle
10
164.00000244379044
20
6.0000000894069672
30
0
40
1.0999999999999943
210
0
220
0
230
1
0
CIRCLE
5
119
100
AcDbEntity
8
0
100
AcDbCircle
10
6.0000000894069672
20
49.000000730156898
30
0
40
1.1000000000000021
210
0
220
0
230
1
0
LWPOLYLINE
5
120
100
AcDbEntity
8
0
100
AcDbPolyline
90
4
70
1
43
0.0
10
129.04800000000006
20
44
10
122.64800000000005
20
44
10
122.64800000000005
20
49.200000000000003
10
129.04800000000006
20
49.200000000000003
0
LWPOLYLINE
5
121
100
AcDbEntity
8
0
100
AcDbPolyline
90
4
70
1
43
0.0
10
110.17800000000005
20
44
10
103.77800000000005
20
44
10
103.77800000000005
20
49.200000000000003
10
110.17800000000005
20
49.200000000000003
0
ENDSEC
0
SECTION
2
OBJECTS
0
DICTIONARY
5
C
100
AcDbDictionary
3
ACAD_GROUP
350
D
3
ACAD_MLINESTYLE
350
17
0
DICTIONARY
5
D
100
AcDbDictionary
0
DICTIONARY
5
1A
330
C
100
AcDbDictionary
0
DICTIONARY
5
17
100
AcDbDictionary
0
ENDSEC
0
EOF
