0
SECTION
2
HEADER
9
$INSUNITS
70
4
9
$ACADVER
1
AC1014
9
$HANDSEED
5
FFFF
0
ENDSEC
0
SECTION
2
TABLES
0
TABLE
2
VPORT
5
8
100
AcDbSymbolTable
0
ENDTAB
0
TABLE
2
LTYPE
5
5
100
AcDbSymbolTable
0
LTYPE
5
14
100
AcDbSymbolTableRecord
100
AcDbLinetypeTableRecord
2
BYBLOCK
70
0
0
LTYPE
5
15
100
AcDbSymbolTableRecord
100
AcDbLinetypeTableRecord
2
BYLAYER
70
0
0
ENDTAB
0
TABLE
2
LAYER
5
2
100
AcDbSymbolTable
70
2
0
LAYER
5
50
100
AcDbSymbolTableRecord
100
AcDbLayerTableRecord
2
0
70
0
6
CONTINUOUS
0
ENDTAB
0
TABLE
2
STYLE
5
3
100
AcDbSymbolTable
70
1
0
STYLE
5
11
100
AcDbSymbolTableRecord
100
AcDbTextStyleTableRecord
2
STANDARD
70
0
0
ENDTAB
0
TABLE
2
VIEW
5
6
100
AcDbSymbolTable
70
0
0
ENDTAB
0
TABLE
2
UCS
5
7
100
AcDbSymbolTable
70
0
0
ENDTAB
0
TABLE
2
APPID
5
9
100
AcDbSymbolTable
70
2
0
APPID
5
12
100
AcDbSymbolTableRecord
100
AcDbRegAppTableRecord
2
ACAD
70
0
0
ENDTAB
0
TABLE
2
DIMSTYLE
5
A
100
AcDbSymbolTable
70
1
0
ENDTAB
0
TABLE
2
BLOCK_RECORD
5
1
100
AcDbSymbolTable
70
1
0
BLOCK_RECORD
5
1F
100
AcDbSymbolTableRecord
100
AcDbBlockTableRecord
2
*MODEL_SPACE
0
BLOCK_RECORD
5
1B
100
AcDbSymbolTableRecord
100
AcDbBlockTableRecord
2
*PAPER_SPACE
0
ENDTAB
0
ENDSEC
0
SECTION
2
BLOCKS
0
BLOCK
5
20
100
AcDbEntity
100
AcDbBlockBegin
2
*MODEL_SPACE
0
ENDBLK
5
21
100
AcDbEntity
100
AcDbBlockEnd
0
BLOCK
5
1C
100
AcDbEntity
100
AcDbBlockBegin
2
*PAPER_SPACE
0
ENDBLK
5
1D
100
AcDbEntity
100
AcDbBlockEnd
0
ENDSEC
0
SECTION
2
ENTITIES
0
LWPOLYLINE
5
100
100
AcDbEntity
8
0
100
AcDbPolyline
90
4
70
1
43
0.0
10
-113.79999999999998
20
-3.3000000000000007
10
-113.79999999999998
20
-8.5
10
-120.19999999999999
20
-8.5
10
-120.19999999999999
20
-3.3000000000000007
0
LWPOLYLINE
5
101
100
AcDbEntity
8
0
100
AcDbPolyline
90
4
70
1
43
0.0
10
-162.5
20
-27.450000000000003
10
-162.5
20
-12.450000000000001
10
-147.5
20
-12.450000000000001
10
-147.5
20
-27.450000000000003
0
LWPOLYLINE
5
102
100
AcDbEntity
8
0
100
AcDbPolyline
90
4
70
1
43
0.0
10
-105.5
20
-40.5
10
-105.5
20
-25.5
10
-90.5
20
-25.5
10
-90.5
20
-40.5
0
LWPOLYLINE
5
103
100
AcDbEntity
8
0
100
AcDbPolyline
90
4
70
1
43
0.0
10
-162.5
20
-46.5
10
-162.5
20
-31.499999999999993
10
-147.5
20
-31.499999999999993
10
-147.5
20
-46.5
0
LWPOLYLINE
5
104
100
AcDbEntity
8
0
100
AcDbPolyline
90
4
70
1
43
0.0
10
-105.5
20
-21.5
10
-105.5
20
-6.4999999999999991
10
-90.5
20
-6.4999999999999991
10
-90.5
20
-21.5
0
LWPOLYLINE
5
105
100
AcDbEntity
8
0
100
AcDbPolyline
90
4
70
1
43
0.0
10
-132.79999999999998
20
-3.2999999999999985
10
-132.79999999999998
20
-8.4999999999999982
10
-139.19999999999999
20
-8.4999999999999982
10
-139.19999999999999
20
-3.2999999999999985
0
LWPOLYLINE
5
106
100
AcDbEntity
8
0
100
AcDbPolyline
90
4
70
1
43
0.0
10
-143.5
20
-27.450000000000003
10
-143.5
20
-12.450000000000001
10
-128.5
20
-12.450000000000001
10
-128.5
20
-27.450000000000003
0
LWPOLYLINE
5
107
100
AcDbEntity
8
0
100
AcDbPolyline
90
4
70
1
43
0.0
10
-124.5
20
-46.5
10
-124.5
20
-31.499999999999993
10
-109.5
20
-31.499999999999993
10
-109.5
20
-46.5
0
LWPOLYLINE
5
108
100
AcDbEntity
8
0
100
AcDbPolyline
90
4
70
1
43
0.0
10
-143.5
20
-46.5
10
-143.5
20
-31.499999999999993
10
-128.5
20
-31.499999999999993
10
-128.5
20
-46.5
0
LWPOLYLINE
5
109
100
AcDbEntity
8
0
100
AcDbPolyline
90
4
70
1
43
0.0
10
-124.5
20
-27.450000000000003
10
-124.5
20
-12.450000000000001
10
-109.5
20
-12.450000000000001
10
-109.5
20
-27.450000000000003
0
LWPOLYLINE
5
110
100
AcDbEntity
8
0
100
AcDbPolyline
90
4
70
1
43
0.0
10
-151.80000000000001
20
-3.2999999999999985
10
-151.80000000000001
20
-8.4999999999999982
10
-158.19999999999999
20
-8.4999999999999982
10
-158.19999999999999
20
-3.2999999999999985
0
LWPOLYLINE
5
111
100
AcDbEntity
8
0
100
AcDbPolyline
90
4
70
1
43
0.0
10
-42.864413464563086
20
-10.806699141100893
10
-46.746699141100898
20
-25.295586535436918
10
-61.235586535436923
20
-21.413300858899103
10
-57.353300858899118
20
-6.9244134645630817
0
LWPOLYLINE
5
112
100
AcDbEntity
8
0
100
AcDbPolyline
90
4
70
1
43
0.0
10
-23.98441346456309
20
-15.876699141100893
10
-27.866699141100888
20
-30.365586535436918
10
-42.355586535436906
20
-26.483300858899106
10
-38.473300858899094
20
-11.994413464563085
0
LWPOLYLINE
5
113
100
AcDbEntity
8
0
100
AcDbPolyline
90
4
70
1
43
0.0
10
-29.114413464563071
20
-34.956699960664757
10
-32.996699141100905
20
-49.445587355000782
10
-47.485586535436923
20
-45.563301678462977
10
-43.603300858899104
20
-31.074414284126949
0
LWPOLYLINE
5
114
100
AcDbEntity
8
0
100
AcDbPolyline
90
4
70
1
43
0.0
10
-5.1144134645630857
20
-20.956699141100898
10
-8.9966991411009012
20
-35.445586535436924
10
-23.485586535436926
20
-31.563300858899112
10
-19.603300858899111
20
-17.074413464563087
0
CIRCLE
5
115
100
AcDbEntity
8
0
100
AcDbCircle
10
-6.0000000894069672
20
-6.0000000894069672
30
0
40
1.100000000000001
210
0
220
-0
230
1
0
CIRCLE
5
116
100
AcDbEntity
8
0
100
AcDbCircle
10
-164.00000244379044
20
-6.0000000894069672
30
0
40
1.0999999999999943
210
0
220
-0
230
1
0
CIRCLE
5
117
100
AcDbEntity
8
0
100
AcDbCircle
10
-164.00000244379044
20
-49.000000730156898
30
0
40
1.0999999999999943
210
0
220
-0
230
1
0
CIRCLE
5
118
100
AcDbEntity
8
0
100
AcDbCircle
10
-6.0000000894069672
20
-49.000000730156898
30
0
40
1.1000000000000021
210
0
220
-0
230
1
0
LWPOLYLINE
5
119
100
AcDbEntity
8
0
100
AcDbPolyline
90
8
70
1
43
0.0
10
-169.99999999999997
20
-45
42
0.41421356237309398
10
-159.99999999999997
20
-55
10
-10
20
-55
42
0.41421356237309553
10
-1.1102230246251427e-15
20
-45
10
0
20
-10
42
0.41421356237309559
10
-9.9999999999999982
20
-1.1102230246251345e-15
10
-159.99999999999997
20
0
42
0.41421356237309392
10
-169.99999999999997
20
-10
0
LWPOLYLINE
5
120
100
AcDbEntity
8
0
100
AcDbPolyline
90
4
70
1
43
0.0
10
-129.55000174343587
20
-8.5000000894069672
10
-123.15000174343587
20
-8.5000000894069672
10
-123.15000174343587
20
-3.300000089406967
10
-129.55000174343587
20
-3.300000089406967
0
LWPOLYLINE
5
121
100
AcDbEntity
8
0
100
AcDbPolyline
90
4
70
1
43
0.0
10
-148.78000202655792
20
-8.5000000894069672
10
-142.38000202655792
20
-8.5000000894069672
10
-142.38000202655792
20
-3.300000089406967
10
-148.78000202655792
20
-3.300000089406967
0
ENDSEC
0
SECTION
2
OBJECTS
0
DICTIONARY
5
C
100
AcDbDictionary
3
ACAD_GROUP
350
D
3
ACAD_MLINESTYLE
350
17
0
DICTIONARY
5
D
100
AcDbDictionary
0
DICTIONARY
5
1A
330
C
100
AcDbDictionary
0
DICTIONARY
5
17
100
AcDbDictionary
0
ENDSEC
0
EOF
