%TF.GenerationSoftware,KiCad,Pcbnew,(6.0.1)*%
%TF.CreationDate,2023-06-02T16:05:18+02:00*%
%TF.ProjectId,cock,636f636b-2e6b-4696-9361-645f70636258,rev?*%
%TF.SameCoordinates,Original*%
%TF.FileFunction,Legend,Top*%
%TF.FilePolarity,Positive*%
%FSLAX46Y46*%
G04 Gerber Fmt 4.6, Leading zero omitted, Abs format (unit mm)*
G04 Created by KiCad (PCBNEW (6.0.1)) date 2023-06-02 16:05:18*
%MOMM*%
%LPD*%
G01*
G04 APERTURE LIST*
%ADD10C,0.300000*%
%ADD11C,0.150000*%
%ADD12C,0.120000*%
%ADD13C,0.010000*%
G04 APERTURE END LIST*
D10*
X95929482Y-91102571D02*
X96116982Y-89602571D01*
X96688410Y-89602571D01*
X96822339Y-89674000D01*
X96884839Y-89745428D01*
X96938410Y-89888285D01*
X96911625Y-90102571D01*
X96822339Y-90245428D01*
X96741982Y-90316857D01*
X96590196Y-90388285D01*
X96018767Y-90388285D01*
X97429482Y-91102571D02*
X97616982Y-89602571D01*
X99018767Y-90959714D02*
X98938410Y-91031142D01*
X98715196Y-91102571D01*
X98572339Y-91102571D01*
X98366982Y-91031142D01*
X98241982Y-90888285D01*
X98188410Y-90745428D01*
X98152696Y-90459714D01*
X98179482Y-90245428D01*
X98286625Y-89959714D01*
X98375910Y-89816857D01*
X98536625Y-89674000D01*
X98759839Y-89602571D01*
X98902696Y-89602571D01*
X99108053Y-89674000D01*
X99170553Y-89745428D01*
X100116982Y-89602571D02*
X100402696Y-89602571D01*
X100536625Y-89674000D01*
X100661625Y-89816857D01*
X100697339Y-90102571D01*
X100634839Y-90602571D01*
X100527696Y-90888285D01*
X100366982Y-91031142D01*
X100215196Y-91102571D01*
X99929482Y-91102571D01*
X99795553Y-91031142D01*
X99670553Y-90888285D01*
X99634839Y-90602571D01*
X99697339Y-90102571D01*
X99804482Y-89816857D01*
X99965196Y-89674000D01*
X100116982Y-89602571D01*
D11*
%TO.C,SW2*%
X194246666Y-83678761D02*
X194389523Y-83726380D01*
X194627619Y-83726380D01*
X194722857Y-83678761D01*
X194770476Y-83631142D01*
X194818095Y-83535904D01*
X194818095Y-83440666D01*
X194770476Y-83345428D01*
X194722857Y-83297809D01*
X194627619Y-83250190D01*
X194437142Y-83202571D01*
X194341904Y-83154952D01*
X194294285Y-83107333D01*
X194246666Y-83012095D01*
X194246666Y-82916857D01*
X194294285Y-82821619D01*
X194341904Y-82774000D01*
X194437142Y-82726380D01*
X194675238Y-82726380D01*
X194818095Y-82774000D01*
X195151428Y-82726380D02*
X195389523Y-83726380D01*
X195580000Y-83012095D01*
X195770476Y-83726380D01*
X196008571Y-82726380D01*
X196341904Y-82821619D02*
X196389523Y-82774000D01*
X196484761Y-82726380D01*
X196722857Y-82726380D01*
X196818095Y-82774000D01*
X196865714Y-82821619D01*
X196913333Y-82916857D01*
X196913333Y-83012095D01*
X196865714Y-83154952D01*
X196294285Y-83726380D01*
X196913333Y-83726380D01*
%TO.C,SW3*%
X184666666Y-83678761D02*
X184809523Y-83726380D01*
X185047619Y-83726380D01*
X185142857Y-83678761D01*
X185190476Y-83631142D01*
X185238095Y-83535904D01*
X185238095Y-83440666D01*
X185190476Y-83345428D01*
X185142857Y-83297809D01*
X185047619Y-83250190D01*
X184857142Y-83202571D01*
X184761904Y-83154952D01*
X184714285Y-83107333D01*
X184666666Y-83012095D01*
X184666666Y-82916857D01*
X184714285Y-82821619D01*
X184761904Y-82774000D01*
X184857142Y-82726380D01*
X185095238Y-82726380D01*
X185238095Y-82774000D01*
X185571428Y-82726380D02*
X185809523Y-83726380D01*
X186000000Y-83012095D01*
X186190476Y-83726380D01*
X186428571Y-82726380D01*
X186714285Y-82726380D02*
X187333333Y-82726380D01*
X187000000Y-83107333D01*
X187142857Y-83107333D01*
X187238095Y-83154952D01*
X187285714Y-83202571D01*
X187333333Y-83297809D01*
X187333333Y-83535904D01*
X187285714Y-83631142D01*
X187238095Y-83678761D01*
X187142857Y-83726380D01*
X186857142Y-83726380D01*
X186761904Y-83678761D01*
X186714285Y-83631142D01*
%TO.C,SW1*%
X175016666Y-93076761D02*
X175159523Y-93124380D01*
X175397619Y-93124380D01*
X175492857Y-93076761D01*
X175540476Y-93029142D01*
X175588095Y-92933904D01*
X175588095Y-92838666D01*
X175540476Y-92743428D01*
X175492857Y-92695809D01*
X175397619Y-92648190D01*
X175207142Y-92600571D01*
X175111904Y-92552952D01*
X175064285Y-92505333D01*
X175016666Y-92410095D01*
X175016666Y-92314857D01*
X175064285Y-92219619D01*
X175111904Y-92172000D01*
X175207142Y-92124380D01*
X175445238Y-92124380D01*
X175588095Y-92172000D01*
X175921428Y-92124380D02*
X176159523Y-93124380D01*
X176350000Y-92410095D01*
X176540476Y-93124380D01*
X176778571Y-92124380D01*
X177683333Y-93124380D02*
X177111904Y-93124380D01*
X177397619Y-93124380D02*
X177397619Y-92124380D01*
X177302380Y-92267238D01*
X177207142Y-92362476D01*
X177111904Y-92410095D01*
%TO.C,SW5*%
X165666666Y-84754761D02*
X165809523Y-84802380D01*
X166047619Y-84802380D01*
X166142857Y-84754761D01*
X166190476Y-84707142D01*
X166238095Y-84611904D01*
X166238095Y-84516666D01*
X166190476Y-84421428D01*
X166142857Y-84373809D01*
X166047619Y-84326190D01*
X165857142Y-84278571D01*
X165761904Y-84230952D01*
X165714285Y-84183333D01*
X165666666Y-84088095D01*
X165666666Y-83992857D01*
X165714285Y-83897619D01*
X165761904Y-83850000D01*
X165857142Y-83802380D01*
X166095238Y-83802380D01*
X166238095Y-83850000D01*
X166571428Y-83802380D02*
X166809523Y-84802380D01*
X167000000Y-84088095D01*
X167190476Y-84802380D01*
X167428571Y-83802380D01*
X168285714Y-83802380D02*
X167809523Y-83802380D01*
X167761904Y-84278571D01*
X167809523Y-84230952D01*
X167904761Y-84183333D01*
X168142857Y-84183333D01*
X168238095Y-84230952D01*
X168285714Y-84278571D01*
X168333333Y-84373809D01*
X168333333Y-84611904D01*
X168285714Y-84707142D01*
X168238095Y-84754761D01*
X168142857Y-84802380D01*
X167904761Y-84802380D01*
X167809523Y-84754761D01*
X167761904Y-84707142D01*
%TO.C,SW4*%
X203666666Y-92254761D02*
X203809523Y-92302380D01*
X204047619Y-92302380D01*
X204142857Y-92254761D01*
X204190476Y-92207142D01*
X204238095Y-92111904D01*
X204238095Y-92016666D01*
X204190476Y-91921428D01*
X204142857Y-91873809D01*
X204047619Y-91826190D01*
X203857142Y-91778571D01*
X203761904Y-91730952D01*
X203714285Y-91683333D01*
X203666666Y-91588095D01*
X203666666Y-91492857D01*
X203714285Y-91397619D01*
X203761904Y-91350000D01*
X203857142Y-91302380D01*
X204095238Y-91302380D01*
X204238095Y-91350000D01*
X204571428Y-91302380D02*
X204809523Y-92302380D01*
X205000000Y-91588095D01*
X205190476Y-92302380D01*
X205428571Y-91302380D01*
X206238095Y-91635714D02*
X206238095Y-92302380D01*
X206000000Y-91254761D02*
X205761904Y-91969047D01*
X206380952Y-91969047D01*
D12*
%TO.C,SW2*%
X197280000Y-90400000D02*
X196830000Y-90850000D01*
X196830000Y-85350000D02*
X194330000Y-85350000D01*
X192830000Y-89100000D02*
X192830000Y-87100000D01*
X193880000Y-90400000D02*
X194330000Y-90850000D01*
X196830000Y-90850000D02*
X194330000Y-90850000D01*
X197280000Y-85800000D02*
X196830000Y-85350000D01*
X193880000Y-85800000D02*
X194330000Y-85350000D01*
X198330000Y-89100000D02*
X198330000Y-87100000D01*
%TO.C,SW3*%
X184300000Y-90400000D02*
X184750000Y-90850000D01*
X188750000Y-89100000D02*
X188750000Y-87100000D01*
X187700000Y-90400000D02*
X187250000Y-90850000D01*
X187250000Y-85350000D02*
X184750000Y-85350000D01*
X183250000Y-89100000D02*
X183250000Y-87100000D01*
X184300000Y-85800000D02*
X184750000Y-85350000D01*
X187700000Y-85800000D02*
X187250000Y-85350000D01*
X187250000Y-90850000D02*
X184750000Y-90850000D01*
%TO.C,SW1*%
X178050000Y-90400000D02*
X177600000Y-90850000D01*
X178050000Y-85800000D02*
X177600000Y-85350000D01*
X179100000Y-87100000D02*
X179100000Y-89100000D01*
X175100000Y-85350000D02*
X177600000Y-85350000D01*
X174650000Y-85800000D02*
X175100000Y-85350000D01*
X173600000Y-87100000D02*
X173600000Y-89100000D01*
X174650000Y-90400000D02*
X175100000Y-90850000D01*
X175100000Y-90850000D02*
X177600000Y-90850000D01*
D11*
%TO.C,K3*%
X93476786Y-82839747D02*
X94442712Y-83098567D01*
X107258567Y-85497288D02*
X106999747Y-86463214D01*
X110623214Y-72940253D02*
X110364395Y-73906178D01*
X98066178Y-69575605D02*
X97100253Y-69316786D01*
X96841433Y-70282712D02*
X97100253Y-69316786D01*
X106033822Y-86204395D02*
X106999747Y-86463214D01*
X93476786Y-82839747D02*
X93735605Y-81873822D01*
X110623214Y-72940253D02*
X109657288Y-72681433D01*
%TO.C,K4*%
X59091433Y-60132712D02*
X59350253Y-59166786D01*
X55726786Y-72689747D02*
X56692712Y-72948567D01*
X68283822Y-76054395D02*
X69249747Y-76313214D01*
X72873214Y-62790253D02*
X71907288Y-62531433D01*
X60316178Y-59425605D02*
X59350253Y-59166786D01*
X55726786Y-72689747D02*
X55985605Y-71723822D01*
X69508567Y-75347288D02*
X69249747Y-76313214D01*
X72873214Y-62790253D02*
X72614395Y-63756178D01*
%TO.C,K2*%
X91743214Y-67870253D02*
X91484395Y-68836178D01*
X74596786Y-77769747D02*
X74855605Y-76803822D01*
X91743214Y-67870253D02*
X90777288Y-67611433D01*
X87153822Y-81134395D02*
X88119747Y-81393214D01*
X79186178Y-64505605D02*
X78220253Y-64246786D01*
X77961433Y-65212712D02*
X78220253Y-64246786D01*
X74596786Y-77769747D02*
X75562712Y-78028567D01*
X88378567Y-80427288D02*
X88119747Y-81393214D01*
%TO.C,K1*%
X83091433Y-46132712D02*
X83350253Y-45166786D01*
X79726786Y-58689747D02*
X80692712Y-58948567D01*
X92283822Y-62054395D02*
X93249747Y-62313214D01*
X93508567Y-61347288D02*
X93249747Y-62313214D01*
X84316178Y-45425605D02*
X83350253Y-45166786D01*
X96873214Y-48790253D02*
X95907288Y-48531433D01*
X79726786Y-58689747D02*
X79985605Y-57723822D01*
X96873214Y-48790253D02*
X96614395Y-49756178D01*
%TO.C,K5*%
X155000000Y-86000000D02*
X155000000Y-87000000D01*
X141000000Y-74000000D02*
X141000000Y-73000000D01*
X141000000Y-87000000D02*
X142000000Y-87000000D01*
X142000000Y-73000000D02*
X141000000Y-73000000D01*
X155000000Y-73000000D02*
X155000000Y-74000000D01*
X141000000Y-87000000D02*
X141000000Y-86000000D01*
X155000000Y-73000000D02*
X154000000Y-73000000D01*
X154000000Y-87000000D02*
X155000000Y-87000000D01*
%TO.C,K6*%
X161000000Y-67050000D02*
X160000000Y-67050000D01*
X160000000Y-81050000D02*
X161000000Y-81050000D01*
X173000000Y-81050000D02*
X174000000Y-81050000D01*
X174000000Y-67050000D02*
X173000000Y-67050000D01*
X174000000Y-80050000D02*
X174000000Y-81050000D01*
X160000000Y-68050000D02*
X160000000Y-67050000D01*
X174000000Y-67050000D02*
X174000000Y-68050000D01*
X160000000Y-81050000D02*
X160000000Y-80050000D01*
%TO.C,K7*%
X141000000Y-68000000D02*
X141000000Y-67000000D01*
X142000000Y-54000000D02*
X141000000Y-54000000D01*
X155000000Y-67000000D02*
X155000000Y-68000000D01*
X141000000Y-55000000D02*
X141000000Y-54000000D01*
X155000000Y-54000000D02*
X155000000Y-55000000D01*
X155000000Y-54000000D02*
X154000000Y-54000000D01*
X154000000Y-68000000D02*
X155000000Y-68000000D01*
X141000000Y-68000000D02*
X142000000Y-68000000D01*
%TO.C,K8*%
X173000000Y-62000000D02*
X174000000Y-62000000D01*
X160000000Y-62000000D02*
X160000000Y-61000000D01*
X160000000Y-62000000D02*
X161000000Y-62000000D01*
X161000000Y-48000000D02*
X160000000Y-48000000D01*
X160000000Y-49000000D02*
X160000000Y-48000000D01*
X174000000Y-61000000D02*
X174000000Y-62000000D01*
X174000000Y-48000000D02*
X174000000Y-49000000D01*
X174000000Y-48000000D02*
X173000000Y-48000000D01*
%TO.C,K9*%
X199000000Y-67050000D02*
X198000000Y-67050000D01*
X212000000Y-67050000D02*
X211000000Y-67050000D01*
X212000000Y-67050000D02*
X212000000Y-68050000D01*
X198000000Y-68050000D02*
X198000000Y-67050000D01*
X212000000Y-80050000D02*
X212000000Y-81050000D01*
X198000000Y-81050000D02*
X199000000Y-81050000D01*
X198000000Y-81050000D02*
X198000000Y-80050000D01*
X211000000Y-81050000D02*
X212000000Y-81050000D01*
%TO.C,K10*%
X212000000Y-61000000D02*
X212000000Y-62000000D01*
X212000000Y-48000000D02*
X211000000Y-48000000D01*
X198000000Y-62000000D02*
X199000000Y-62000000D01*
X211000000Y-62000000D02*
X212000000Y-62000000D01*
X198000000Y-62000000D02*
X198000000Y-61000000D01*
X212000000Y-48000000D02*
X212000000Y-49000000D01*
X198000000Y-49000000D02*
X198000000Y-48000000D01*
X199000000Y-48000000D02*
X198000000Y-48000000D01*
%TO.C,K11*%
X193000000Y-80050000D02*
X193000000Y-81050000D01*
X180000000Y-67050000D02*
X179000000Y-67050000D01*
X179000000Y-81050000D02*
X179000000Y-80050000D01*
X193000000Y-67050000D02*
X192000000Y-67050000D01*
X179000000Y-68050000D02*
X179000000Y-67050000D01*
X192000000Y-81050000D02*
X193000000Y-81050000D01*
X193000000Y-67050000D02*
X193000000Y-68050000D01*
X179000000Y-81050000D02*
X180000000Y-81050000D01*
%TO.C,K12*%
X192000000Y-62000000D02*
X193000000Y-62000000D01*
X193000000Y-48000000D02*
X193000000Y-49000000D01*
X193000000Y-48000000D02*
X192000000Y-48000000D01*
X193000000Y-61000000D02*
X193000000Y-62000000D01*
X179000000Y-62000000D02*
X180000000Y-62000000D01*
X179000000Y-62000000D02*
X179000000Y-61000000D01*
X180000000Y-48000000D02*
X179000000Y-48000000D01*
X179000000Y-49000000D02*
X179000000Y-48000000D01*
D12*
%TO.C,SW5*%
X165750000Y-85350000D02*
X168250000Y-85350000D01*
X169750000Y-87100000D02*
X169750000Y-89100000D01*
X168700000Y-90400000D02*
X168250000Y-90850000D01*
X165300000Y-90400000D02*
X165750000Y-90850000D01*
X164250000Y-87100000D02*
X164250000Y-89100000D01*
X165750000Y-90850000D02*
X168250000Y-90850000D01*
X165300000Y-85800000D02*
X165750000Y-85350000D01*
X168700000Y-85800000D02*
X168250000Y-85350000D01*
%TO.C,SW4*%
X203300000Y-85800000D02*
X203750000Y-85350000D01*
X202250000Y-89100000D02*
X202250000Y-87100000D01*
X203300000Y-90400000D02*
X203750000Y-90850000D01*
X206250000Y-85350000D02*
X203750000Y-85350000D01*
X206700000Y-85800000D02*
X206250000Y-85350000D01*
X206250000Y-90850000D02*
X203750000Y-90850000D01*
X206700000Y-90400000D02*
X206250000Y-90850000D01*
X207750000Y-89100000D02*
X207750000Y-87100000D01*
D13*
%TO.C,*%
X73339378Y-85734415D02*
X74502092Y-85734711D01*
X74502092Y-85734711D02*
X75701615Y-85735170D01*
X75701615Y-85735170D02*
X76934135Y-85735798D01*
X76934135Y-85735798D02*
X78195841Y-85736595D01*
X78195841Y-85736595D02*
X79271966Y-85737396D01*
X79271966Y-85737396D02*
X80854754Y-85738724D01*
X80854754Y-85738724D02*
X82338737Y-85740120D01*
X82338737Y-85740120D02*
X83726711Y-85741596D01*
X83726711Y-85741596D02*
X85021471Y-85743165D01*
X85021471Y-85743165D02*
X86225812Y-85744841D01*
X86225812Y-85744841D02*
X87342530Y-85746637D01*
X87342530Y-85746637D02*
X88374420Y-85748566D01*
X88374420Y-85748566D02*
X89324277Y-85750641D01*
X89324277Y-85750641D02*
X90194897Y-85752874D01*
X90194897Y-85752874D02*
X90989075Y-85755280D01*
X90989075Y-85755280D02*
X91709607Y-85757871D01*
X91709607Y-85757871D02*
X92359287Y-85760659D01*
X92359287Y-85760659D02*
X92940912Y-85763659D01*
X92940912Y-85763659D02*
X93457276Y-85766883D01*
X93457276Y-85766883D02*
X93911175Y-85770344D01*
X93911175Y-85770344D02*
X94305404Y-85774056D01*
X94305404Y-85774056D02*
X94642759Y-85778031D01*
X94642759Y-85778031D02*
X94926034Y-85782282D01*
X94926034Y-85782282D02*
X95158026Y-85786823D01*
X95158026Y-85786823D02*
X95341529Y-85791667D01*
X95341529Y-85791667D02*
X95479339Y-85796826D01*
X95479339Y-85796826D02*
X95574251Y-85802314D01*
X95574251Y-85802314D02*
X95629061Y-85808143D01*
X95629061Y-85808143D02*
X95646500Y-85813900D01*
X95646500Y-85813900D02*
X95598337Y-85819398D01*
X95598337Y-85819398D02*
X95453184Y-85824679D01*
X95453184Y-85824679D02*
X95215649Y-85829739D01*
X95215649Y-85829739D02*
X94890341Y-85834578D01*
X94890341Y-85834578D02*
X94481871Y-85839193D01*
X94481871Y-85839193D02*
X93994846Y-85843583D01*
X93994846Y-85843583D02*
X93433875Y-85847747D01*
X93433875Y-85847747D02*
X92803569Y-85851681D01*
X92803569Y-85851681D02*
X92108535Y-85855385D01*
X92108535Y-85855385D02*
X91353384Y-85858857D01*
X91353384Y-85858857D02*
X90542723Y-85862096D01*
X90542723Y-85862096D02*
X89681163Y-85865098D01*
X89681163Y-85865098D02*
X88773312Y-85867864D01*
X88773312Y-85867864D02*
X87823780Y-85870390D01*
X87823780Y-85870390D02*
X86837175Y-85872676D01*
X86837175Y-85872676D02*
X85818107Y-85874719D01*
X85818107Y-85874719D02*
X84771184Y-85876517D01*
X84771184Y-85876517D02*
X83701016Y-85878070D01*
X83701016Y-85878070D02*
X82612212Y-85879375D01*
X82612212Y-85879375D02*
X81509381Y-85880431D01*
X81509381Y-85880431D02*
X80397132Y-85881236D01*
X80397132Y-85881236D02*
X79280074Y-85881787D01*
X79280074Y-85881787D02*
X78162816Y-85882084D01*
X78162816Y-85882084D02*
X77049968Y-85882125D01*
X77049968Y-85882125D02*
X75946138Y-85881907D01*
X75946138Y-85881907D02*
X74855936Y-85881430D01*
X74855936Y-85881430D02*
X73783970Y-85880691D01*
X73783970Y-85880691D02*
X72734849Y-85879689D01*
X72734849Y-85879689D02*
X71713184Y-85878422D01*
X71713184Y-85878422D02*
X70723582Y-85876888D01*
X70723582Y-85876888D02*
X69770654Y-85875085D01*
X69770654Y-85875085D02*
X68859007Y-85873013D01*
X68859007Y-85873013D02*
X67993252Y-85870668D01*
X67993252Y-85870668D02*
X67177996Y-85868050D01*
X67177996Y-85868050D02*
X66417850Y-85865156D01*
X66417850Y-85865156D02*
X65717423Y-85861985D01*
X65717423Y-85861985D02*
X65081323Y-85858535D01*
X65081323Y-85858535D02*
X64514159Y-85854805D01*
X64514159Y-85854805D02*
X64020541Y-85850792D01*
X64020541Y-85850792D02*
X63605078Y-85846495D01*
X63605078Y-85846495D02*
X63272379Y-85841912D01*
X63272379Y-85841912D02*
X63027052Y-85837042D01*
X63027052Y-85837042D02*
X62873708Y-85831882D01*
X62873708Y-85831882D02*
X62816955Y-85826432D01*
X62816955Y-85826432D02*
X62816778Y-85826241D01*
X62816778Y-85826241D02*
X62825390Y-85766519D01*
X62825390Y-85766519D02*
X62851880Y-85749737D01*
X62851880Y-85749737D02*
X62907328Y-85747789D01*
X62907328Y-85747789D02*
X63060564Y-85745959D01*
X63060564Y-85745959D02*
X63307778Y-85744251D01*
X63307778Y-85744251D02*
X63645158Y-85742667D01*
X63645158Y-85742667D02*
X64068893Y-85741211D01*
X64068893Y-85741211D02*
X64575172Y-85739885D01*
X64575172Y-85739885D02*
X65160183Y-85738692D01*
X65160183Y-85738692D02*
X65820115Y-85737635D01*
X65820115Y-85737635D02*
X66551157Y-85736717D01*
X66551157Y-85736717D02*
X67349497Y-85735940D01*
X67349497Y-85735940D02*
X68211325Y-85735308D01*
X68211325Y-85735308D02*
X69132828Y-85734823D01*
X69132828Y-85734823D02*
X70110197Y-85734489D01*
X70110197Y-85734489D02*
X71139619Y-85734307D01*
X71139619Y-85734307D02*
X72217283Y-85734282D01*
X72217283Y-85734282D02*
X73339378Y-85734415D01*
X73339378Y-85734415D02*
X73339378Y-85734415D01*
G36*
X73339378Y-85734415D02*
G01*
X74502092Y-85734711D01*
X75701615Y-85735170D01*
X76934135Y-85735798D01*
X78195841Y-85736595D01*
X79271966Y-85737396D01*
X80854754Y-85738724D01*
X82338737Y-85740120D01*
X83726711Y-85741596D01*
X85021471Y-85743165D01*
X86225812Y-85744841D01*
X87342530Y-85746637D01*
X88374420Y-85748566D01*
X89324277Y-85750641D01*
X90194897Y-85752874D01*
X90989075Y-85755280D01*
X91709607Y-85757871D01*
X92359287Y-85760659D01*
X92940912Y-85763659D01*
X93457276Y-85766883D01*
X93911175Y-85770344D01*
X94305404Y-85774056D01*
X94642759Y-85778031D01*
X94926034Y-85782282D01*
X95158026Y-85786823D01*
X95341529Y-85791667D01*
X95479339Y-85796826D01*
X95574251Y-85802314D01*
X95629061Y-85808143D01*
X95646500Y-85813900D01*
X95598337Y-85819398D01*
X95453184Y-85824679D01*
X95215649Y-85829739D01*
X94890341Y-85834578D01*
X94481871Y-85839193D01*
X93994846Y-85843583D01*
X93433875Y-85847747D01*
X92803569Y-85851681D01*
X92108535Y-85855385D01*
X91353384Y-85858857D01*
X90542723Y-85862096D01*
X89681163Y-85865098D01*
X88773312Y-85867864D01*
X87823780Y-85870390D01*
X86837175Y-85872676D01*
X85818107Y-85874719D01*
X84771184Y-85876517D01*
X83701016Y-85878070D01*
X82612212Y-85879375D01*
X81509381Y-85880431D01*
X80397132Y-85881236D01*
X79280074Y-85881787D01*
X78162816Y-85882084D01*
X77049968Y-85882125D01*
X75946138Y-85881907D01*
X74855936Y-85881430D01*
X73783970Y-85880691D01*
X72734849Y-85879689D01*
X71713184Y-85878422D01*
X70723582Y-85876888D01*
X69770654Y-85875085D01*
X68859007Y-85873013D01*
X67993252Y-85870668D01*
X67177996Y-85868050D01*
X66417850Y-85865156D01*
X65717423Y-85861985D01*
X65081323Y-85858535D01*
X64514159Y-85854805D01*
X64020541Y-85850792D01*
X63605078Y-85846495D01*
X63272379Y-85841912D01*
X63027052Y-85837042D01*
X62873708Y-85831882D01*
X62816955Y-85826432D01*
X62816778Y-85826241D01*
X62825390Y-85766519D01*
X62851880Y-85749737D01*
X62907328Y-85747789D01*
X63060564Y-85745959D01*
X63307778Y-85744251D01*
X63645158Y-85742667D01*
X64068893Y-85741211D01*
X64575172Y-85739885D01*
X65160183Y-85738692D01*
X65820115Y-85737635D01*
X66551157Y-85736717D01*
X67349497Y-85735940D01*
X68211325Y-85735308D01*
X69132828Y-85734823D01*
X70110197Y-85734489D01*
X71139619Y-85734307D01*
X72217283Y-85734282D01*
X73339378Y-85734415D01*
G37*
X73339378Y-85734415D02*
X74502092Y-85734711D01*
X75701615Y-85735170D01*
X76934135Y-85735798D01*
X78195841Y-85736595D01*
X79271966Y-85737396D01*
X80854754Y-85738724D01*
X82338737Y-85740120D01*
X83726711Y-85741596D01*
X85021471Y-85743165D01*
X86225812Y-85744841D01*
X87342530Y-85746637D01*
X88374420Y-85748566D01*
X89324277Y-85750641D01*
X90194897Y-85752874D01*
X90989075Y-85755280D01*
X91709607Y-85757871D01*
X92359287Y-85760659D01*
X92940912Y-85763659D01*
X93457276Y-85766883D01*
X93911175Y-85770344D01*
X94305404Y-85774056D01*
X94642759Y-85778031D01*
X94926034Y-85782282D01*
X95158026Y-85786823D01*
X95341529Y-85791667D01*
X95479339Y-85796826D01*
X95574251Y-85802314D01*
X95629061Y-85808143D01*
X95646500Y-85813900D01*
X95598337Y-85819398D01*
X95453184Y-85824679D01*
X95215649Y-85829739D01*
X94890341Y-85834578D01*
X94481871Y-85839193D01*
X93994846Y-85843583D01*
X93433875Y-85847747D01*
X92803569Y-85851681D01*
X92108535Y-85855385D01*
X91353384Y-85858857D01*
X90542723Y-85862096D01*
X89681163Y-85865098D01*
X88773312Y-85867864D01*
X87823780Y-85870390D01*
X86837175Y-85872676D01*
X85818107Y-85874719D01*
X84771184Y-85876517D01*
X83701016Y-85878070D01*
X82612212Y-85879375D01*
X81509381Y-85880431D01*
X80397132Y-85881236D01*
X79280074Y-85881787D01*
X78162816Y-85882084D01*
X77049968Y-85882125D01*
X75946138Y-85881907D01*
X74855936Y-85881430D01*
X73783970Y-85880691D01*
X72734849Y-85879689D01*
X71713184Y-85878422D01*
X70723582Y-85876888D01*
X69770654Y-85875085D01*
X68859007Y-85873013D01*
X67993252Y-85870668D01*
X67177996Y-85868050D01*
X66417850Y-85865156D01*
X65717423Y-85861985D01*
X65081323Y-85858535D01*
X64514159Y-85854805D01*
X64020541Y-85850792D01*
X63605078Y-85846495D01*
X63272379Y-85841912D01*
X63027052Y-85837042D01*
X62873708Y-85831882D01*
X62816955Y-85826432D01*
X62816778Y-85826241D01*
X62825390Y-85766519D01*
X62851880Y-85749737D01*
X62907328Y-85747789D01*
X63060564Y-85745959D01*
X63307778Y-85744251D01*
X63645158Y-85742667D01*
X64068893Y-85741211D01*
X64575172Y-85739885D01*
X65160183Y-85738692D01*
X65820115Y-85737635D01*
X66551157Y-85736717D01*
X67349497Y-85735940D01*
X68211325Y-85735308D01*
X69132828Y-85734823D01*
X70110197Y-85734489D01*
X71139619Y-85734307D01*
X72217283Y-85734282D01*
X73339378Y-85734415D01*
X68890567Y-84154126D02*
X69059072Y-84163037D01*
X69059072Y-84163037D02*
X69161282Y-84176337D01*
X69161282Y-84176337D02*
X69182303Y-84188300D01*
X69182303Y-84188300D02*
X69107880Y-84340770D01*
X69107880Y-84340770D02*
X69048870Y-84434669D01*
X69048870Y-84434669D02*
X68979119Y-84484108D01*
X68979119Y-84484108D02*
X68872469Y-84503198D01*
X68872469Y-84503198D02*
X68702765Y-84506053D01*
X68702765Y-84506053D02*
X68593825Y-84505800D01*
X68593825Y-84505800D02*
X68386513Y-84507809D01*
X68386513Y-84507809D02*
X68264802Y-84516049D01*
X68264802Y-84516049D02*
X68212733Y-84533837D01*
X68212733Y-84533837D02*
X68214348Y-84564488D01*
X68214348Y-84564488D02*
X68227200Y-84582000D01*
X68227200Y-84582000D02*
X68324233Y-84633944D01*
X68324233Y-84633944D02*
X68509142Y-84656779D01*
X68509142Y-84656779D02*
X68589020Y-84658200D01*
X68589020Y-84658200D02*
X68747460Y-84664074D01*
X68747460Y-84664074D02*
X68854848Y-84679317D01*
X68854848Y-84679317D02*
X68885344Y-84696300D01*
X68885344Y-84696300D02*
X68859811Y-84753967D01*
X68859811Y-84753967D02*
X68793208Y-84876966D01*
X68793208Y-84876966D02*
X68697358Y-85043884D01*
X68697358Y-85043884D02*
X68639959Y-85140800D01*
X68639959Y-85140800D02*
X68396831Y-85547200D01*
X68396831Y-85547200D02*
X68034213Y-85562093D01*
X68034213Y-85562093D02*
X67671596Y-85576986D01*
X67671596Y-85576986D02*
X67593798Y-85390789D01*
X67593798Y-85390789D02*
X67544515Y-85268467D01*
X67544515Y-85268467D02*
X67517658Y-85193306D01*
X67517658Y-85193306D02*
X67516000Y-85185396D01*
X67516000Y-85185396D02*
X67562474Y-85175859D01*
X67562474Y-85175859D02*
X67684610Y-85168987D01*
X67684610Y-85168987D02*
X67856477Y-85166206D01*
X67856477Y-85166206D02*
X67865379Y-85166200D01*
X67865379Y-85166200D02*
X68085577Y-85157227D01*
X68085577Y-85157227D02*
X68221014Y-85128411D01*
X68221014Y-85128411D02*
X68278000Y-85090000D01*
X68278000Y-85090000D02*
X68303896Y-85042914D01*
X68303896Y-85042914D02*
X68266675Y-85020356D01*
X68266675Y-85020356D02*
X68148722Y-85013901D01*
X68148722Y-85013901D02*
X68118639Y-85013800D01*
X68118639Y-85013800D02*
X67957985Y-84999912D01*
X67957985Y-84999912D02*
X67863113Y-84950187D01*
X67863113Y-84950187D02*
X67829977Y-84908017D01*
X67829977Y-84908017D02*
X67801555Y-84843107D01*
X67801555Y-84843107D02*
X67806678Y-84769044D01*
X67806678Y-84769044D02*
X67852593Y-84661331D01*
X67852593Y-84661331D02*
X67946547Y-84495470D01*
X67946547Y-84495470D02*
X67957457Y-84477104D01*
X67957457Y-84477104D02*
X68151000Y-84151974D01*
X68151000Y-84151974D02*
X68675933Y-84151087D01*
X68675933Y-84151087D02*
X68890567Y-84154126D01*
X68890567Y-84154126D02*
X68890567Y-84154126D01*
G36*
X68890567Y-84154126D02*
G01*
X69059072Y-84163037D01*
X69161282Y-84176337D01*
X69182303Y-84188300D01*
X69107880Y-84340770D01*
X69048870Y-84434669D01*
X68979119Y-84484108D01*
X68872469Y-84503198D01*
X68702765Y-84506053D01*
X68593825Y-84505800D01*
X68386513Y-84507809D01*
X68264802Y-84516049D01*
X68212733Y-84533837D01*
X68214348Y-84564488D01*
X68227200Y-84582000D01*
X68324233Y-84633944D01*
X68509142Y-84656779D01*
X68589020Y-84658200D01*
X68747460Y-84664074D01*
X68854848Y-84679317D01*
X68885344Y-84696300D01*
X68859811Y-84753967D01*
X68793208Y-84876966D01*
X68697358Y-85043884D01*
X68639959Y-85140800D01*
X68396831Y-85547200D01*
X68034213Y-85562093D01*
X67671596Y-85576986D01*
X67593798Y-85390789D01*
X67544515Y-85268467D01*
X67517658Y-85193306D01*
X67516000Y-85185396D01*
X67562474Y-85175859D01*
X67684610Y-85168987D01*
X67856477Y-85166206D01*
X67865379Y-85166200D01*
X68085577Y-85157227D01*
X68221014Y-85128411D01*
X68278000Y-85090000D01*
X68303896Y-85042914D01*
X68266675Y-85020356D01*
X68148722Y-85013901D01*
X68118639Y-85013800D01*
X67957985Y-84999912D01*
X67863113Y-84950187D01*
X67829977Y-84908017D01*
X67801555Y-84843107D01*
X67806678Y-84769044D01*
X67852593Y-84661331D01*
X67946547Y-84495470D01*
X67957457Y-84477104D01*
X68151000Y-84151974D01*
X68675933Y-84151087D01*
X68890567Y-84154126D01*
G37*
X68890567Y-84154126D02*
X69059072Y-84163037D01*
X69161282Y-84176337D01*
X69182303Y-84188300D01*
X69107880Y-84340770D01*
X69048870Y-84434669D01*
X68979119Y-84484108D01*
X68872469Y-84503198D01*
X68702765Y-84506053D01*
X68593825Y-84505800D01*
X68386513Y-84507809D01*
X68264802Y-84516049D01*
X68212733Y-84533837D01*
X68214348Y-84564488D01*
X68227200Y-84582000D01*
X68324233Y-84633944D01*
X68509142Y-84656779D01*
X68589020Y-84658200D01*
X68747460Y-84664074D01*
X68854848Y-84679317D01*
X68885344Y-84696300D01*
X68859811Y-84753967D01*
X68793208Y-84876966D01*
X68697358Y-85043884D01*
X68639959Y-85140800D01*
X68396831Y-85547200D01*
X68034213Y-85562093D01*
X67671596Y-85576986D01*
X67593798Y-85390789D01*
X67544515Y-85268467D01*
X67517658Y-85193306D01*
X67516000Y-85185396D01*
X67562474Y-85175859D01*
X67684610Y-85168987D01*
X67856477Y-85166206D01*
X67865379Y-85166200D01*
X68085577Y-85157227D01*
X68221014Y-85128411D01*
X68278000Y-85090000D01*
X68303896Y-85042914D01*
X68266675Y-85020356D01*
X68148722Y-85013901D01*
X68118639Y-85013800D01*
X67957985Y-84999912D01*
X67863113Y-84950187D01*
X67829977Y-84908017D01*
X67801555Y-84843107D01*
X67806678Y-84769044D01*
X67852593Y-84661331D01*
X67946547Y-84495470D01*
X67957457Y-84477104D01*
X68151000Y-84151974D01*
X68675933Y-84151087D01*
X68890567Y-84154126D01*
X86839760Y-86132932D02*
X87245188Y-86134872D01*
X87245188Y-86134872D02*
X87606326Y-86138061D01*
X87606326Y-86138061D02*
X87912320Y-86142337D01*
X87912320Y-86142337D02*
X88152314Y-86147539D01*
X88152314Y-86147539D02*
X88315451Y-86153505D01*
X88315451Y-86153505D02*
X88390877Y-86160076D01*
X88390877Y-86160076D02*
X88394800Y-86161996D01*
X88394800Y-86161996D02*
X88369550Y-86212410D01*
X88369550Y-86212410D02*
X88298809Y-86336738D01*
X88298809Y-86336738D02*
X88190092Y-86522219D01*
X88190092Y-86522219D02*
X88050913Y-86756089D01*
X88050913Y-86756089D02*
X87888784Y-87025585D01*
X87888784Y-87025585D02*
X87803848Y-87165777D01*
X87803848Y-87165777D02*
X87212896Y-88138961D01*
X87212896Y-88138961D02*
X86306127Y-88633780D01*
X86306127Y-88633780D02*
X85399359Y-89128600D01*
X85399359Y-89128600D02*
X84699979Y-89130495D01*
X84699979Y-89130495D02*
X84000600Y-89132391D01*
X84000600Y-89132391D02*
X83394502Y-90174582D01*
X83394502Y-90174582D02*
X83223071Y-90468013D01*
X83223071Y-90468013D02*
X83068013Y-90730855D01*
X83068013Y-90730855D02*
X82936741Y-90950752D01*
X82936741Y-90950752D02*
X82836666Y-91115348D01*
X82836666Y-91115348D02*
X82775201Y-91212288D01*
X82775201Y-91212288D02*
X82759502Y-91233144D01*
X82759502Y-91233144D02*
X82719418Y-91201696D01*
X82719418Y-91201696D02*
X82632034Y-91103947D01*
X82632034Y-91103947D02*
X82510440Y-90955299D01*
X82510440Y-90955299D02*
X82375000Y-90780752D01*
X82375000Y-90780752D02*
X82234517Y-90591632D01*
X82234517Y-90591632D02*
X82120223Y-90430283D01*
X82120223Y-90430283D02*
X82044460Y-90314645D01*
X82044460Y-90314645D02*
X82019400Y-90263936D01*
X82019400Y-90263936D02*
X82044302Y-90211599D01*
X82044302Y-90211599D02*
X82115635Y-90080536D01*
X82115635Y-90080536D02*
X82228336Y-89879607D01*
X82228336Y-89879607D02*
X82377344Y-89617671D01*
X82377344Y-89617671D02*
X82557596Y-89303586D01*
X82557596Y-89303586D02*
X82764031Y-88946212D01*
X82764031Y-88946212D02*
X82943093Y-88637903D01*
X82943093Y-88637903D02*
X84315382Y-88637903D01*
X84315382Y-88637903D02*
X84549597Y-88506997D01*
X84549597Y-88506997D02*
X84671067Y-88439522D01*
X84671067Y-88439522D02*
X84861835Y-88334052D01*
X84861835Y-88334052D02*
X85102141Y-88201489D01*
X85102141Y-88201489D02*
X85372224Y-88052736D01*
X85372224Y-88052736D02*
X85601104Y-87926846D01*
X85601104Y-87926846D02*
X86418395Y-87477600D01*
X86418395Y-87477600D02*
X85443453Y-87463777D01*
X85443453Y-87463777D02*
X85139220Y-87460749D01*
X85139220Y-87460749D02*
X84871087Y-87460527D01*
X84871087Y-87460527D02*
X84655119Y-87462923D01*
X84655119Y-87462923D02*
X84507381Y-87467751D01*
X84507381Y-87467751D02*
X84443940Y-87474822D01*
X84443940Y-87474822D02*
X84443021Y-87475444D01*
X84443021Y-87475444D02*
X84453926Y-87528310D01*
X84453926Y-87528310D02*
X84509674Y-87635739D01*
X84509674Y-87635739D02*
X84559789Y-87715900D01*
X84559789Y-87715900D02*
X84702046Y-87930865D01*
X84702046Y-87930865D02*
X84315382Y-88637903D01*
X84315382Y-88637903D02*
X82943093Y-88637903D01*
X82943093Y-88637903D02*
X82991586Y-88554408D01*
X82991586Y-88554408D02*
X83213200Y-88174642D01*
X83213200Y-88174642D02*
X84407000Y-86133400D01*
X84407000Y-86133400D02*
X86400900Y-86132400D01*
X86400900Y-86132400D02*
X86839760Y-86132932D01*
X86839760Y-86132932D02*
X86839760Y-86132932D01*
G36*
X83213200Y-88174642D02*
G01*
X84407000Y-86133400D01*
X86400900Y-86132400D01*
X86839760Y-86132932D01*
X87245188Y-86134872D01*
X87606326Y-86138061D01*
X87912320Y-86142337D01*
X88152314Y-86147539D01*
X88315451Y-86153505D01*
X88390877Y-86160076D01*
X88394800Y-86161996D01*
X88369550Y-86212410D01*
X88298809Y-86336738D01*
X88190092Y-86522219D01*
X88050913Y-86756089D01*
X87888784Y-87025585D01*
X87803848Y-87165777D01*
X87212896Y-88138961D01*
X86306127Y-88633780D01*
X85399359Y-89128600D01*
X84699979Y-89130495D01*
X84000600Y-89132391D01*
X83394502Y-90174582D01*
X83223071Y-90468013D01*
X83068013Y-90730855D01*
X82936741Y-90950752D01*
X82836666Y-91115348D01*
X82775201Y-91212288D01*
X82759502Y-91233144D01*
X82719418Y-91201696D01*
X82632034Y-91103947D01*
X82510440Y-90955299D01*
X82375000Y-90780752D01*
X82234517Y-90591632D01*
X82120223Y-90430283D01*
X82044460Y-90314645D01*
X82019400Y-90263936D01*
X82044302Y-90211599D01*
X82115635Y-90080536D01*
X82228336Y-89879607D01*
X82377344Y-89617671D01*
X82557596Y-89303586D01*
X82764031Y-88946212D01*
X82943093Y-88637903D01*
X84315382Y-88637903D01*
X84549597Y-88506997D01*
X84671067Y-88439522D01*
X84861835Y-88334052D01*
X85102141Y-88201489D01*
X85372224Y-88052736D01*
X85601104Y-87926846D01*
X86418395Y-87477600D01*
X85443453Y-87463777D01*
X85139220Y-87460749D01*
X84871087Y-87460527D01*
X84655119Y-87462923D01*
X84507381Y-87467751D01*
X84443940Y-87474822D01*
X84443021Y-87475444D01*
X84453926Y-87528310D01*
X84509674Y-87635739D01*
X84559789Y-87715900D01*
X84702046Y-87930865D01*
X84315382Y-88637903D01*
X82943093Y-88637903D01*
X82991586Y-88554408D01*
X83213200Y-88174642D01*
G37*
X83213200Y-88174642D02*
X84407000Y-86133400D01*
X86400900Y-86132400D01*
X86839760Y-86132932D01*
X87245188Y-86134872D01*
X87606326Y-86138061D01*
X87912320Y-86142337D01*
X88152314Y-86147539D01*
X88315451Y-86153505D01*
X88390877Y-86160076D01*
X88394800Y-86161996D01*
X88369550Y-86212410D01*
X88298809Y-86336738D01*
X88190092Y-86522219D01*
X88050913Y-86756089D01*
X87888784Y-87025585D01*
X87803848Y-87165777D01*
X87212896Y-88138961D01*
X86306127Y-88633780D01*
X85399359Y-89128600D01*
X84699979Y-89130495D01*
X84000600Y-89132391D01*
X83394502Y-90174582D01*
X83223071Y-90468013D01*
X83068013Y-90730855D01*
X82936741Y-90950752D01*
X82836666Y-91115348D01*
X82775201Y-91212288D01*
X82759502Y-91233144D01*
X82719418Y-91201696D01*
X82632034Y-91103947D01*
X82510440Y-90955299D01*
X82375000Y-90780752D01*
X82234517Y-90591632D01*
X82120223Y-90430283D01*
X82044460Y-90314645D01*
X82019400Y-90263936D01*
X82044302Y-90211599D01*
X82115635Y-90080536D01*
X82228336Y-89879607D01*
X82377344Y-89617671D01*
X82557596Y-89303586D01*
X82764031Y-88946212D01*
X82943093Y-88637903D01*
X84315382Y-88637903D01*
X84549597Y-88506997D01*
X84671067Y-88439522D01*
X84861835Y-88334052D01*
X85102141Y-88201489D01*
X85372224Y-88052736D01*
X85601104Y-87926846D01*
X86418395Y-87477600D01*
X85443453Y-87463777D01*
X85139220Y-87460749D01*
X84871087Y-87460527D01*
X84655119Y-87462923D01*
X84507381Y-87467751D01*
X84443940Y-87474822D01*
X84443021Y-87475444D01*
X84453926Y-87528310D01*
X84509674Y-87635739D01*
X84559789Y-87715900D01*
X84702046Y-87930865D01*
X84315382Y-88637903D01*
X82943093Y-88637903D01*
X82991586Y-88554408D01*
X83213200Y-88174642D01*
X75653303Y-86702900D02*
X75583649Y-86818815D01*
X75583649Y-86818815D02*
X75479727Y-86993643D01*
X75479727Y-86993643D02*
X75358605Y-87198618D01*
X75358605Y-87198618D02*
X75291595Y-87312500D01*
X75291595Y-87312500D02*
X75030469Y-87756999D01*
X75030469Y-87756999D02*
X74778434Y-87757000D01*
X74778434Y-87757000D02*
X74634127Y-87763907D01*
X74634127Y-87763907D02*
X74542862Y-87781553D01*
X74542862Y-87781553D02*
X74526258Y-87795100D01*
X74526258Y-87795100D02*
X74548136Y-87859378D01*
X74548136Y-87859378D02*
X74603598Y-87977801D01*
X74603598Y-87977801D02*
X74635717Y-88040139D01*
X74635717Y-88040139D02*
X74745317Y-88247078D01*
X74745317Y-88247078D02*
X73861158Y-89753380D01*
X73861158Y-89753380D02*
X73652850Y-90107041D01*
X73652850Y-90107041D02*
X73460564Y-90431152D01*
X73460564Y-90431152D02*
X73290354Y-90715689D01*
X73290354Y-90715689D02*
X73148275Y-90950627D01*
X73148275Y-90950627D02*
X73040381Y-91125942D01*
X73040381Y-91125942D02*
X72972728Y-91231611D01*
X72972728Y-91231611D02*
X72951600Y-91259266D01*
X72951600Y-91259266D02*
X72914105Y-91221266D01*
X72914105Y-91221266D02*
X72832950Y-91121429D01*
X72832950Y-91121429D02*
X72723683Y-90980480D01*
X72723683Y-90980480D02*
X72601852Y-90819147D01*
X72601852Y-90819147D02*
X72483005Y-90658156D01*
X72483005Y-90658156D02*
X72382688Y-90518236D01*
X72382688Y-90518236D02*
X72316451Y-90420113D01*
X72316451Y-90420113D02*
X72299588Y-90390058D01*
X72299588Y-90390058D02*
X72315936Y-90329995D01*
X72315936Y-90329995D02*
X72373962Y-90204768D01*
X72373962Y-90204768D02*
X72463056Y-90036325D01*
X72463056Y-90036325D02*
X72515488Y-89943533D01*
X72515488Y-89943533D02*
X72617698Y-89763497D01*
X72617698Y-89763497D02*
X72697084Y-89618270D01*
X72697084Y-89618270D02*
X72742231Y-89529001D01*
X72742231Y-89529001D02*
X72748400Y-89511966D01*
X72748400Y-89511966D02*
X72700835Y-89501365D01*
X72700835Y-89501365D02*
X72571073Y-89492631D01*
X72571073Y-89492631D02*
X72378511Y-89486625D01*
X72378511Y-89486625D02*
X72142546Y-89484212D01*
X72142546Y-89484212D02*
X72123988Y-89484200D01*
X72123988Y-89484200D02*
X71499576Y-89484200D01*
X71499576Y-89484200D02*
X71023032Y-90299264D01*
X71023032Y-90299264D02*
X70868363Y-90562760D01*
X70868363Y-90562760D02*
X70728179Y-90799619D01*
X70728179Y-90799619D02*
X70611742Y-90994349D01*
X70611742Y-90994349D02*
X70528310Y-91131462D01*
X70528310Y-91131462D02*
X70488041Y-91194260D01*
X70488041Y-91194260D02*
X70453761Y-91218705D01*
X70453761Y-91218705D02*
X70405464Y-91199834D01*
X70405464Y-91199834D02*
X70331715Y-91126863D01*
X70331715Y-91126863D02*
X70221080Y-90989008D01*
X70221080Y-90989008D02*
X70103097Y-90831232D01*
X70103097Y-90831232D02*
X69971511Y-90645644D01*
X69971511Y-90645644D02*
X69868542Y-90486820D01*
X69868542Y-90486820D02*
X69806088Y-90374010D01*
X69806088Y-90374010D02*
X69793259Y-90329936D01*
X69793259Y-90329936D02*
X69822283Y-90275342D01*
X69822283Y-90275342D02*
X69898447Y-90143093D01*
X69898447Y-90143093D02*
X70016261Y-89942439D01*
X70016261Y-89942439D02*
X70170231Y-89682630D01*
X70170231Y-89682630D02*
X70354865Y-89372914D01*
X70354865Y-89372914D02*
X70564671Y-89022542D01*
X70564671Y-89022542D02*
X70794157Y-88640762D01*
X70794157Y-88640762D02*
X70898177Y-88468200D01*
X70898177Y-88468200D02*
X72091425Y-88468200D01*
X72091425Y-88468200D02*
X72737412Y-88467226D01*
X72737412Y-88467226D02*
X73383400Y-88466253D01*
X73383400Y-88466253D02*
X73573900Y-88140444D01*
X73573900Y-88140444D02*
X73665955Y-87979391D01*
X73665955Y-87979391D02*
X73733570Y-87854214D01*
X73733570Y-87854214D02*
X73763868Y-87788881D01*
X73763868Y-87788881D02*
X73764400Y-87785817D01*
X73764400Y-87785817D02*
X73716840Y-87774800D01*
X73716840Y-87774800D02*
X73587112Y-87765727D01*
X73587112Y-87765727D02*
X73394642Y-87759497D01*
X73394642Y-87759497D02*
X73158855Y-87757010D01*
X73158855Y-87757010D02*
X73141836Y-87757000D01*
X73141836Y-87757000D02*
X72519273Y-87757000D01*
X72519273Y-87757000D02*
X72091425Y-88468200D01*
X72091425Y-88468200D02*
X70898177Y-88468200D01*
X70898177Y-88468200D02*
X70936259Y-88405026D01*
X70936259Y-88405026D02*
X72062600Y-86538452D01*
X72062600Y-86538452D02*
X75753886Y-86537800D01*
X75753886Y-86537800D02*
X75653303Y-86702900D01*
X75653303Y-86702900D02*
X75653303Y-86702900D01*
G36*
X72062600Y-86538452D02*
G01*
X75753886Y-86537800D01*
X75653303Y-86702900D01*
X75583649Y-86818815D01*
X75479727Y-86993643D01*
X75358605Y-87198618D01*
X75291595Y-87312500D01*
X75030469Y-87756999D01*
X74778434Y-87757000D01*
X74634127Y-87763907D01*
X74542862Y-87781553D01*
X74526258Y-87795100D01*
X74548136Y-87859378D01*
X74603598Y-87977801D01*
X74635717Y-88040139D01*
X74745317Y-88247078D01*
X73861158Y-89753380D01*
X73652850Y-90107041D01*
X73460564Y-90431152D01*
X73290354Y-90715689D01*
X73148275Y-90950627D01*
X73040381Y-91125942D01*
X72972728Y-91231611D01*
X72951600Y-91259266D01*
X72914105Y-91221266D01*
X72832950Y-91121429D01*
X72723683Y-90980480D01*
X72601852Y-90819147D01*
X72483005Y-90658156D01*
X72382688Y-90518236D01*
X72316451Y-90420113D01*
X72299588Y-90390058D01*
X72315936Y-90329995D01*
X72373962Y-90204768D01*
X72463056Y-90036325D01*
X72515488Y-89943533D01*
X72617698Y-89763497D01*
X72697084Y-89618270D01*
X72742231Y-89529001D01*
X72748400Y-89511966D01*
X72700835Y-89501365D01*
X72571073Y-89492631D01*
X72378511Y-89486625D01*
X72142546Y-89484212D01*
X72123988Y-89484200D01*
X71499576Y-89484200D01*
X71023032Y-90299264D01*
X70868363Y-90562760D01*
X70728179Y-90799619D01*
X70611742Y-90994349D01*
X70528310Y-91131462D01*
X70488041Y-91194260D01*
X70453761Y-91218705D01*
X70405464Y-91199834D01*
X70331715Y-91126863D01*
X70221080Y-90989008D01*
X70103097Y-90831232D01*
X69971511Y-90645644D01*
X69868542Y-90486820D01*
X69806088Y-90374010D01*
X69793259Y-90329936D01*
X69822283Y-90275342D01*
X69898447Y-90143093D01*
X70016261Y-89942439D01*
X70170231Y-89682630D01*
X70354865Y-89372914D01*
X70564671Y-89022542D01*
X70794157Y-88640762D01*
X70898177Y-88468200D01*
X72091425Y-88468200D01*
X72737412Y-88467226D01*
X73383400Y-88466253D01*
X73573900Y-88140444D01*
X73665955Y-87979391D01*
X73733570Y-87854214D01*
X73763868Y-87788881D01*
X73764400Y-87785817D01*
X73716840Y-87774800D01*
X73587112Y-87765727D01*
X73394642Y-87759497D01*
X73158855Y-87757010D01*
X73141836Y-87757000D01*
X72519273Y-87757000D01*
X72091425Y-88468200D01*
X70898177Y-88468200D01*
X70936259Y-88405026D01*
X72062600Y-86538452D01*
G37*
X72062600Y-86538452D02*
X75753886Y-86537800D01*
X75653303Y-86702900D01*
X75583649Y-86818815D01*
X75479727Y-86993643D01*
X75358605Y-87198618D01*
X75291595Y-87312500D01*
X75030469Y-87756999D01*
X74778434Y-87757000D01*
X74634127Y-87763907D01*
X74542862Y-87781553D01*
X74526258Y-87795100D01*
X74548136Y-87859378D01*
X74603598Y-87977801D01*
X74635717Y-88040139D01*
X74745317Y-88247078D01*
X73861158Y-89753380D01*
X73652850Y-90107041D01*
X73460564Y-90431152D01*
X73290354Y-90715689D01*
X73148275Y-90950627D01*
X73040381Y-91125942D01*
X72972728Y-91231611D01*
X72951600Y-91259266D01*
X72914105Y-91221266D01*
X72832950Y-91121429D01*
X72723683Y-90980480D01*
X72601852Y-90819147D01*
X72483005Y-90658156D01*
X72382688Y-90518236D01*
X72316451Y-90420113D01*
X72299588Y-90390058D01*
X72315936Y-90329995D01*
X72373962Y-90204768D01*
X72463056Y-90036325D01*
X72515488Y-89943533D01*
X72617698Y-89763497D01*
X72697084Y-89618270D01*
X72742231Y-89529001D01*
X72748400Y-89511966D01*
X72700835Y-89501365D01*
X72571073Y-89492631D01*
X72378511Y-89486625D01*
X72142546Y-89484212D01*
X72123988Y-89484200D01*
X71499576Y-89484200D01*
X71023032Y-90299264D01*
X70868363Y-90562760D01*
X70728179Y-90799619D01*
X70611742Y-90994349D01*
X70528310Y-91131462D01*
X70488041Y-91194260D01*
X70453761Y-91218705D01*
X70405464Y-91199834D01*
X70331715Y-91126863D01*
X70221080Y-90989008D01*
X70103097Y-90831232D01*
X69971511Y-90645644D01*
X69868542Y-90486820D01*
X69806088Y-90374010D01*
X69793259Y-90329936D01*
X69822283Y-90275342D01*
X69898447Y-90143093D01*
X70016261Y-89942439D01*
X70170231Y-89682630D01*
X70354865Y-89372914D01*
X70564671Y-89022542D01*
X70794157Y-88640762D01*
X70898177Y-88468200D01*
X72091425Y-88468200D01*
X72737412Y-88467226D01*
X73383400Y-88466253D01*
X73573900Y-88140444D01*
X73665955Y-87979391D01*
X73733570Y-87854214D01*
X73763868Y-87788881D01*
X73764400Y-87785817D01*
X73716840Y-87774800D01*
X73587112Y-87765727D01*
X73394642Y-87759497D01*
X73158855Y-87757010D01*
X73141836Y-87757000D01*
X72519273Y-87757000D01*
X72091425Y-88468200D01*
X70898177Y-88468200D01*
X70936259Y-88405026D01*
X72062600Y-86538452D01*
X64747880Y-84001062D02*
X64927923Y-84009904D01*
X64927923Y-84009904D02*
X65044156Y-84022905D01*
X65044156Y-84022905D02*
X65077410Y-84035900D01*
X65077410Y-84035900D02*
X65053020Y-84100441D01*
X65053020Y-84100441D02*
X64992963Y-84211686D01*
X64992963Y-84211686D02*
X64976556Y-84239100D01*
X64976556Y-84239100D02*
X64875893Y-84404200D01*
X64875893Y-84404200D02*
X64439113Y-84404200D01*
X64439113Y-84404200D02*
X64217281Y-84408175D01*
X64217281Y-84408175D02*
X64083999Y-84421405D01*
X64083999Y-84421405D02*
X64026480Y-84445842D01*
X64026480Y-84445842D02*
X64023330Y-84467700D01*
X64023330Y-84467700D02*
X64087670Y-84507441D01*
X64087670Y-84507441D02*
X64245933Y-84534907D01*
X64245933Y-84534907D02*
X64412031Y-84546195D01*
X64412031Y-84546195D02*
X64587804Y-84558113D01*
X64587804Y-84558113D02*
X64712985Y-84575758D01*
X64712985Y-84575758D02*
X64763764Y-84595595D01*
X64763764Y-84595595D02*
X64763568Y-84598374D01*
X64763568Y-84598374D02*
X64732715Y-84655195D01*
X64732715Y-84655195D02*
X64661918Y-84779794D01*
X64661918Y-84779794D02*
X64562558Y-84952268D01*
X64562558Y-84952268D02*
X64474385Y-85104079D01*
X64474385Y-85104079D02*
X64201371Y-85572600D01*
X64201371Y-85572600D02*
X63832905Y-85572600D01*
X63832905Y-85572600D02*
X63590109Y-85562001D01*
X63590109Y-85562001D02*
X63445314Y-85530057D01*
X63445314Y-85530057D02*
X63407721Y-85504258D01*
X63407721Y-85504258D02*
X63357323Y-85406848D01*
X63357323Y-85406848D02*
X63319400Y-85277901D01*
X63319400Y-85277901D02*
X63287797Y-85119886D01*
X63287797Y-85119886D02*
X63683321Y-85104943D01*
X63683321Y-85104943D02*
X63918669Y-85087721D01*
X63918669Y-85087721D02*
X64058850Y-85057764D01*
X64058850Y-85057764D02*
X64099856Y-85026500D01*
X64099856Y-85026500D02*
X64077815Y-84984451D01*
X64077815Y-84984451D02*
X63969546Y-84965069D01*
X63969546Y-84965069D02*
X63886944Y-84963000D01*
X63886944Y-84963000D02*
X63735477Y-84954542D01*
X63735477Y-84954542D02*
X63650666Y-84919375D01*
X63650666Y-84919375D02*
X63598281Y-84842808D01*
X63598281Y-84842808D02*
X63596156Y-84838194D01*
X63596156Y-84838194D02*
X63573920Y-84764992D01*
X63573920Y-84764992D02*
X63582906Y-84684197D01*
X63582906Y-84684197D02*
X63630958Y-84572046D01*
X63630958Y-84572046D02*
X63725921Y-84404776D01*
X63725921Y-84404776D02*
X63755474Y-84355594D01*
X63755474Y-84355594D02*
X63971656Y-83997800D01*
X63971656Y-83997800D02*
X64524628Y-83997800D01*
X64524628Y-83997800D02*
X64747880Y-84001062D01*
X64747880Y-84001062D02*
X64747880Y-84001062D01*
G36*
X64747880Y-84001062D02*
G01*
X64927923Y-84009904D01*
X65044156Y-84022905D01*
X65077410Y-84035900D01*
X65053020Y-84100441D01*
X64992963Y-84211686D01*
X64976556Y-84239100D01*
X64875893Y-84404200D01*
X64439113Y-84404200D01*
X64217281Y-84408175D01*
X64083999Y-84421405D01*
X64026480Y-84445842D01*
X64023330Y-84467700D01*
X64087670Y-84507441D01*
X64245933Y-84534907D01*
X64412031Y-84546195D01*
X64587804Y-84558113D01*
X64712985Y-84575758D01*
X64763764Y-84595595D01*
X64763568Y-84598374D01*
X64732715Y-84655195D01*
X64661918Y-84779794D01*
X64562558Y-84952268D01*
X64474385Y-85104079D01*
X64201371Y-85572600D01*
X63832905Y-85572600D01*
X63590109Y-85562001D01*
X63445314Y-85530057D01*
X63407721Y-85504258D01*
X63357323Y-85406848D01*
X63319400Y-85277901D01*
X63287797Y-85119886D01*
X63683321Y-85104943D01*
X63918669Y-85087721D01*
X64058850Y-85057764D01*
X64099856Y-85026500D01*
X64077815Y-84984451D01*
X63969546Y-84965069D01*
X63886944Y-84963000D01*
X63735477Y-84954542D01*
X63650666Y-84919375D01*
X63598281Y-84842808D01*
X63596156Y-84838194D01*
X63573920Y-84764992D01*
X63582906Y-84684197D01*
X63630958Y-84572046D01*
X63725921Y-84404776D01*
X63755474Y-84355594D01*
X63971656Y-83997800D01*
X64524628Y-83997800D01*
X64747880Y-84001062D01*
G37*
X64747880Y-84001062D02*
X64927923Y-84009904D01*
X65044156Y-84022905D01*
X65077410Y-84035900D01*
X65053020Y-84100441D01*
X64992963Y-84211686D01*
X64976556Y-84239100D01*
X64875893Y-84404200D01*
X64439113Y-84404200D01*
X64217281Y-84408175D01*
X64083999Y-84421405D01*
X64026480Y-84445842D01*
X64023330Y-84467700D01*
X64087670Y-84507441D01*
X64245933Y-84534907D01*
X64412031Y-84546195D01*
X64587804Y-84558113D01*
X64712985Y-84575758D01*
X64763764Y-84595595D01*
X64763568Y-84598374D01*
X64732715Y-84655195D01*
X64661918Y-84779794D01*
X64562558Y-84952268D01*
X64474385Y-85104079D01*
X64201371Y-85572600D01*
X63832905Y-85572600D01*
X63590109Y-85562001D01*
X63445314Y-85530057D01*
X63407721Y-85504258D01*
X63357323Y-85406848D01*
X63319400Y-85277901D01*
X63287797Y-85119886D01*
X63683321Y-85104943D01*
X63918669Y-85087721D01*
X64058850Y-85057764D01*
X64099856Y-85026500D01*
X64077815Y-84984451D01*
X63969546Y-84965069D01*
X63886944Y-84963000D01*
X63735477Y-84954542D01*
X63650666Y-84919375D01*
X63598281Y-84842808D01*
X63596156Y-84838194D01*
X63573920Y-84764992D01*
X63582906Y-84684197D01*
X63630958Y-84572046D01*
X63725921Y-84404776D01*
X63755474Y-84355594D01*
X63971656Y-83997800D01*
X64524628Y-83997800D01*
X64747880Y-84001062D01*
X69783378Y-91424015D02*
X70946092Y-91424311D01*
X70946092Y-91424311D02*
X72145615Y-91424770D01*
X72145615Y-91424770D02*
X73378135Y-91425398D01*
X73378135Y-91425398D02*
X74639841Y-91426195D01*
X74639841Y-91426195D02*
X75715966Y-91426996D01*
X75715966Y-91426996D02*
X77298754Y-91428324D01*
X77298754Y-91428324D02*
X78782737Y-91429720D01*
X78782737Y-91429720D02*
X80170711Y-91431196D01*
X80170711Y-91431196D02*
X81465471Y-91432765D01*
X81465471Y-91432765D02*
X82669812Y-91434441D01*
X82669812Y-91434441D02*
X83786530Y-91436237D01*
X83786530Y-91436237D02*
X84818420Y-91438166D01*
X84818420Y-91438166D02*
X85768277Y-91440241D01*
X85768277Y-91440241D02*
X86638897Y-91442474D01*
X86638897Y-91442474D02*
X87433075Y-91444880D01*
X87433075Y-91444880D02*
X88153607Y-91447471D01*
X88153607Y-91447471D02*
X88803287Y-91450259D01*
X88803287Y-91450259D02*
X89384912Y-91453259D01*
X89384912Y-91453259D02*
X89901276Y-91456483D01*
X89901276Y-91456483D02*
X90355175Y-91459944D01*
X90355175Y-91459944D02*
X90749404Y-91463656D01*
X90749404Y-91463656D02*
X91086759Y-91467631D01*
X91086759Y-91467631D02*
X91370034Y-91471882D01*
X91370034Y-91471882D02*
X91602026Y-91476423D01*
X91602026Y-91476423D02*
X91785529Y-91481267D01*
X91785529Y-91481267D02*
X91923339Y-91486426D01*
X91923339Y-91486426D02*
X92018251Y-91491914D01*
X92018251Y-91491914D02*
X92073061Y-91497743D01*
X92073061Y-91497743D02*
X92090500Y-91503500D01*
X92090500Y-91503500D02*
X92042337Y-91508998D01*
X92042337Y-91508998D02*
X91897184Y-91514279D01*
X91897184Y-91514279D02*
X91659649Y-91519339D01*
X91659649Y-91519339D02*
X91334341Y-91524178D01*
X91334341Y-91524178D02*
X90925871Y-91528793D01*
X90925871Y-91528793D02*
X90438846Y-91533183D01*
X90438846Y-91533183D02*
X89877875Y-91537347D01*
X89877875Y-91537347D02*
X89247569Y-91541281D01*
X89247569Y-91541281D02*
X88552535Y-91544985D01*
X88552535Y-91544985D02*
X87797384Y-91548457D01*
X87797384Y-91548457D02*
X86986723Y-91551696D01*
X86986723Y-91551696D02*
X86125163Y-91554698D01*
X86125163Y-91554698D02*
X85217312Y-91557464D01*
X85217312Y-91557464D02*
X84267780Y-91559990D01*
X84267780Y-91559990D02*
X83281175Y-91562276D01*
X83281175Y-91562276D02*
X82262107Y-91564319D01*
X82262107Y-91564319D02*
X81215184Y-91566117D01*
X81215184Y-91566117D02*
X80145016Y-91567670D01*
X80145016Y-91567670D02*
X79056212Y-91568975D01*
X79056212Y-91568975D02*
X77953381Y-91570031D01*
X77953381Y-91570031D02*
X76841132Y-91570836D01*
X76841132Y-91570836D02*
X75724074Y-91571387D01*
X75724074Y-91571387D02*
X74606816Y-91571684D01*
X74606816Y-91571684D02*
X73493968Y-91571725D01*
X73493968Y-91571725D02*
X72390138Y-91571507D01*
X72390138Y-91571507D02*
X71299936Y-91571030D01*
X71299936Y-91571030D02*
X70227970Y-91570291D01*
X70227970Y-91570291D02*
X69178849Y-91569289D01*
X69178849Y-91569289D02*
X68157184Y-91568022D01*
X68157184Y-91568022D02*
X67167582Y-91566488D01*
X67167582Y-91566488D02*
X66214654Y-91564685D01*
X66214654Y-91564685D02*
X65303007Y-91562613D01*
X65303007Y-91562613D02*
X64437252Y-91560268D01*
X64437252Y-91560268D02*
X63621996Y-91557650D01*
X63621996Y-91557650D02*
X62861850Y-91554756D01*
X62861850Y-91554756D02*
X62161423Y-91551585D01*
X62161423Y-91551585D02*
X61525323Y-91548135D01*
X61525323Y-91548135D02*
X60958159Y-91544405D01*
X60958159Y-91544405D02*
X60464541Y-91540392D01*
X60464541Y-91540392D02*
X60049078Y-91536095D01*
X60049078Y-91536095D02*
X59716379Y-91531512D01*
X59716379Y-91531512D02*
X59471052Y-91526642D01*
X59471052Y-91526642D02*
X59317708Y-91521482D01*
X59317708Y-91521482D02*
X59260955Y-91516032D01*
X59260955Y-91516032D02*
X59260778Y-91515841D01*
X59260778Y-91515841D02*
X59269390Y-91456119D01*
X59269390Y-91456119D02*
X59295880Y-91439337D01*
X59295880Y-91439337D02*
X59351328Y-91437389D01*
X59351328Y-91437389D02*
X59504564Y-91435559D01*
X59504564Y-91435559D02*
X59751778Y-91433851D01*
X59751778Y-91433851D02*
X60089158Y-91432267D01*
X60089158Y-91432267D02*
X60512893Y-91430811D01*
X60512893Y-91430811D02*
X61019172Y-91429485D01*
X61019172Y-91429485D02*
X61604183Y-91428292D01*
X61604183Y-91428292D02*
X62264115Y-91427235D01*
X62264115Y-91427235D02*
X62995157Y-91426317D01*
X62995157Y-91426317D02*
X63793497Y-91425540D01*
X63793497Y-91425540D02*
X64655325Y-91424908D01*
X64655325Y-91424908D02*
X65576828Y-91424423D01*
X65576828Y-91424423D02*
X66554197Y-91424089D01*
X66554197Y-91424089D02*
X67583619Y-91423907D01*
X67583619Y-91423907D02*
X68661283Y-91423882D01*
X68661283Y-91423882D02*
X69783378Y-91424015D01*
X69783378Y-91424015D02*
X69783378Y-91424015D01*
G36*
X69783378Y-91424015D02*
G01*
X70946092Y-91424311D01*
X72145615Y-91424770D01*
X73378135Y-91425398D01*
X74639841Y-91426195D01*
X75715966Y-91426996D01*
X77298754Y-91428324D01*
X78782737Y-91429720D01*
X80170711Y-91431196D01*
X81465471Y-91432765D01*
X82669812Y-91434441D01*
X83786530Y-91436237D01*
X84818420Y-91438166D01*
X85768277Y-91440241D01*
X86638897Y-91442474D01*
X87433075Y-91444880D01*
X88153607Y-91447471D01*
X88803287Y-91450259D01*
X89384912Y-91453259D01*
X89901276Y-91456483D01*
X90355175Y-91459944D01*
X90749404Y-91463656D01*
X91086759Y-91467631D01*
X91370034Y-91471882D01*
X91602026Y-91476423D01*
X91785529Y-91481267D01*
X91923339Y-91486426D01*
X92018251Y-91491914D01*
X92073061Y-91497743D01*
X92090500Y-91503500D01*
X92042337Y-91508998D01*
X91897184Y-91514279D01*
X91659649Y-91519339D01*
X91334341Y-91524178D01*
X90925871Y-91528793D01*
X90438846Y-91533183D01*
X89877875Y-91537347D01*
X89247569Y-91541281D01*
X88552535Y-91544985D01*
X87797384Y-91548457D01*
X86986723Y-91551696D01*
X86125163Y-91554698D01*
X85217312Y-91557464D01*
X84267780Y-91559990D01*
X83281175Y-91562276D01*
X82262107Y-91564319D01*
X81215184Y-91566117D01*
X80145016Y-91567670D01*
X79056212Y-91568975D01*
X77953381Y-91570031D01*
X76841132Y-91570836D01*
X75724074Y-91571387D01*
X74606816Y-91571684D01*
X73493968Y-91571725D01*
X72390138Y-91571507D01*
X71299936Y-91571030D01*
X70227970Y-91570291D01*
X69178849Y-91569289D01*
X68157184Y-91568022D01*
X67167582Y-91566488D01*
X66214654Y-91564685D01*
X65303007Y-91562613D01*
X64437252Y-91560268D01*
X63621996Y-91557650D01*
X62861850Y-91554756D01*
X62161423Y-91551585D01*
X61525323Y-91548135D01*
X60958159Y-91544405D01*
X60464541Y-91540392D01*
X60049078Y-91536095D01*
X59716379Y-91531512D01*
X59471052Y-91526642D01*
X59317708Y-91521482D01*
X59260955Y-91516032D01*
X59260778Y-91515841D01*
X59269390Y-91456119D01*
X59295880Y-91439337D01*
X59351328Y-91437389D01*
X59504564Y-91435559D01*
X59751778Y-91433851D01*
X60089158Y-91432267D01*
X60512893Y-91430811D01*
X61019172Y-91429485D01*
X61604183Y-91428292D01*
X62264115Y-91427235D01*
X62995157Y-91426317D01*
X63793497Y-91425540D01*
X64655325Y-91424908D01*
X65576828Y-91424423D01*
X66554197Y-91424089D01*
X67583619Y-91423907D01*
X68661283Y-91423882D01*
X69783378Y-91424015D01*
G37*
X69783378Y-91424015D02*
X70946092Y-91424311D01*
X72145615Y-91424770D01*
X73378135Y-91425398D01*
X74639841Y-91426195D01*
X75715966Y-91426996D01*
X77298754Y-91428324D01*
X78782737Y-91429720D01*
X80170711Y-91431196D01*
X81465471Y-91432765D01*
X82669812Y-91434441D01*
X83786530Y-91436237D01*
X84818420Y-91438166D01*
X85768277Y-91440241D01*
X86638897Y-91442474D01*
X87433075Y-91444880D01*
X88153607Y-91447471D01*
X88803287Y-91450259D01*
X89384912Y-91453259D01*
X89901276Y-91456483D01*
X90355175Y-91459944D01*
X90749404Y-91463656D01*
X91086759Y-91467631D01*
X91370034Y-91471882D01*
X91602026Y-91476423D01*
X91785529Y-91481267D01*
X91923339Y-91486426D01*
X92018251Y-91491914D01*
X92073061Y-91497743D01*
X92090500Y-91503500D01*
X92042337Y-91508998D01*
X91897184Y-91514279D01*
X91659649Y-91519339D01*
X91334341Y-91524178D01*
X90925871Y-91528793D01*
X90438846Y-91533183D01*
X89877875Y-91537347D01*
X89247569Y-91541281D01*
X88552535Y-91544985D01*
X87797384Y-91548457D01*
X86986723Y-91551696D01*
X86125163Y-91554698D01*
X85217312Y-91557464D01*
X84267780Y-91559990D01*
X83281175Y-91562276D01*
X82262107Y-91564319D01*
X81215184Y-91566117D01*
X80145016Y-91567670D01*
X79056212Y-91568975D01*
X77953381Y-91570031D01*
X76841132Y-91570836D01*
X75724074Y-91571387D01*
X74606816Y-91571684D01*
X73493968Y-91571725D01*
X72390138Y-91571507D01*
X71299936Y-91571030D01*
X70227970Y-91570291D01*
X69178849Y-91569289D01*
X68157184Y-91568022D01*
X67167582Y-91566488D01*
X66214654Y-91564685D01*
X65303007Y-91562613D01*
X64437252Y-91560268D01*
X63621996Y-91557650D01*
X62861850Y-91554756D01*
X62161423Y-91551585D01*
X61525323Y-91548135D01*
X60958159Y-91544405D01*
X60464541Y-91540392D01*
X60049078Y-91536095D01*
X59716379Y-91531512D01*
X59471052Y-91526642D01*
X59317708Y-91521482D01*
X59260955Y-91516032D01*
X59260778Y-91515841D01*
X59269390Y-91456119D01*
X59295880Y-91439337D01*
X59351328Y-91437389D01*
X59504564Y-91435559D01*
X59751778Y-91433851D01*
X60089158Y-91432267D01*
X60512893Y-91430811D01*
X61019172Y-91429485D01*
X61604183Y-91428292D01*
X62264115Y-91427235D01*
X62995157Y-91426317D01*
X63793497Y-91425540D01*
X64655325Y-91424908D01*
X65576828Y-91424423D01*
X66554197Y-91424089D01*
X67583619Y-91423907D01*
X68661283Y-91423882D01*
X69783378Y-91424015D01*
X67105144Y-84152807D02*
X67278931Y-84159854D01*
X67278931Y-84159854D02*
X67387904Y-84170174D01*
X67387904Y-84170174D02*
X67414400Y-84179254D01*
X67414400Y-84179254D02*
X67390327Y-84238726D01*
X67390327Y-84238726D02*
X67330583Y-84350865D01*
X67330583Y-84350865D02*
X67253881Y-84483718D01*
X67253881Y-84483718D02*
X67178931Y-84605333D01*
X67178931Y-84605333D02*
X67124446Y-84683761D01*
X67124446Y-84683761D02*
X67111483Y-84696501D01*
X67111483Y-84696501D02*
X67054069Y-84729079D01*
X67054069Y-84729079D02*
X66946756Y-84793244D01*
X66946756Y-84793244D02*
X66919686Y-84809698D01*
X66919686Y-84809698D02*
X66814675Y-84883219D01*
X66814675Y-84883219D02*
X66784130Y-84946281D01*
X66784130Y-84946281D02*
X66810509Y-85031444D01*
X66810509Y-85031444D02*
X66835370Y-85121159D01*
X66835370Y-85121159D02*
X66813517Y-85215226D01*
X66813517Y-85215226D02*
X66736047Y-85348963D01*
X66736047Y-85348963D02*
X66726972Y-85362747D01*
X66726972Y-85362747D02*
X66588098Y-85572600D01*
X66588098Y-85572600D02*
X66251949Y-85571003D01*
X66251949Y-85571003D02*
X66064459Y-85565649D01*
X66064459Y-85565649D02*
X65948790Y-85546046D01*
X65948790Y-85546046D02*
X65875317Y-85503563D01*
X65875317Y-85503563D02*
X65826900Y-85447147D01*
X65826900Y-85447147D02*
X65762782Y-85343779D01*
X65762782Y-85343779D02*
X65738000Y-85275734D01*
X65738000Y-85275734D02*
X65762176Y-85215022D01*
X65762176Y-85215022D02*
X65802305Y-85136209D01*
X65802305Y-85136209D02*
X66168851Y-85136209D01*
X66168851Y-85136209D02*
X66210837Y-85162584D01*
X66210837Y-85162584D02*
X66295012Y-85166200D01*
X66295012Y-85166200D02*
X66402863Y-85157950D01*
X66402863Y-85157950D02*
X66449168Y-85138046D01*
X66449168Y-85138046D02*
X66449200Y-85137460D01*
X66449200Y-85137460D02*
X66427851Y-85074613D01*
X66427851Y-85074613D02*
X66395851Y-85009037D01*
X66395851Y-85009037D02*
X66330733Y-84940440D01*
X66330733Y-84940440D02*
X66258875Y-84970659D01*
X66258875Y-84970659D02*
X66193685Y-85067429D01*
X66193685Y-85067429D02*
X66168851Y-85136209D01*
X66168851Y-85136209D02*
X65802305Y-85136209D01*
X65802305Y-85136209D02*
X65828064Y-85085619D01*
X65828064Y-85085619D02*
X65925701Y-84906314D01*
X65925701Y-84906314D02*
X66015475Y-84748132D01*
X66015475Y-84748132D02*
X66387002Y-84748132D01*
X66387002Y-84748132D02*
X66389304Y-84769649D01*
X66389304Y-84769649D02*
X66456784Y-84749931D01*
X66456784Y-84749931D02*
X66566971Y-84699134D01*
X66566971Y-84699134D02*
X66697397Y-84627409D01*
X66697397Y-84627409D02*
X66804800Y-84559342D01*
X66804800Y-84559342D02*
X66826200Y-84527677D01*
X66826200Y-84527677D02*
X66765589Y-84511131D01*
X66765589Y-84511131D02*
X66634264Y-84506577D01*
X66634264Y-84506577D02*
X66487183Y-84511304D01*
X66487183Y-84511304D02*
X66420920Y-84531903D01*
X66420920Y-84531903D02*
X66415017Y-84576163D01*
X66415017Y-84576163D02*
X66419241Y-84588438D01*
X66419241Y-84588438D02*
X66416476Y-84693362D01*
X66416476Y-84693362D02*
X66387002Y-84748132D01*
X66387002Y-84748132D02*
X66015475Y-84748132D01*
X66015475Y-84748132D02*
X66045123Y-84695893D01*
X66045123Y-84695893D02*
X66049463Y-84688390D01*
X66049463Y-84688390D02*
X66360926Y-84150200D01*
X66360926Y-84150200D02*
X66887663Y-84150200D01*
X66887663Y-84150200D02*
X67105144Y-84152807D01*
X67105144Y-84152807D02*
X67105144Y-84152807D01*
G36*
X65925701Y-84906314D02*
G01*
X66015475Y-84748132D01*
X66387002Y-84748132D01*
X66389304Y-84769649D01*
X66456784Y-84749931D01*
X66566971Y-84699134D01*
X66697397Y-84627409D01*
X66804800Y-84559342D01*
X66826200Y-84527677D01*
X66765589Y-84511131D01*
X66634264Y-84506577D01*
X66487183Y-84511304D01*
X66420920Y-84531903D01*
X66415017Y-84576163D01*
X66419241Y-84588438D01*
X66416476Y-84693362D01*
X66387002Y-84748132D01*
X66015475Y-84748132D01*
X66045123Y-84695893D01*
X66049463Y-84688390D01*
X66360926Y-84150200D01*
X66887663Y-84150200D01*
X67105144Y-84152807D01*
X67278931Y-84159854D01*
X67387904Y-84170174D01*
X67414400Y-84179254D01*
X67390327Y-84238726D01*
X67330583Y-84350865D01*
X67253881Y-84483718D01*
X67178931Y-84605333D01*
X67124446Y-84683761D01*
X67111483Y-84696501D01*
X67054069Y-84729079D01*
X66946756Y-84793244D01*
X66919686Y-84809698D01*
X66814675Y-84883219D01*
X66784130Y-84946281D01*
X66810509Y-85031444D01*
X66835370Y-85121159D01*
X66813517Y-85215226D01*
X66736047Y-85348963D01*
X66726972Y-85362747D01*
X66588098Y-85572600D01*
X66251949Y-85571003D01*
X66064459Y-85565649D01*
X65948790Y-85546046D01*
X65875317Y-85503563D01*
X65826900Y-85447147D01*
X65762782Y-85343779D01*
X65738000Y-85275734D01*
X65762176Y-85215022D01*
X65802305Y-85136209D01*
X66168851Y-85136209D01*
X66210837Y-85162584D01*
X66295012Y-85166200D01*
X66402863Y-85157950D01*
X66449168Y-85138046D01*
X66449200Y-85137460D01*
X66427851Y-85074613D01*
X66395851Y-85009037D01*
X66330733Y-84940440D01*
X66258875Y-84970659D01*
X66193685Y-85067429D01*
X66168851Y-85136209D01*
X65802305Y-85136209D01*
X65828064Y-85085619D01*
X65925701Y-84906314D01*
G37*
X65925701Y-84906314D02*
X66015475Y-84748132D01*
X66387002Y-84748132D01*
X66389304Y-84769649D01*
X66456784Y-84749931D01*
X66566971Y-84699134D01*
X66697397Y-84627409D01*
X66804800Y-84559342D01*
X66826200Y-84527677D01*
X66765589Y-84511131D01*
X66634264Y-84506577D01*
X66487183Y-84511304D01*
X66420920Y-84531903D01*
X66415017Y-84576163D01*
X66419241Y-84588438D01*
X66416476Y-84693362D01*
X66387002Y-84748132D01*
X66015475Y-84748132D01*
X66045123Y-84695893D01*
X66049463Y-84688390D01*
X66360926Y-84150200D01*
X66887663Y-84150200D01*
X67105144Y-84152807D01*
X67278931Y-84159854D01*
X67387904Y-84170174D01*
X67414400Y-84179254D01*
X67390327Y-84238726D01*
X67330583Y-84350865D01*
X67253881Y-84483718D01*
X67178931Y-84605333D01*
X67124446Y-84683761D01*
X67111483Y-84696501D01*
X67054069Y-84729079D01*
X66946756Y-84793244D01*
X66919686Y-84809698D01*
X66814675Y-84883219D01*
X66784130Y-84946281D01*
X66810509Y-85031444D01*
X66835370Y-85121159D01*
X66813517Y-85215226D01*
X66736047Y-85348963D01*
X66726972Y-85362747D01*
X66588098Y-85572600D01*
X66251949Y-85571003D01*
X66064459Y-85565649D01*
X65948790Y-85546046D01*
X65875317Y-85503563D01*
X65826900Y-85447147D01*
X65762782Y-85343779D01*
X65738000Y-85275734D01*
X65762176Y-85215022D01*
X65802305Y-85136209D01*
X66168851Y-85136209D01*
X66210837Y-85162584D01*
X66295012Y-85166200D01*
X66402863Y-85157950D01*
X66449168Y-85138046D01*
X66449200Y-85137460D01*
X66427851Y-85074613D01*
X66395851Y-85009037D01*
X66330733Y-84940440D01*
X66258875Y-84970659D01*
X66193685Y-85067429D01*
X66168851Y-85136209D01*
X65802305Y-85136209D01*
X65828064Y-85085619D01*
X65925701Y-84906314D01*
X83751150Y-86677500D02*
X83701150Y-86765548D01*
X83701150Y-86765548D02*
X83608422Y-86923307D01*
X83608422Y-86923307D02*
X83483112Y-87133728D01*
X83483112Y-87133728D02*
X83335365Y-87379763D01*
X83335365Y-87379763D02*
X83199449Y-87604600D01*
X83199449Y-87604600D02*
X82722006Y-88392000D01*
X82722006Y-88392000D02*
X81876731Y-88849200D01*
X81876731Y-88849200D02*
X81612234Y-88994568D01*
X81612234Y-88994568D02*
X81381447Y-89125812D01*
X81381447Y-89125812D02*
X81198258Y-89234671D01*
X81198258Y-89234671D02*
X81076552Y-89312884D01*
X81076552Y-89312884D02*
X81030217Y-89352190D01*
X81030217Y-89352190D02*
X81030128Y-89352837D01*
X81030128Y-89352837D02*
X81058939Y-89405541D01*
X81058939Y-89405541D02*
X81140253Y-89526636D01*
X81140253Y-89526636D02*
X81265162Y-89703574D01*
X81265162Y-89703574D02*
X81424760Y-89923806D01*
X81424760Y-89923806D02*
X81610138Y-90174784D01*
X81610138Y-90174784D02*
X81679214Y-90267237D01*
X81679214Y-90267237D02*
X81873995Y-90527724D01*
X81873995Y-90527724D02*
X82049117Y-90762972D01*
X82049117Y-90762972D02*
X82195015Y-90960049D01*
X82195015Y-90960049D02*
X82302125Y-91106021D01*
X82302125Y-91106021D02*
X82360885Y-91187957D01*
X82360885Y-91187957D02*
X82368012Y-91198700D01*
X82368012Y-91198700D02*
X82362670Y-91225698D01*
X82362670Y-91225698D02*
X82300331Y-91244198D01*
X82300331Y-91244198D02*
X82168932Y-91255435D01*
X82168932Y-91255435D02*
X81956411Y-91260642D01*
X81956411Y-91260642D02*
X81755698Y-91261364D01*
X81755698Y-91261364D02*
X81105000Y-91260529D01*
X81105000Y-91260529D02*
X80470000Y-90323863D01*
X80470000Y-90323863D02*
X80284897Y-90052765D01*
X80284897Y-90052765D02*
X80118159Y-89812249D01*
X80118159Y-89812249D02*
X79978330Y-89614340D01*
X79978330Y-89614340D02*
X79873957Y-89471068D01*
X79873957Y-89471068D02*
X79813586Y-89394458D01*
X79813586Y-89394458D02*
X79802812Y-89384898D01*
X79802812Y-89384898D02*
X79768841Y-89426070D01*
X79768841Y-89426070D02*
X79691961Y-89542529D01*
X79691961Y-89542529D02*
X79580060Y-89721573D01*
X79580060Y-89721573D02*
X79441026Y-89950500D01*
X79441026Y-89950500D02*
X79282749Y-90216606D01*
X79282749Y-90216606D02*
X79220622Y-90322400D01*
X79220622Y-90322400D02*
X79057446Y-90599062D01*
X79057446Y-90599062D02*
X78910958Y-90843330D01*
X78910958Y-90843330D02*
X78788977Y-91042498D01*
X78788977Y-91042498D02*
X78699321Y-91183863D01*
X78699321Y-91183863D02*
X78649811Y-91254722D01*
X78649811Y-91254722D02*
X78643210Y-91260525D01*
X78643210Y-91260525D02*
X78603465Y-91221538D01*
X78603465Y-91221538D02*
X78518151Y-91117733D01*
X78518151Y-91117733D02*
X78401275Y-90966594D01*
X78401275Y-90966594D02*
X78311000Y-90845818D01*
X78311000Y-90845818D02*
X78180938Y-90667740D01*
X78180938Y-90667740D02*
X78074932Y-90519155D01*
X78074932Y-90519155D02*
X78006785Y-90419606D01*
X78006785Y-90419606D02*
X77989269Y-90390300D01*
X77989269Y-90390300D02*
X78010820Y-90340254D01*
X78010820Y-90340254D02*
X78077715Y-90213799D01*
X78077715Y-90213799D02*
X78183557Y-90021964D01*
X78183557Y-90021964D02*
X78321948Y-89775778D01*
X78321948Y-89775778D02*
X78486490Y-89486269D01*
X78486490Y-89486269D02*
X78670785Y-89164466D01*
X78670785Y-89164466D02*
X78868436Y-88821398D01*
X78868436Y-88821398D02*
X79073044Y-88468093D01*
X79073044Y-88468093D02*
X79278213Y-88115579D01*
X79278213Y-88115579D02*
X79477543Y-87774887D01*
X79477543Y-87774887D02*
X79664637Y-87457044D01*
X79664637Y-87457044D02*
X79833098Y-87173079D01*
X79833098Y-87173079D02*
X79976527Y-86934020D01*
X79976527Y-86934020D02*
X80088527Y-86750897D01*
X80088527Y-86750897D02*
X80162700Y-86634737D01*
X80162700Y-86634737D02*
X80188282Y-86599608D01*
X80188282Y-86599608D02*
X80250286Y-86569494D01*
X80250286Y-86569494D02*
X80377070Y-86551791D01*
X80377070Y-86551791D02*
X80581193Y-86545520D01*
X80581193Y-86545520D02*
X80839990Y-86548808D01*
X80839990Y-86548808D02*
X81431569Y-86563200D01*
X81431569Y-86563200D02*
X81088752Y-87147400D01*
X81088752Y-87147400D02*
X80745936Y-87731600D01*
X80745936Y-87731600D02*
X80163166Y-87782400D01*
X80163166Y-87782400D02*
X80291183Y-87970204D01*
X80291183Y-87970204D02*
X80377581Y-88107640D01*
X80377581Y-88107640D02*
X80409627Y-88211690D01*
X80409627Y-88211690D02*
X80387083Y-88319468D01*
X80387083Y-88319468D02*
X80309707Y-88468088D01*
X80309707Y-88468088D02*
X80287721Y-88505824D01*
X80287721Y-88505824D02*
X80216338Y-88635664D01*
X80216338Y-88635664D02*
X80176459Y-88724290D01*
X80176459Y-88724290D02*
X80173421Y-88746303D01*
X80173421Y-88746303D02*
X80221213Y-88728334D01*
X80221213Y-88728334D02*
X80343286Y-88668529D01*
X80343286Y-88668529D02*
X80525107Y-88574394D01*
X80525107Y-88574394D02*
X80752145Y-88453438D01*
X80752145Y-88453438D02*
X80978000Y-88330661D01*
X80978000Y-88330661D02*
X81765400Y-87898892D01*
X81765400Y-87898892D02*
X82170667Y-87218346D01*
X82170667Y-87218346D02*
X82575935Y-86537800D01*
X82575935Y-86537800D02*
X83825409Y-86537800D01*
X83825409Y-86537800D02*
X83751150Y-86677500D01*
X83751150Y-86677500D02*
X83751150Y-86677500D01*
G36*
X83751150Y-86677500D02*
G01*
X83701150Y-86765548D01*
X83608422Y-86923307D01*
X83483112Y-87133728D01*
X83335365Y-87379763D01*
X83199449Y-87604600D01*
X82722006Y-88392000D01*
X81876731Y-88849200D01*
X81612234Y-88994568D01*
X81381447Y-89125812D01*
X81198258Y-89234671D01*
X81076552Y-89312884D01*
X81030217Y-89352190D01*
X81030128Y-89352837D01*
X81058939Y-89405541D01*
X81140253Y-89526636D01*
X81265162Y-89703574D01*
X81424760Y-89923806D01*
X81610138Y-90174784D01*
X81679214Y-90267237D01*
X81873995Y-90527724D01*
X82049117Y-90762972D01*
X82195015Y-90960049D01*
X82302125Y-91106021D01*
X82360885Y-91187957D01*
X82368012Y-91198700D01*
X82362670Y-91225698D01*
X82300331Y-91244198D01*
X82168932Y-91255435D01*
X81956411Y-91260642D01*
X81755698Y-91261364D01*
X81105000Y-91260529D01*
X80470000Y-90323863D01*
X80284897Y-90052765D01*
X80118159Y-89812249D01*
X79978330Y-89614340D01*
X79873957Y-89471068D01*
X79813586Y-89394458D01*
X79802812Y-89384898D01*
X79768841Y-89426070D01*
X79691961Y-89542529D01*
X79580060Y-89721573D01*
X79441026Y-89950500D01*
X79282749Y-90216606D01*
X79220622Y-90322400D01*
X79057446Y-90599062D01*
X78910958Y-90843330D01*
X78788977Y-91042498D01*
X78699321Y-91183863D01*
X78649811Y-91254722D01*
X78643210Y-91260525D01*
X78603465Y-91221538D01*
X78518151Y-91117733D01*
X78401275Y-90966594D01*
X78311000Y-90845818D01*
X78180938Y-90667740D01*
X78074932Y-90519155D01*
X78006785Y-90419606D01*
X77989269Y-90390300D01*
X78010820Y-90340254D01*
X78077715Y-90213799D01*
X78183557Y-90021964D01*
X78321948Y-89775778D01*
X78486490Y-89486269D01*
X78670785Y-89164466D01*
X78868436Y-88821398D01*
X79073044Y-88468093D01*
X79278213Y-88115579D01*
X79477543Y-87774887D01*
X79664637Y-87457044D01*
X79833098Y-87173079D01*
X79976527Y-86934020D01*
X80088527Y-86750897D01*
X80162700Y-86634737D01*
X80188282Y-86599608D01*
X80250286Y-86569494D01*
X80377070Y-86551791D01*
X80581193Y-86545520D01*
X80839990Y-86548808D01*
X81431569Y-86563200D01*
X81088752Y-87147400D01*
X80745936Y-87731600D01*
X80163166Y-87782400D01*
X80291183Y-87970204D01*
X80377581Y-88107640D01*
X80409627Y-88211690D01*
X80387083Y-88319468D01*
X80309707Y-88468088D01*
X80287721Y-88505824D01*
X80216338Y-88635664D01*
X80176459Y-88724290D01*
X80173421Y-88746303D01*
X80221213Y-88728334D01*
X80343286Y-88668529D01*
X80525107Y-88574394D01*
X80752145Y-88453438D01*
X80978000Y-88330661D01*
X81765400Y-87898892D01*
X82170667Y-87218346D01*
X82575935Y-86537800D01*
X83825409Y-86537800D01*
X83751150Y-86677500D01*
G37*
X83751150Y-86677500D02*
X83701150Y-86765548D01*
X83608422Y-86923307D01*
X83483112Y-87133728D01*
X83335365Y-87379763D01*
X83199449Y-87604600D01*
X82722006Y-88392000D01*
X81876731Y-88849200D01*
X81612234Y-88994568D01*
X81381447Y-89125812D01*
X81198258Y-89234671D01*
X81076552Y-89312884D01*
X81030217Y-89352190D01*
X81030128Y-89352837D01*
X81058939Y-89405541D01*
X81140253Y-89526636D01*
X81265162Y-89703574D01*
X81424760Y-89923806D01*
X81610138Y-90174784D01*
X81679214Y-90267237D01*
X81873995Y-90527724D01*
X82049117Y-90762972D01*
X82195015Y-90960049D01*
X82302125Y-91106021D01*
X82360885Y-91187957D01*
X82368012Y-91198700D01*
X82362670Y-91225698D01*
X82300331Y-91244198D01*
X82168932Y-91255435D01*
X81956411Y-91260642D01*
X81755698Y-91261364D01*
X81105000Y-91260529D01*
X80470000Y-90323863D01*
X80284897Y-90052765D01*
X80118159Y-89812249D01*
X79978330Y-89614340D01*
X79873957Y-89471068D01*
X79813586Y-89394458D01*
X79802812Y-89384898D01*
X79768841Y-89426070D01*
X79691961Y-89542529D01*
X79580060Y-89721573D01*
X79441026Y-89950500D01*
X79282749Y-90216606D01*
X79220622Y-90322400D01*
X79057446Y-90599062D01*
X78910958Y-90843330D01*
X78788977Y-91042498D01*
X78699321Y-91183863D01*
X78649811Y-91254722D01*
X78643210Y-91260525D01*
X78603465Y-91221538D01*
X78518151Y-91117733D01*
X78401275Y-90966594D01*
X78311000Y-90845818D01*
X78180938Y-90667740D01*
X78074932Y-90519155D01*
X78006785Y-90419606D01*
X77989269Y-90390300D01*
X78010820Y-90340254D01*
X78077715Y-90213799D01*
X78183557Y-90021964D01*
X78321948Y-89775778D01*
X78486490Y-89486269D01*
X78670785Y-89164466D01*
X78868436Y-88821398D01*
X79073044Y-88468093D01*
X79278213Y-88115579D01*
X79477543Y-87774887D01*
X79664637Y-87457044D01*
X79833098Y-87173079D01*
X79976527Y-86934020D01*
X80088527Y-86750897D01*
X80162700Y-86634737D01*
X80188282Y-86599608D01*
X80250286Y-86569494D01*
X80377070Y-86551791D01*
X80581193Y-86545520D01*
X80839990Y-86548808D01*
X81431569Y-86563200D01*
X81088752Y-87147400D01*
X80745936Y-87731600D01*
X80163166Y-87782400D01*
X80291183Y-87970204D01*
X80377581Y-88107640D01*
X80409627Y-88211690D01*
X80387083Y-88319468D01*
X80309707Y-88468088D01*
X80287721Y-88505824D01*
X80216338Y-88635664D01*
X80176459Y-88724290D01*
X80173421Y-88746303D01*
X80221213Y-88728334D01*
X80343286Y-88668529D01*
X80525107Y-88574394D01*
X80752145Y-88453438D01*
X80978000Y-88330661D01*
X81765400Y-87898892D01*
X82170667Y-87218346D01*
X82575935Y-86537800D01*
X83825409Y-86537800D01*
X83751150Y-86677500D01*
X79747810Y-86652100D02*
X79692451Y-86741478D01*
X79692451Y-86741478D02*
X79599346Y-86895142D01*
X79599346Y-86895142D02*
X79482471Y-87089924D01*
X79482471Y-87089924D02*
X79380108Y-87261700D01*
X79380108Y-87261700D02*
X79085882Y-87757000D01*
X79085882Y-87757000D02*
X76095339Y-87757000D01*
X76095339Y-87757000D02*
X76370049Y-88245698D01*
X76370049Y-88245698D02*
X75854624Y-89120975D01*
X75854624Y-89120975D02*
X75697636Y-89388638D01*
X75697636Y-89388638D02*
X75559920Y-89625490D01*
X75559920Y-89625490D02*
X75449242Y-89818002D01*
X75449242Y-89818002D02*
X75373371Y-89952647D01*
X75373371Y-89952647D02*
X75340073Y-90015897D01*
X75340073Y-90015897D02*
X75339200Y-90018690D01*
X75339200Y-90018690D02*
X75387634Y-90025638D01*
X75387634Y-90025638D02*
X75523484Y-90032900D01*
X75523484Y-90032900D02*
X75732565Y-90040039D01*
X75732565Y-90040039D02*
X76000695Y-90046616D01*
X76000695Y-90046616D02*
X76313692Y-90052193D01*
X76313692Y-90052193D02*
X76507284Y-90054763D01*
X76507284Y-90054763D02*
X77675368Y-90068400D01*
X77675368Y-90068400D02*
X76959350Y-91262200D01*
X76959350Y-91262200D02*
X74551800Y-91257932D01*
X74551800Y-91257932D02*
X74228278Y-90821519D01*
X74228278Y-90821519D02*
X74085616Y-90626900D01*
X74085616Y-90626900D02*
X73995856Y-90494080D01*
X73995856Y-90494080D02*
X73950566Y-90403862D01*
X73950566Y-90403862D02*
X73941312Y-90337047D01*
X73941312Y-90337047D02*
X73959660Y-90274438D01*
X73959660Y-90274438D02*
X73974278Y-90243331D01*
X73974278Y-90243331D02*
X74014623Y-90169347D01*
X74014623Y-90169347D02*
X74100475Y-90017931D01*
X74100475Y-90017931D02*
X74225935Y-89799289D01*
X74225935Y-89799289D02*
X74385107Y-89523624D01*
X74385107Y-89523624D02*
X74572093Y-89201144D01*
X74572093Y-89201144D02*
X74780995Y-88842052D01*
X74780995Y-88842052D02*
X75005918Y-88456554D01*
X75005918Y-88456554D02*
X75085200Y-88320928D01*
X75085200Y-88320928D02*
X76126600Y-86540301D01*
X76126600Y-86540301D02*
X77973942Y-86539050D01*
X77973942Y-86539050D02*
X79821285Y-86537800D01*
X79821285Y-86537800D02*
X79747810Y-86652100D01*
X79747810Y-86652100D02*
X79747810Y-86652100D01*
G36*
X79747810Y-86652100D02*
G01*
X79692451Y-86741478D01*
X79599346Y-86895142D01*
X79482471Y-87089924D01*
X79380108Y-87261700D01*
X79085882Y-87757000D01*
X76095339Y-87757000D01*
X76370049Y-88245698D01*
X75854624Y-89120975D01*
X75697636Y-89388638D01*
X75559920Y-89625490D01*
X75449242Y-89818002D01*
X75373371Y-89952647D01*
X75340073Y-90015897D01*
X75339200Y-90018690D01*
X75387634Y-90025638D01*
X75523484Y-90032900D01*
X75732565Y-90040039D01*
X76000695Y-90046616D01*
X76313692Y-90052193D01*
X76507284Y-90054763D01*
X77675368Y-90068400D01*
X76959350Y-91262200D01*
X74551800Y-91257932D01*
X74228278Y-90821519D01*
X74085616Y-90626900D01*
X73995856Y-90494080D01*
X73950566Y-90403862D01*
X73941312Y-90337047D01*
X73959660Y-90274438D01*
X73974278Y-90243331D01*
X74014623Y-90169347D01*
X74100475Y-90017931D01*
X74225935Y-89799289D01*
X74385107Y-89523624D01*
X74572093Y-89201144D01*
X74780995Y-88842052D01*
X75005918Y-88456554D01*
X75085200Y-88320928D01*
X76126600Y-86540301D01*
X77973942Y-86539050D01*
X79821285Y-86537800D01*
X79747810Y-86652100D01*
G37*
X79747810Y-86652100D02*
X79692451Y-86741478D01*
X79599346Y-86895142D01*
X79482471Y-87089924D01*
X79380108Y-87261700D01*
X79085882Y-87757000D01*
X76095339Y-87757000D01*
X76370049Y-88245698D01*
X75854624Y-89120975D01*
X75697636Y-89388638D01*
X75559920Y-89625490D01*
X75449242Y-89818002D01*
X75373371Y-89952647D01*
X75340073Y-90015897D01*
X75339200Y-90018690D01*
X75387634Y-90025638D01*
X75523484Y-90032900D01*
X75732565Y-90040039D01*
X76000695Y-90046616D01*
X76313692Y-90052193D01*
X76507284Y-90054763D01*
X77675368Y-90068400D01*
X76959350Y-91262200D01*
X74551800Y-91257932D01*
X74228278Y-90821519D01*
X74085616Y-90626900D01*
X73995856Y-90494080D01*
X73950566Y-90403862D01*
X73941312Y-90337047D01*
X73959660Y-90274438D01*
X73974278Y-90243331D01*
X74014623Y-90169347D01*
X74100475Y-90017931D01*
X74225935Y-89799289D01*
X74385107Y-89523624D01*
X74572093Y-89201144D01*
X74780995Y-88842052D01*
X75005918Y-88456554D01*
X75085200Y-88320928D01*
X76126600Y-86540301D01*
X77973942Y-86539050D01*
X79821285Y-86537800D01*
X79747810Y-86652100D01*
X68016676Y-84003563D02*
X68073634Y-84017696D01*
X68073634Y-84017696D02*
X68074800Y-84020296D01*
X68074800Y-84020296D02*
X68051370Y-84074037D01*
X68051370Y-84074037D02*
X67992775Y-84181206D01*
X67992775Y-84181206D02*
X67968182Y-84223496D01*
X67968182Y-84223496D02*
X67884824Y-84342115D01*
X67884824Y-84342115D02*
X67794612Y-84393447D01*
X67794612Y-84393447D02*
X67660384Y-84404200D01*
X67660384Y-84404200D02*
X67530508Y-84394972D01*
X67530508Y-84394972D02*
X67488611Y-84364146D01*
X67488611Y-84364146D02*
X67495931Y-84340700D01*
X67495931Y-84340700D02*
X67611345Y-84158699D01*
X67611345Y-84158699D02*
X67710099Y-84053038D01*
X67710099Y-84053038D02*
X67813371Y-84005764D01*
X67813371Y-84005764D02*
X67900459Y-83997800D01*
X67900459Y-83997800D02*
X68016676Y-84003563D01*
X68016676Y-84003563D02*
X68016676Y-84003563D01*
G36*
X68016676Y-84003563D02*
G01*
X68073634Y-84017696D01*
X68074800Y-84020296D01*
X68051370Y-84074037D01*
X67992775Y-84181206D01*
X67968182Y-84223496D01*
X67884824Y-84342115D01*
X67794612Y-84393447D01*
X67660384Y-84404200D01*
X67530508Y-84394972D01*
X67488611Y-84364146D01*
X67495931Y-84340700D01*
X67611345Y-84158699D01*
X67710099Y-84053038D01*
X67813371Y-84005764D01*
X67900459Y-83997800D01*
X68016676Y-84003563D01*
G37*
X68016676Y-84003563D02*
X68073634Y-84017696D01*
X68074800Y-84020296D01*
X68051370Y-84074037D01*
X67992775Y-84181206D01*
X67968182Y-84223496D01*
X67884824Y-84342115D01*
X67794612Y-84393447D01*
X67660384Y-84404200D01*
X67530508Y-84394972D01*
X67488611Y-84364146D01*
X67495931Y-84340700D01*
X67611345Y-84158699D01*
X67710099Y-84053038D01*
X67813371Y-84005764D01*
X67900459Y-83997800D01*
X68016676Y-84003563D01*
X66159182Y-84315300D02*
X66106899Y-84397004D01*
X66106899Y-84397004D02*
X66049997Y-84447731D01*
X66049997Y-84447731D02*
X65963024Y-84476968D01*
X65963024Y-84476968D02*
X65820532Y-84494199D01*
X65820532Y-84494199D02*
X65648083Y-84505800D01*
X65648083Y-84505800D02*
X65431131Y-84523970D01*
X65431131Y-84523970D02*
X65306772Y-84547218D01*
X65306772Y-84547218D02*
X65266046Y-84577541D01*
X65266046Y-84577541D02*
X65269842Y-84590116D01*
X65269842Y-84590116D02*
X65343554Y-84639655D01*
X65343554Y-84639655D02*
X65446114Y-84666316D01*
X65446114Y-84666316D02*
X65585699Y-84683600D01*
X65585699Y-84683600D02*
X65484796Y-84848700D01*
X65484796Y-84848700D02*
X65400806Y-84959556D01*
X65400806Y-84959556D02*
X65302616Y-85005839D01*
X65302616Y-85005839D02*
X65181541Y-85013800D01*
X65181541Y-85013800D02*
X65051100Y-85022347D01*
X65051100Y-85022347D02*
X65003233Y-85053079D01*
X65003233Y-85053079D02*
X65007544Y-85087694D01*
X65007544Y-85087694D02*
X65073788Y-85138317D01*
X65073788Y-85138317D02*
X65230012Y-85168728D01*
X65230012Y-85168728D02*
X65337039Y-85176594D01*
X65337039Y-85176594D02*
X65638178Y-85191600D01*
X65638178Y-85191600D02*
X65508457Y-85382100D01*
X65508457Y-85382100D02*
X65429636Y-85488983D01*
X65429636Y-85488983D02*
X65356306Y-85545878D01*
X65356306Y-85545878D02*
X65253056Y-85568508D01*
X65253056Y-85568508D02*
X65084478Y-85572599D01*
X65084478Y-85572599D02*
X65079455Y-85572600D01*
X65079455Y-85572600D02*
X64903023Y-85566931D01*
X64903023Y-85566931D02*
X64793483Y-85542232D01*
X64793483Y-85542232D02*
X64716399Y-85486959D01*
X64716399Y-85486959D02*
X64673001Y-85436351D01*
X64673001Y-85436351D02*
X64607331Y-85324571D01*
X64607331Y-85324571D02*
X64591200Y-85235153D01*
X64591200Y-85235153D02*
X64592935Y-85229461D01*
X64592935Y-85229461D02*
X64629229Y-85159882D01*
X64629229Y-85159882D02*
X64707345Y-85024219D01*
X64707345Y-85024219D02*
X64815447Y-84842667D01*
X64815447Y-84842667D02*
X64929952Y-84654510D01*
X64929952Y-84654510D02*
X65239862Y-84150199D01*
X65239862Y-84150199D02*
X66255352Y-84150199D01*
X66255352Y-84150199D02*
X66159182Y-84315300D01*
X66159182Y-84315300D02*
X66159182Y-84315300D01*
G36*
X66159182Y-84315300D02*
G01*
X66106899Y-84397004D01*
X66049997Y-84447731D01*
X65963024Y-84476968D01*
X65820532Y-84494199D01*
X65648083Y-84505800D01*
X65431131Y-84523970D01*
X65306772Y-84547218D01*
X65266046Y-84577541D01*
X65269842Y-84590116D01*
X65343554Y-84639655D01*
X65446114Y-84666316D01*
X65585699Y-84683600D01*
X65484796Y-84848700D01*
X65400806Y-84959556D01*
X65302616Y-85005839D01*
X65181541Y-85013800D01*
X65051100Y-85022347D01*
X65003233Y-85053079D01*
X65007544Y-85087694D01*
X65073788Y-85138317D01*
X65230012Y-85168728D01*
X65337039Y-85176594D01*
X65638178Y-85191600D01*
X65508457Y-85382100D01*
X65429636Y-85488983D01*
X65356306Y-85545878D01*
X65253056Y-85568508D01*
X65084478Y-85572599D01*
X65079455Y-85572600D01*
X64903023Y-85566931D01*
X64793483Y-85542232D01*
X64716399Y-85486959D01*
X64673001Y-85436351D01*
X64607331Y-85324571D01*
X64591200Y-85235153D01*
X64592935Y-85229461D01*
X64629229Y-85159882D01*
X64707345Y-85024219D01*
X64815447Y-84842667D01*
X64929952Y-84654510D01*
X65239862Y-84150199D01*
X66255352Y-84150199D01*
X66159182Y-84315300D01*
G37*
X66159182Y-84315300D02*
X66106899Y-84397004D01*
X66049997Y-84447731D01*
X65963024Y-84476968D01*
X65820532Y-84494199D01*
X65648083Y-84505800D01*
X65431131Y-84523970D01*
X65306772Y-84547218D01*
X65266046Y-84577541D01*
X65269842Y-84590116D01*
X65343554Y-84639655D01*
X65446114Y-84666316D01*
X65585699Y-84683600D01*
X65484796Y-84848700D01*
X65400806Y-84959556D01*
X65302616Y-85005839D01*
X65181541Y-85013800D01*
X65051100Y-85022347D01*
X65003233Y-85053079D01*
X65007544Y-85087694D01*
X65073788Y-85138317D01*
X65230012Y-85168728D01*
X65337039Y-85176594D01*
X65638178Y-85191600D01*
X65508457Y-85382100D01*
X65429636Y-85488983D01*
X65356306Y-85545878D01*
X65253056Y-85568508D01*
X65084478Y-85572599D01*
X65079455Y-85572600D01*
X64903023Y-85566931D01*
X64793483Y-85542232D01*
X64716399Y-85486959D01*
X64673001Y-85436351D01*
X64607331Y-85324571D01*
X64591200Y-85235153D01*
X64592935Y-85229461D01*
X64629229Y-85159882D01*
X64707345Y-85024219D01*
X64815447Y-84842667D01*
X64929952Y-84654510D01*
X65239862Y-84150199D01*
X66255352Y-84150199D01*
X66159182Y-84315300D01*
X71462951Y-86753700D02*
X71375639Y-86902208D01*
X71375639Y-86902208D02*
X71259050Y-87100155D01*
X71259050Y-87100155D02*
X71135590Y-87309506D01*
X71135590Y-87309506D02*
X71111336Y-87350600D01*
X71111336Y-87350600D02*
X70886422Y-87731600D01*
X70886422Y-87731600D02*
X70623611Y-87746954D01*
X70623611Y-87746954D02*
X70452378Y-87767656D01*
X70452378Y-87767656D02*
X70374663Y-87812100D01*
X70374663Y-87812100D02*
X70383051Y-87892434D01*
X70383051Y-87892434D02*
X70462400Y-88011000D01*
X70462400Y-88011000D02*
X70533247Y-88122952D01*
X70533247Y-88122952D02*
X70562870Y-88211352D01*
X70562870Y-88211352D02*
X70538570Y-88268515D01*
X70538570Y-88268515D02*
X70469936Y-88399421D01*
X70469936Y-88399421D02*
X70364112Y-88591805D01*
X70364112Y-88591805D02*
X70228246Y-88833407D01*
X70228246Y-88833407D02*
X70069482Y-89111962D01*
X70069482Y-89111962D02*
X69894967Y-89415208D01*
X69894967Y-89415208D02*
X69711846Y-89730883D01*
X69711846Y-89730883D02*
X69527265Y-90046724D01*
X69527265Y-90046724D02*
X69348370Y-90350468D01*
X69348370Y-90350468D02*
X69182307Y-90629853D01*
X69182307Y-90629853D02*
X69036221Y-90872615D01*
X69036221Y-90872615D02*
X68917258Y-91066493D01*
X68917258Y-91066493D02*
X68832565Y-91199224D01*
X68832565Y-91199224D02*
X68789286Y-91258544D01*
X68789286Y-91258544D02*
X68786032Y-91260525D01*
X68786032Y-91260525D02*
X68748356Y-91221988D01*
X68748356Y-91221988D02*
X68667059Y-91121629D01*
X68667059Y-91121629D02*
X68557693Y-90980216D01*
X68557693Y-90980216D02*
X68435812Y-90818517D01*
X68435812Y-90818517D02*
X68316966Y-90657302D01*
X68316966Y-90657302D02*
X68216707Y-90517339D01*
X68216707Y-90517339D02*
X68150589Y-90419395D01*
X68150589Y-90419395D02*
X68133819Y-90389551D01*
X68133819Y-90389551D02*
X68154140Y-90336189D01*
X68154140Y-90336189D02*
X68220091Y-90207163D01*
X68220091Y-90207163D02*
X68325241Y-90014057D01*
X68325241Y-90014057D02*
X68463161Y-89768454D01*
X68463161Y-89768454D02*
X68627421Y-89481941D01*
X68627421Y-89481941D02*
X68811593Y-89166101D01*
X68811593Y-89166101D02*
X68833581Y-89128726D01*
X68833581Y-89128726D02*
X69022075Y-88807632D01*
X69022075Y-88807632D02*
X69194234Y-88512511D01*
X69194234Y-88512511D02*
X69343096Y-88255445D01*
X69343096Y-88255445D02*
X69461699Y-88048517D01*
X69461699Y-88048517D02*
X69543082Y-87903808D01*
X69543082Y-87903808D02*
X69580284Y-87833399D01*
X69580284Y-87833399D02*
X69581202Y-87831185D01*
X69581202Y-87831185D02*
X69584385Y-87785226D01*
X69584385Y-87785226D02*
X69534178Y-87764465D01*
X69534178Y-87764465D02*
X69410456Y-87763432D01*
X69410456Y-87763432D02*
X69344364Y-87766818D01*
X69344364Y-87766818D02*
X69076846Y-87782400D01*
X69076846Y-87782400D02*
X68370944Y-88976200D01*
X68370944Y-88976200D02*
X68183357Y-89293396D01*
X68183357Y-89293396D02*
X68011523Y-89583868D01*
X68011523Y-89583868D02*
X67862587Y-89835546D01*
X67862587Y-89835546D02*
X67743691Y-90036361D01*
X67743691Y-90036361D02*
X67661981Y-90174245D01*
X67661981Y-90174245D02*
X67624599Y-90237127D01*
X67624599Y-90237127D02*
X67624210Y-90237772D01*
X67624210Y-90237772D02*
X67583703Y-90241238D01*
X67583703Y-90241238D02*
X67504116Y-90172955D01*
X67504116Y-90172955D02*
X67380378Y-90027733D01*
X67380378Y-90027733D02*
X67241096Y-89845838D01*
X67241096Y-89845838D02*
X66898813Y-89386131D01*
X66898813Y-89386131D02*
X67359806Y-88601654D01*
X67359806Y-88601654D02*
X67507857Y-88348114D01*
X67507857Y-88348114D02*
X67636176Y-88125306D01*
X67636176Y-88125306D02*
X67736544Y-87947755D01*
X67736544Y-87947755D02*
X67800741Y-87829984D01*
X67800741Y-87829984D02*
X67820800Y-87787088D01*
X67820800Y-87787088D02*
X67773681Y-87774159D01*
X67773681Y-87774159D02*
X67647036Y-87764013D01*
X67647036Y-87764013D02*
X67462925Y-87758025D01*
X67462925Y-87758025D02*
X67338200Y-87757000D01*
X67338200Y-87757000D02*
X67130821Y-87759743D01*
X67130821Y-87759743D02*
X66968082Y-87767115D01*
X66968082Y-87767115D02*
X66872044Y-87777834D01*
X66872044Y-87777834D02*
X66855600Y-87785095D01*
X66855600Y-87785095D02*
X66881688Y-87840496D01*
X66881688Y-87840496D02*
X66947448Y-87947256D01*
X66947448Y-87947256D02*
X66982600Y-88000087D01*
X66982600Y-88000087D02*
X67059644Y-88120524D01*
X67059644Y-88120524D02*
X67104736Y-88204660D01*
X67104736Y-88204660D02*
X67109600Y-88221173D01*
X67109600Y-88221173D02*
X67084791Y-88272748D01*
X67084791Y-88272748D02*
X67015255Y-88399080D01*
X67015255Y-88399080D02*
X66908322Y-88587680D01*
X66908322Y-88587680D02*
X66771323Y-88826057D01*
X66771323Y-88826057D02*
X66611591Y-89101720D01*
X66611591Y-89101720D02*
X66436457Y-89402178D01*
X66436457Y-89402178D02*
X66253252Y-89714942D01*
X66253252Y-89714942D02*
X66069308Y-90027520D01*
X66069308Y-90027520D02*
X65891956Y-90327421D01*
X65891956Y-90327421D02*
X65728529Y-90602156D01*
X65728529Y-90602156D02*
X65586357Y-90839234D01*
X65586357Y-90839234D02*
X65472773Y-91026163D01*
X65472773Y-91026163D02*
X65395107Y-91150454D01*
X65395107Y-91150454D02*
X65362159Y-91198244D01*
X65362159Y-91198244D02*
X65321888Y-91209022D01*
X65321888Y-91209022D02*
X65258162Y-91166585D01*
X65258162Y-91166585D02*
X65161150Y-91061345D01*
X65161150Y-91061345D02*
X65021019Y-90883713D01*
X65021019Y-90883713D02*
X64969276Y-90815106D01*
X64969276Y-90815106D02*
X64635071Y-90368923D01*
X64635071Y-90368923D02*
X65758035Y-88453582D01*
X65758035Y-88453582D02*
X66881000Y-86538241D01*
X66881000Y-86538241D02*
X69235327Y-86538020D01*
X69235327Y-86538020D02*
X71589654Y-86537800D01*
X71589654Y-86537800D02*
X71462951Y-86753700D01*
X71462951Y-86753700D02*
X71462951Y-86753700D01*
G36*
X71462951Y-86753700D02*
G01*
X71375639Y-86902208D01*
X71259050Y-87100155D01*
X71135590Y-87309506D01*
X71111336Y-87350600D01*
X70886422Y-87731600D01*
X70623611Y-87746954D01*
X70452378Y-87767656D01*
X70374663Y-87812100D01*
X70383051Y-87892434D01*
X70462400Y-88011000D01*
X70533247Y-88122952D01*
X70562870Y-88211352D01*
X70538570Y-88268515D01*
X70469936Y-88399421D01*
X70364112Y-88591805D01*
X70228246Y-88833407D01*
X70069482Y-89111962D01*
X69894967Y-89415208D01*
X69711846Y-89730883D01*
X69527265Y-90046724D01*
X69348370Y-90350468D01*
X69182307Y-90629853D01*
X69036221Y-90872615D01*
X68917258Y-91066493D01*
X68832565Y-91199224D01*
X68789286Y-91258544D01*
X68786032Y-91260525D01*
X68748356Y-91221988D01*
X68667059Y-91121629D01*
X68557693Y-90980216D01*
X68435812Y-90818517D01*
X68316966Y-90657302D01*
X68216707Y-90517339D01*
X68150589Y-90419395D01*
X68133819Y-90389551D01*
X68154140Y-90336189D01*
X68220091Y-90207163D01*
X68325241Y-90014057D01*
X68463161Y-89768454D01*
X68627421Y-89481941D01*
X68811593Y-89166101D01*
X68833581Y-89128726D01*
X69022075Y-88807632D01*
X69194234Y-88512511D01*
X69343096Y-88255445D01*
X69461699Y-88048517D01*
X69543082Y-87903808D01*
X69580284Y-87833399D01*
X69581202Y-87831185D01*
X69584385Y-87785226D01*
X69534178Y-87764465D01*
X69410456Y-87763432D01*
X69344364Y-87766818D01*
X69076846Y-87782400D01*
X68370944Y-88976200D01*
X68183357Y-89293396D01*
X68011523Y-89583868D01*
X67862587Y-89835546D01*
X67743691Y-90036361D01*
X67661981Y-90174245D01*
X67624599Y-90237127D01*
X67624210Y-90237772D01*
X67583703Y-90241238D01*
X67504116Y-90172955D01*
X67380378Y-90027733D01*
X67241096Y-89845838D01*
X66898813Y-89386131D01*
X67359806Y-88601654D01*
X67507857Y-88348114D01*
X67636176Y-88125306D01*
X67736544Y-87947755D01*
X67800741Y-87829984D01*
X67820800Y-87787088D01*
X67773681Y-87774159D01*
X67647036Y-87764013D01*
X67462925Y-87758025D01*
X67338200Y-87757000D01*
X67130821Y-87759743D01*
X66968082Y-87767115D01*
X66872044Y-87777834D01*
X66855600Y-87785095D01*
X66881688Y-87840496D01*
X66947448Y-87947256D01*
X66982600Y-88000087D01*
X67059644Y-88120524D01*
X67104736Y-88204660D01*
X67109600Y-88221173D01*
X67084791Y-88272748D01*
X67015255Y-88399080D01*
X66908322Y-88587680D01*
X66771323Y-88826057D01*
X66611591Y-89101720D01*
X66436457Y-89402178D01*
X66253252Y-89714942D01*
X66069308Y-90027520D01*
X65891956Y-90327421D01*
X65728529Y-90602156D01*
X65586357Y-90839234D01*
X65472773Y-91026163D01*
X65395107Y-91150454D01*
X65362159Y-91198244D01*
X65321888Y-91209022D01*
X65258162Y-91166585D01*
X65161150Y-91061345D01*
X65021019Y-90883713D01*
X64969276Y-90815106D01*
X64635071Y-90368923D01*
X65758035Y-88453582D01*
X66881000Y-86538241D01*
X69235327Y-86538020D01*
X71589654Y-86537800D01*
X71462951Y-86753700D01*
G37*
X71462951Y-86753700D02*
X71375639Y-86902208D01*
X71259050Y-87100155D01*
X71135590Y-87309506D01*
X71111336Y-87350600D01*
X70886422Y-87731600D01*
X70623611Y-87746954D01*
X70452378Y-87767656D01*
X70374663Y-87812100D01*
X70383051Y-87892434D01*
X70462400Y-88011000D01*
X70533247Y-88122952D01*
X70562870Y-88211352D01*
X70538570Y-88268515D01*
X70469936Y-88399421D01*
X70364112Y-88591805D01*
X70228246Y-88833407D01*
X70069482Y-89111962D01*
X69894967Y-89415208D01*
X69711846Y-89730883D01*
X69527265Y-90046724D01*
X69348370Y-90350468D01*
X69182307Y-90629853D01*
X69036221Y-90872615D01*
X68917258Y-91066493D01*
X68832565Y-91199224D01*
X68789286Y-91258544D01*
X68786032Y-91260525D01*
X68748356Y-91221988D01*
X68667059Y-91121629D01*
X68557693Y-90980216D01*
X68435812Y-90818517D01*
X68316966Y-90657302D01*
X68216707Y-90517339D01*
X68150589Y-90419395D01*
X68133819Y-90389551D01*
X68154140Y-90336189D01*
X68220091Y-90207163D01*
X68325241Y-90014057D01*
X68463161Y-89768454D01*
X68627421Y-89481941D01*
X68811593Y-89166101D01*
X68833581Y-89128726D01*
X69022075Y-88807632D01*
X69194234Y-88512511D01*
X69343096Y-88255445D01*
X69461699Y-88048517D01*
X69543082Y-87903808D01*
X69580284Y-87833399D01*
X69581202Y-87831185D01*
X69584385Y-87785226D01*
X69534178Y-87764465D01*
X69410456Y-87763432D01*
X69344364Y-87766818D01*
X69076846Y-87782400D01*
X68370944Y-88976200D01*
X68183357Y-89293396D01*
X68011523Y-89583868D01*
X67862587Y-89835546D01*
X67743691Y-90036361D01*
X67661981Y-90174245D01*
X67624599Y-90237127D01*
X67624210Y-90237772D01*
X67583703Y-90241238D01*
X67504116Y-90172955D01*
X67380378Y-90027733D01*
X67241096Y-89845838D01*
X66898813Y-89386131D01*
X67359806Y-88601654D01*
X67507857Y-88348114D01*
X67636176Y-88125306D01*
X67736544Y-87947755D01*
X67800741Y-87829984D01*
X67820800Y-87787088D01*
X67773681Y-87774159D01*
X67647036Y-87764013D01*
X67462925Y-87758025D01*
X67338200Y-87757000D01*
X67130821Y-87759743D01*
X66968082Y-87767115D01*
X66872044Y-87777834D01*
X66855600Y-87785095D01*
X66881688Y-87840496D01*
X66947448Y-87947256D01*
X66982600Y-88000087D01*
X67059644Y-88120524D01*
X67104736Y-88204660D01*
X67109600Y-88221173D01*
X67084791Y-88272748D01*
X67015255Y-88399080D01*
X66908322Y-88587680D01*
X66771323Y-88826057D01*
X66611591Y-89101720D01*
X66436457Y-89402178D01*
X66253252Y-89714942D01*
X66069308Y-90027520D01*
X65891956Y-90327421D01*
X65728529Y-90602156D01*
X65586357Y-90839234D01*
X65472773Y-91026163D01*
X65395107Y-91150454D01*
X65362159Y-91198244D01*
X65321888Y-91209022D01*
X65258162Y-91166585D01*
X65161150Y-91061345D01*
X65021019Y-90883713D01*
X64969276Y-90815106D01*
X64635071Y-90368923D01*
X65758035Y-88453582D01*
X66881000Y-86538241D01*
X69235327Y-86538020D01*
X71589654Y-86537800D01*
X71462951Y-86753700D01*
X64965490Y-86134105D02*
X65360893Y-86136742D01*
X65360893Y-86136742D02*
X65711014Y-86141176D01*
X65711014Y-86141176D02*
X66004927Y-86147177D01*
X66004927Y-86147177D02*
X66231704Y-86154513D01*
X66231704Y-86154513D02*
X66380417Y-86162955D01*
X66380417Y-86162955D02*
X66440139Y-86172271D01*
X66440139Y-86172271D02*
X66440733Y-86173766D01*
X66440733Y-86173766D02*
X66410441Y-86231051D01*
X66410441Y-86231051D02*
X66338963Y-86359098D01*
X66338963Y-86359098D02*
X66235998Y-86540729D01*
X66235998Y-86540729D02*
X66111244Y-86758766D01*
X66111244Y-86758766D02*
X66068200Y-86833605D01*
X66068200Y-86833605D02*
X65712600Y-87451077D01*
X65712600Y-87451077D02*
X64175900Y-87451638D01*
X64175900Y-87451638D02*
X63792476Y-87452680D01*
X63792476Y-87452680D02*
X63443997Y-87455359D01*
X63443997Y-87455359D02*
X63142825Y-87459443D01*
X63142825Y-87459443D02*
X62901329Y-87464698D01*
X62901329Y-87464698D02*
X62731872Y-87470892D01*
X62731872Y-87470892D02*
X62646821Y-87477790D01*
X62646821Y-87477790D02*
X62639200Y-87480624D01*
X62639200Y-87480624D02*
X62669225Y-87531886D01*
X62669225Y-87531886D02*
X62746910Y-87635143D01*
X62746910Y-87635143D02*
X62827757Y-87734624D01*
X62827757Y-87734624D02*
X63016315Y-87960200D01*
X63016315Y-87960200D02*
X64203590Y-87960200D01*
X64203590Y-87960200D02*
X64537517Y-87961955D01*
X64537517Y-87961955D02*
X64833691Y-87966884D01*
X64833691Y-87966884D02*
X65078314Y-87974476D01*
X65078314Y-87974476D02*
X65257582Y-87984223D01*
X65257582Y-87984223D02*
X65357695Y-87995615D01*
X65357695Y-87995615D02*
X65373933Y-88003359D01*
X65373933Y-88003359D02*
X65345222Y-88055661D01*
X65345222Y-88055661D02*
X65270944Y-88185564D01*
X65270944Y-88185564D02*
X65156924Y-88383026D01*
X65156924Y-88383026D02*
X65008988Y-88638004D01*
X65008988Y-88638004D02*
X64832964Y-88940456D01*
X64832964Y-88940456D02*
X64634677Y-89280341D01*
X64634677Y-89280341D02*
X64419954Y-89647616D01*
X64419954Y-89647616D02*
X64417200Y-89652323D01*
X64417200Y-89652323D02*
X63477400Y-91258128D01*
X63477400Y-91258128D02*
X60767906Y-91262200D01*
X60767906Y-91262200D02*
X60515551Y-90614500D01*
X60515551Y-90614500D02*
X60425076Y-90375628D01*
X60425076Y-90375628D02*
X60352358Y-90170739D01*
X60352358Y-90170739D02*
X60303554Y-90018208D01*
X60303554Y-90018208D02*
X60284820Y-89936413D01*
X60284820Y-89936413D02*
X60285796Y-89928700D01*
X60285796Y-89928700D02*
X60340682Y-89918323D01*
X60340682Y-89918323D02*
X60483323Y-89909023D01*
X60483323Y-89909023D02*
X60699878Y-89901201D01*
X60699878Y-89901201D02*
X60976504Y-89895261D01*
X60976504Y-89895261D02*
X61299359Y-89891607D01*
X61299359Y-89891607D02*
X61593204Y-89890600D01*
X61593204Y-89890600D02*
X62878013Y-89890600D01*
X62878013Y-89890600D02*
X63038006Y-89633224D01*
X63038006Y-89633224D02*
X63123098Y-89493148D01*
X63123098Y-89493148D02*
X63181126Y-89391517D01*
X63181126Y-89391517D02*
X63198000Y-89355147D01*
X63198000Y-89355147D02*
X63150116Y-89347102D01*
X63150116Y-89347102D02*
X63018115Y-89338602D01*
X63018115Y-89338602D02*
X62819471Y-89330435D01*
X62819471Y-89330435D02*
X62571659Y-89323390D01*
X62571659Y-89323390D02*
X62428688Y-89320423D01*
X62428688Y-89320423D02*
X61659377Y-89306400D01*
X61659377Y-89306400D02*
X61412688Y-88908746D01*
X61412688Y-88908746D02*
X61304623Y-88731666D01*
X61304623Y-88731666D02*
X61220615Y-88588520D01*
X61220615Y-88588520D02*
X61172683Y-88500063D01*
X61172683Y-88500063D02*
X61166000Y-88482743D01*
X61166000Y-88482743D02*
X61191845Y-88433853D01*
X61191845Y-88433853D02*
X61264727Y-88310374D01*
X61264727Y-88310374D02*
X61377658Y-88123768D01*
X61377658Y-88123768D02*
X61523654Y-87885496D01*
X61523654Y-87885496D02*
X61695730Y-87607019D01*
X61695730Y-87607019D02*
X61886902Y-87299796D01*
X61886902Y-87299796D02*
X61889900Y-87294995D01*
X61889900Y-87294995D02*
X62613800Y-86135596D01*
X62613800Y-86135596D02*
X64535733Y-86133498D01*
X64535733Y-86133498D02*
X64965490Y-86134105D01*
X64965490Y-86134105D02*
X64965490Y-86134105D01*
G36*
X64965490Y-86134105D02*
G01*
X65360893Y-86136742D01*
X65711014Y-86141176D01*
X66004927Y-86147177D01*
X66231704Y-86154513D01*
X66380417Y-86162955D01*
X66440139Y-86172271D01*
X66440733Y-86173766D01*
X66410441Y-86231051D01*
X66338963Y-86359098D01*
X66235998Y-86540729D01*
X66111244Y-86758766D01*
X66068200Y-86833605D01*
X65712600Y-87451077D01*
X64175900Y-87451638D01*
X63792476Y-87452680D01*
X63443997Y-87455359D01*
X63142825Y-87459443D01*
X62901329Y-87464698D01*
X62731872Y-87470892D01*
X62646821Y-87477790D01*
X62639200Y-87480624D01*
X62669225Y-87531886D01*
X62746910Y-87635143D01*
X62827757Y-87734624D01*
X63016315Y-87960200D01*
X64203590Y-87960200D01*
X64537517Y-87961955D01*
X64833691Y-87966884D01*
X65078314Y-87974476D01*
X65257582Y-87984223D01*
X65357695Y-87995615D01*
X65373933Y-88003359D01*
X65345222Y-88055661D01*
X65270944Y-88185564D01*
X65156924Y-88383026D01*
X65008988Y-88638004D01*
X64832964Y-88940456D01*
X64634677Y-89280341D01*
X64419954Y-89647616D01*
X64417200Y-89652323D01*
X63477400Y-91258128D01*
X60767906Y-91262200D01*
X60515551Y-90614500D01*
X60425076Y-90375628D01*
X60352358Y-90170739D01*
X60303554Y-90018208D01*
X60284820Y-89936413D01*
X60285796Y-89928700D01*
X60340682Y-89918323D01*
X60483323Y-89909023D01*
X60699878Y-89901201D01*
X60976504Y-89895261D01*
X61299359Y-89891607D01*
X61593204Y-89890600D01*
X62878013Y-89890600D01*
X63038006Y-89633224D01*
X63123098Y-89493148D01*
X63181126Y-89391517D01*
X63198000Y-89355147D01*
X63150116Y-89347102D01*
X63018115Y-89338602D01*
X62819471Y-89330435D01*
X62571659Y-89323390D01*
X62428688Y-89320423D01*
X61659377Y-89306400D01*
X61412688Y-88908746D01*
X61304623Y-88731666D01*
X61220615Y-88588520D01*
X61172683Y-88500063D01*
X61166000Y-88482743D01*
X61191845Y-88433853D01*
X61264727Y-88310374D01*
X61377658Y-88123768D01*
X61523654Y-87885496D01*
X61695730Y-87607019D01*
X61886902Y-87299796D01*
X61889900Y-87294995D01*
X62613800Y-86135596D01*
X64535733Y-86133498D01*
X64965490Y-86134105D01*
G37*
X64965490Y-86134105D02*
X65360893Y-86136742D01*
X65711014Y-86141176D01*
X66004927Y-86147177D01*
X66231704Y-86154513D01*
X66380417Y-86162955D01*
X66440139Y-86172271D01*
X66440733Y-86173766D01*
X66410441Y-86231051D01*
X66338963Y-86359098D01*
X66235998Y-86540729D01*
X66111244Y-86758766D01*
X66068200Y-86833605D01*
X65712600Y-87451077D01*
X64175900Y-87451638D01*
X63792476Y-87452680D01*
X63443997Y-87455359D01*
X63142825Y-87459443D01*
X62901329Y-87464698D01*
X62731872Y-87470892D01*
X62646821Y-87477790D01*
X62639200Y-87480624D01*
X62669225Y-87531886D01*
X62746910Y-87635143D01*
X62827757Y-87734624D01*
X63016315Y-87960200D01*
X64203590Y-87960200D01*
X64537517Y-87961955D01*
X64833691Y-87966884D01*
X65078314Y-87974476D01*
X65257582Y-87984223D01*
X65357695Y-87995615D01*
X65373933Y-88003359D01*
X65345222Y-88055661D01*
X65270944Y-88185564D01*
X65156924Y-88383026D01*
X65008988Y-88638004D01*
X64832964Y-88940456D01*
X64634677Y-89280341D01*
X64419954Y-89647616D01*
X64417200Y-89652323D01*
X63477400Y-91258128D01*
X60767906Y-91262200D01*
X60515551Y-90614500D01*
X60425076Y-90375628D01*
X60352358Y-90170739D01*
X60303554Y-90018208D01*
X60284820Y-89936413D01*
X60285796Y-89928700D01*
X60340682Y-89918323D01*
X60483323Y-89909023D01*
X60699878Y-89901201D01*
X60976504Y-89895261D01*
X61299359Y-89891607D01*
X61593204Y-89890600D01*
X62878013Y-89890600D01*
X63038006Y-89633224D01*
X63123098Y-89493148D01*
X63181126Y-89391517D01*
X63198000Y-89355147D01*
X63150116Y-89347102D01*
X63018115Y-89338602D01*
X62819471Y-89330435D01*
X62571659Y-89323390D01*
X62428688Y-89320423D01*
X61659377Y-89306400D01*
X61412688Y-88908746D01*
X61304623Y-88731666D01*
X61220615Y-88588520D01*
X61172683Y-88500063D01*
X61166000Y-88482743D01*
X61191845Y-88433853D01*
X61264727Y-88310374D01*
X61377658Y-88123768D01*
X61523654Y-87885496D01*
X61695730Y-87607019D01*
X61886902Y-87299796D01*
X61889900Y-87294995D01*
X62613800Y-86135596D01*
X64535733Y-86133498D01*
X64965490Y-86134105D01*
X92408428Y-86537800D02*
X95906380Y-86537800D01*
X95906380Y-86537800D02*
X96167438Y-86969995D01*
X96167438Y-86969995D02*
X96276910Y-87160489D01*
X96276910Y-87160489D02*
X96360262Y-87323399D01*
X96360262Y-87323399D02*
X96406678Y-87436538D01*
X96406678Y-87436538D02*
X96412148Y-87472019D01*
X96412148Y-87472019D02*
X96382599Y-87530979D01*
X96382599Y-87530979D02*
X96306382Y-87665758D01*
X96306382Y-87665758D02*
X96189891Y-87865533D01*
X96189891Y-87865533D02*
X96039518Y-88119480D01*
X96039518Y-88119480D02*
X95861658Y-88416774D01*
X95861658Y-88416774D02*
X95662704Y-88746592D01*
X95662704Y-88746592D02*
X95534691Y-88957523D01*
X95534691Y-88957523D02*
X94673582Y-90373200D01*
X94673582Y-90373200D02*
X94137691Y-90816290D01*
X94137691Y-90816290D02*
X93601800Y-91259381D01*
X93601800Y-91259381D02*
X92090500Y-91260790D01*
X92090500Y-91260790D02*
X91710387Y-91260273D01*
X91710387Y-91260273D02*
X91365322Y-91258130D01*
X91365322Y-91258130D02*
X91067771Y-91254572D01*
X91067771Y-91254572D02*
X90830206Y-91249810D01*
X90830206Y-91249810D02*
X90665093Y-91244055D01*
X90665093Y-91244055D02*
X90584904Y-91237520D01*
X90584904Y-91237520D02*
X90579200Y-91235175D01*
X90579200Y-91235175D02*
X90604058Y-91187061D01*
X90604058Y-91187061D02*
X90675152Y-91060390D01*
X90675152Y-91060390D02*
X90787256Y-90864209D01*
X90787256Y-90864209D02*
X90935147Y-90607567D01*
X90935147Y-90607567D02*
X91113601Y-90299510D01*
X91113601Y-90299510D02*
X91275581Y-90020983D01*
X91275581Y-90020983D02*
X92509600Y-90020983D01*
X92509600Y-90020983D02*
X92556901Y-90030088D01*
X92556901Y-90030088D02*
X92684954Y-90035017D01*
X92684954Y-90035017D02*
X92872977Y-90035348D01*
X92872977Y-90035348D02*
X93052652Y-90032018D01*
X93052652Y-90032018D02*
X93595704Y-90017600D01*
X93595704Y-90017600D02*
X94167789Y-89077800D01*
X94167789Y-89077800D02*
X94343777Y-88788041D01*
X94343777Y-88788041D02*
X94508193Y-88516121D01*
X94508193Y-88516121D02*
X94651382Y-88278103D01*
X94651382Y-88278103D02*
X94763687Y-88090053D01*
X94763687Y-88090053D02*
X94835452Y-87968036D01*
X94835452Y-87968036D02*
X94847187Y-87947500D01*
X94847187Y-87947500D02*
X94954500Y-87757000D01*
X94954500Y-87757000D02*
X93265739Y-87757000D01*
X93265739Y-87757000D02*
X93403925Y-88002826D01*
X93403925Y-88002826D02*
X93542111Y-88248653D01*
X93542111Y-88248653D02*
X93025855Y-89122091D01*
X93025855Y-89122091D02*
X92868486Y-89389556D01*
X92868486Y-89389556D02*
X92730460Y-89626472D01*
X92730460Y-89626472D02*
X92619576Y-89819258D01*
X92619576Y-89819258D02*
X92543634Y-89954334D01*
X92543634Y-89954334D02*
X92510434Y-90018120D01*
X92510434Y-90018120D02*
X92509600Y-90020983D01*
X92509600Y-90020983D02*
X91275581Y-90020983D01*
X91275581Y-90020983D02*
X91317394Y-89949086D01*
X91317394Y-89949086D02*
X91541303Y-89565344D01*
X91541303Y-89565344D02*
X91697938Y-89297577D01*
X91697938Y-89297577D02*
X91974098Y-88822987D01*
X91974098Y-88822987D02*
X92215017Y-88402878D01*
X92215017Y-88402878D02*
X92417774Y-88042589D01*
X92417774Y-88042589D02*
X92579449Y-87747455D01*
X92579449Y-87747455D02*
X92697119Y-87522814D01*
X92697119Y-87522814D02*
X92767864Y-87374000D01*
X92767864Y-87374000D02*
X92788762Y-87306353D01*
X92788762Y-87306353D02*
X92788483Y-87305301D01*
X92788483Y-87305301D02*
X92740226Y-87220618D01*
X92740226Y-87220618D02*
X92648962Y-87096554D01*
X92648962Y-87096554D02*
X92590638Y-87025699D01*
X92590638Y-87025699D02*
X92420987Y-86827799D01*
X92420987Y-86827799D02*
X92149995Y-87292399D01*
X92149995Y-87292399D02*
X91879004Y-87756999D01*
X91879004Y-87756999D02*
X91610102Y-87757000D01*
X91610102Y-87757000D02*
X91460356Y-87761504D01*
X91460356Y-87761504D02*
X91362734Y-87773082D01*
X91362734Y-87773082D02*
X91341200Y-87783409D01*
X91341200Y-87783409D02*
X91366016Y-87838288D01*
X91366016Y-87838288D02*
X91428984Y-87947523D01*
X91428984Y-87947523D02*
X91469459Y-88012995D01*
X91469459Y-88012995D02*
X91546197Y-88150013D01*
X91546197Y-88150013D02*
X91566415Y-88243301D01*
X91566415Y-88243301D02*
X91539955Y-88324105D01*
X91539955Y-88324105D02*
X91487714Y-88417194D01*
X91487714Y-88417194D02*
X91394724Y-88578282D01*
X91394724Y-88578282D02*
X91268475Y-88794718D01*
X91268475Y-88794718D02*
X91116463Y-89053854D01*
X91116463Y-89053854D02*
X90946179Y-89343039D01*
X90946179Y-89343039D02*
X90765117Y-89649623D01*
X90765117Y-89649623D02*
X90580770Y-89960956D01*
X90580770Y-89960956D02*
X90400632Y-90264388D01*
X90400632Y-90264388D02*
X90232195Y-90547270D01*
X90232195Y-90547270D02*
X90082953Y-90796951D01*
X90082953Y-90796951D02*
X89960399Y-91000781D01*
X89960399Y-91000781D02*
X89872026Y-91146111D01*
X89872026Y-91146111D02*
X89825327Y-91220291D01*
X89825327Y-91220291D02*
X89820547Y-91226797D01*
X89820547Y-91226797D02*
X89776532Y-91205369D01*
X89776532Y-91205369D02*
X89687119Y-91116100D01*
X89687119Y-91116100D02*
X89565956Y-90973828D01*
X89565956Y-90973828D02*
X89446768Y-90820397D01*
X89446768Y-90820397D02*
X89112211Y-90373200D01*
X89112211Y-90373200D02*
X89243548Y-90144600D01*
X89243548Y-90144600D02*
X89352320Y-89955412D01*
X89352320Y-89955412D02*
X89466560Y-89756913D01*
X89466560Y-89756913D02*
X89500184Y-89698539D01*
X89500184Y-89698539D02*
X89625483Y-89481078D01*
X89625483Y-89481078D02*
X88978552Y-89495339D01*
X88978552Y-89495339D02*
X88331620Y-89509600D01*
X88331620Y-89509600D02*
X87817110Y-90385852D01*
X87817110Y-90385852D02*
X87659347Y-90652398D01*
X87659347Y-90652398D02*
X87518609Y-90886124D01*
X87518609Y-90886124D02*
X87403006Y-91073892D01*
X87403006Y-91073892D02*
X87320648Y-91202565D01*
X87320648Y-91202565D02*
X87279646Y-91259004D01*
X87279646Y-91259004D02*
X87277200Y-91260478D01*
X87277200Y-91260478D02*
X87238314Y-91221530D01*
X87238314Y-91221530D02*
X87153707Y-91117790D01*
X87153707Y-91117790D02*
X87037288Y-90966727D01*
X87037288Y-90966727D02*
X86947000Y-90845818D01*
X86947000Y-90845818D02*
X86816941Y-90667747D01*
X86816941Y-90667747D02*
X86710940Y-90519177D01*
X86710940Y-90519177D02*
X86642800Y-90419648D01*
X86642800Y-90419648D02*
X86625287Y-90390355D01*
X86625287Y-90390355D02*
X86647207Y-90339360D01*
X86647207Y-90339360D02*
X86716727Y-90210626D01*
X86716727Y-90210626D02*
X86828592Y-90013178D01*
X86828592Y-90013178D02*
X86977544Y-89756044D01*
X86977544Y-89756044D02*
X87158325Y-89448252D01*
X87158325Y-89448252D02*
X87365680Y-89098829D01*
X87365680Y-89098829D02*
X87594350Y-88716801D01*
X87594350Y-88716801D02*
X87759425Y-88442862D01*
X87759425Y-88442862D02*
X87767135Y-88430100D01*
X87767135Y-88430100D02*
X88967864Y-88430100D01*
X88967864Y-88430100D02*
X89007474Y-88444493D01*
X89007474Y-88444493D02*
X89130242Y-88456395D01*
X89130242Y-88456395D02*
X89317735Y-88464664D01*
X89317735Y-88464664D02*
X89551521Y-88468156D01*
X89551521Y-88468156D02*
X89581923Y-88468200D01*
X89581923Y-88468200D02*
X90216243Y-88468200D01*
X90216243Y-88468200D02*
X90397721Y-88169454D01*
X90397721Y-88169454D02*
X90489115Y-88011216D01*
X90489115Y-88011216D02*
X90554310Y-87883476D01*
X90554310Y-87883476D02*
X90579199Y-87813874D01*
X90579199Y-87813874D02*
X90579200Y-87813854D01*
X90579200Y-87813854D02*
X90534298Y-87786363D01*
X90534298Y-87786363D02*
X90397266Y-87768046D01*
X90397266Y-87768046D02*
X90164610Y-87758574D01*
X90164610Y-87758574D02*
X89973278Y-87757000D01*
X89973278Y-87757000D02*
X89367356Y-87757000D01*
X89367356Y-87757000D02*
X89177740Y-88074500D01*
X89177740Y-88074500D02*
X89082187Y-88235038D01*
X89082187Y-88235038D02*
X89007683Y-88361211D01*
X89007683Y-88361211D02*
X88969109Y-88427807D01*
X88969109Y-88427807D02*
X88967864Y-88430100D01*
X88967864Y-88430100D02*
X87767135Y-88430100D01*
X87767135Y-88430100D02*
X88910475Y-86537799D01*
X88910475Y-86537799D02*
X92408428Y-86537800D01*
X92408428Y-86537800D02*
X92408428Y-86537800D01*
G36*
X91541303Y-89565344D02*
G01*
X91697938Y-89297577D01*
X91974098Y-88822987D01*
X92215017Y-88402878D01*
X92417774Y-88042589D01*
X92579449Y-87747455D01*
X92697119Y-87522814D01*
X92767864Y-87374000D01*
X92788762Y-87306353D01*
X92788483Y-87305301D01*
X92740226Y-87220618D01*
X92648962Y-87096554D01*
X92590638Y-87025699D01*
X92420987Y-86827799D01*
X92149995Y-87292399D01*
X91879004Y-87756999D01*
X91610102Y-87757000D01*
X91460356Y-87761504D01*
X91362734Y-87773082D01*
X91341200Y-87783409D01*
X91366016Y-87838288D01*
X91428984Y-87947523D01*
X91469459Y-88012995D01*
X91546197Y-88150013D01*
X91566415Y-88243301D01*
X91539955Y-88324105D01*
X91487714Y-88417194D01*
X91394724Y-88578282D01*
X91268475Y-88794718D01*
X91116463Y-89053854D01*
X90946179Y-89343039D01*
X90765117Y-89649623D01*
X90580770Y-89960956D01*
X90400632Y-90264388D01*
X90232195Y-90547270D01*
X90082953Y-90796951D01*
X89960399Y-91000781D01*
X89872026Y-91146111D01*
X89825327Y-91220291D01*
X89820547Y-91226797D01*
X89776532Y-91205369D01*
X89687119Y-91116100D01*
X89565956Y-90973828D01*
X89446768Y-90820397D01*
X89112211Y-90373200D01*
X89243548Y-90144600D01*
X89352320Y-89955412D01*
X89466560Y-89756913D01*
X89500184Y-89698539D01*
X89625483Y-89481078D01*
X88978552Y-89495339D01*
X88331620Y-89509600D01*
X87817110Y-90385852D01*
X87659347Y-90652398D01*
X87518609Y-90886124D01*
X87403006Y-91073892D01*
X87320648Y-91202565D01*
X87279646Y-91259004D01*
X87277200Y-91260478D01*
X87238314Y-91221530D01*
X87153707Y-91117790D01*
X87037288Y-90966727D01*
X86947000Y-90845818D01*
X86816941Y-90667747D01*
X86710940Y-90519177D01*
X86642800Y-90419648D01*
X86625287Y-90390355D01*
X86647207Y-90339360D01*
X86716727Y-90210626D01*
X86828592Y-90013178D01*
X86977544Y-89756044D01*
X87158325Y-89448252D01*
X87365680Y-89098829D01*
X87594350Y-88716801D01*
X87759425Y-88442862D01*
X87767135Y-88430100D01*
X88967864Y-88430100D01*
X89007474Y-88444493D01*
X89130242Y-88456395D01*
X89317735Y-88464664D01*
X89551521Y-88468156D01*
X89581923Y-88468200D01*
X90216243Y-88468200D01*
X90397721Y-88169454D01*
X90489115Y-88011216D01*
X90554310Y-87883476D01*
X90579199Y-87813874D01*
X90579200Y-87813854D01*
X90534298Y-87786363D01*
X90397266Y-87768046D01*
X90164610Y-87758574D01*
X89973278Y-87757000D01*
X89367356Y-87757000D01*
X89177740Y-88074500D01*
X89082187Y-88235038D01*
X89007683Y-88361211D01*
X88969109Y-88427807D01*
X88967864Y-88430100D01*
X87767135Y-88430100D01*
X88910475Y-86537799D01*
X92408428Y-86537800D01*
X95906380Y-86537800D01*
X96167438Y-86969995D01*
X96276910Y-87160489D01*
X96360262Y-87323399D01*
X96406678Y-87436538D01*
X96412148Y-87472019D01*
X96382599Y-87530979D01*
X96306382Y-87665758D01*
X96189891Y-87865533D01*
X96039518Y-88119480D01*
X95861658Y-88416774D01*
X95662704Y-88746592D01*
X95534691Y-88957523D01*
X94673582Y-90373200D01*
X94137691Y-90816290D01*
X93601800Y-91259381D01*
X92090500Y-91260790D01*
X91710387Y-91260273D01*
X91365322Y-91258130D01*
X91067771Y-91254572D01*
X90830206Y-91249810D01*
X90665093Y-91244055D01*
X90584904Y-91237520D01*
X90579200Y-91235175D01*
X90604058Y-91187061D01*
X90675152Y-91060390D01*
X90787256Y-90864209D01*
X90935147Y-90607567D01*
X91113601Y-90299510D01*
X91275581Y-90020983D01*
X92509600Y-90020983D01*
X92556901Y-90030088D01*
X92684954Y-90035017D01*
X92872977Y-90035348D01*
X93052652Y-90032018D01*
X93595704Y-90017600D01*
X94167789Y-89077800D01*
X94343777Y-88788041D01*
X94508193Y-88516121D01*
X94651382Y-88278103D01*
X94763687Y-88090053D01*
X94835452Y-87968036D01*
X94847187Y-87947500D01*
X94954500Y-87757000D01*
X93265739Y-87757000D01*
X93403925Y-88002826D01*
X93542111Y-88248653D01*
X93025855Y-89122091D01*
X92868486Y-89389556D01*
X92730460Y-89626472D01*
X92619576Y-89819258D01*
X92543634Y-89954334D01*
X92510434Y-90018120D01*
X92509600Y-90020983D01*
X91275581Y-90020983D01*
X91317394Y-89949086D01*
X91541303Y-89565344D01*
G37*
X91541303Y-89565344D02*
X91697938Y-89297577D01*
X91974098Y-88822987D01*
X92215017Y-88402878D01*
X92417774Y-88042589D01*
X92579449Y-87747455D01*
X92697119Y-87522814D01*
X92767864Y-87374000D01*
X92788762Y-87306353D01*
X92788483Y-87305301D01*
X92740226Y-87220618D01*
X92648962Y-87096554D01*
X92590638Y-87025699D01*
X92420987Y-86827799D01*
X92149995Y-87292399D01*
X91879004Y-87756999D01*
X91610102Y-87757000D01*
X91460356Y-87761504D01*
X91362734Y-87773082D01*
X91341200Y-87783409D01*
X91366016Y-87838288D01*
X91428984Y-87947523D01*
X91469459Y-88012995D01*
X91546197Y-88150013D01*
X91566415Y-88243301D01*
X91539955Y-88324105D01*
X91487714Y-88417194D01*
X91394724Y-88578282D01*
X91268475Y-88794718D01*
X91116463Y-89053854D01*
X90946179Y-89343039D01*
X90765117Y-89649623D01*
X90580770Y-89960956D01*
X90400632Y-90264388D01*
X90232195Y-90547270D01*
X90082953Y-90796951D01*
X89960399Y-91000781D01*
X89872026Y-91146111D01*
X89825327Y-91220291D01*
X89820547Y-91226797D01*
X89776532Y-91205369D01*
X89687119Y-91116100D01*
X89565956Y-90973828D01*
X89446768Y-90820397D01*
X89112211Y-90373200D01*
X89243548Y-90144600D01*
X89352320Y-89955412D01*
X89466560Y-89756913D01*
X89500184Y-89698539D01*
X89625483Y-89481078D01*
X88978552Y-89495339D01*
X88331620Y-89509600D01*
X87817110Y-90385852D01*
X87659347Y-90652398D01*
X87518609Y-90886124D01*
X87403006Y-91073892D01*
X87320648Y-91202565D01*
X87279646Y-91259004D01*
X87277200Y-91260478D01*
X87238314Y-91221530D01*
X87153707Y-91117790D01*
X87037288Y-90966727D01*
X86947000Y-90845818D01*
X86816941Y-90667747D01*
X86710940Y-90519177D01*
X86642800Y-90419648D01*
X86625287Y-90390355D01*
X86647207Y-90339360D01*
X86716727Y-90210626D01*
X86828592Y-90013178D01*
X86977544Y-89756044D01*
X87158325Y-89448252D01*
X87365680Y-89098829D01*
X87594350Y-88716801D01*
X87759425Y-88442862D01*
X87767135Y-88430100D01*
X88967864Y-88430100D01*
X89007474Y-88444493D01*
X89130242Y-88456395D01*
X89317735Y-88464664D01*
X89551521Y-88468156D01*
X89581923Y-88468200D01*
X90216243Y-88468200D01*
X90397721Y-88169454D01*
X90489115Y-88011216D01*
X90554310Y-87883476D01*
X90579199Y-87813874D01*
X90579200Y-87813854D01*
X90534298Y-87786363D01*
X90397266Y-87768046D01*
X90164610Y-87758574D01*
X89973278Y-87757000D01*
X89367356Y-87757000D01*
X89177740Y-88074500D01*
X89082187Y-88235038D01*
X89007683Y-88361211D01*
X88969109Y-88427807D01*
X88967864Y-88430100D01*
X87767135Y-88430100D01*
X88910475Y-86537799D01*
X92408428Y-86537800D01*
X95906380Y-86537800D01*
X96167438Y-86969995D01*
X96276910Y-87160489D01*
X96360262Y-87323399D01*
X96406678Y-87436538D01*
X96412148Y-87472019D01*
X96382599Y-87530979D01*
X96306382Y-87665758D01*
X96189891Y-87865533D01*
X96039518Y-88119480D01*
X95861658Y-88416774D01*
X95662704Y-88746592D01*
X95534691Y-88957523D01*
X94673582Y-90373200D01*
X94137691Y-90816290D01*
X93601800Y-91259381D01*
X92090500Y-91260790D01*
X91710387Y-91260273D01*
X91365322Y-91258130D01*
X91067771Y-91254572D01*
X90830206Y-91249810D01*
X90665093Y-91244055D01*
X90584904Y-91237520D01*
X90579200Y-91235175D01*
X90604058Y-91187061D01*
X90675152Y-91060390D01*
X90787256Y-90864209D01*
X90935147Y-90607567D01*
X91113601Y-90299510D01*
X91275581Y-90020983D01*
X92509600Y-90020983D01*
X92556901Y-90030088D01*
X92684954Y-90035017D01*
X92872977Y-90035348D01*
X93052652Y-90032018D01*
X93595704Y-90017600D01*
X94167789Y-89077800D01*
X94343777Y-88788041D01*
X94508193Y-88516121D01*
X94651382Y-88278103D01*
X94763687Y-88090053D01*
X94835452Y-87968036D01*
X94847187Y-87947500D01*
X94954500Y-87757000D01*
X93265739Y-87757000D01*
X93403925Y-88002826D01*
X93542111Y-88248653D01*
X93025855Y-89122091D01*
X92868486Y-89389556D01*
X92730460Y-89626472D01*
X92619576Y-89819258D01*
X92543634Y-89954334D01*
X92510434Y-90018120D01*
X92509600Y-90020983D01*
X91275581Y-90020983D01*
X91317394Y-89949086D01*
X91541303Y-89565344D01*
%TD*%
M02*
