M48
; DRILL file {KiCad (6.0.1)} date Fri Jun  2 16:04:22 2023
; FORMAT={-:-/ absolute / inch / decimal}
; #@! TF.CreationDate,2023-06-02T16:04:22+02:00
; #@! TF.GenerationSoftware,Kicad,Pcbnew,(6.0.1)
; #@! TF.FileFunction,NonPlated,1,2,NPTH
FMAT,2
INCH
; #@! TA.AperFunction,NonPlated,NPTH,ComponentDrill
T1C0.0670
; #@! TA.AperFunction,NonPlated,NPTH,ComponentDrill
T2C0.0866
; #@! TA.AperFunction,NonPlated,NPTH,ComponentDrill
T3C0.1181
; #@! TA.AperFunction,NonPlated,NPTH,ComponentDrill
T4C0.1570
%
G90
G05
T1
X2.3383Y-2.6152
X2.7247Y-2.7187
X3.0812Y-2.8152
X3.2832Y-2.064
X3.4676Y-2.9187
X3.6696Y-2.1675
X3.8245Y-3.0148
X4.2109Y-3.1183
X5.6268Y-2.4016
X5.6268Y-3.1496
X6.0268Y-2.4016
X6.0268Y-3.1496
X6.3748Y-2.1654
X6.3748Y-2.9154
X6.7748Y-2.1654
X6.7748Y-2.9154
X7.1228Y-2.1654
X7.1228Y-2.9154
X7.5228Y-2.1654
X7.5228Y-2.9154
X7.8709Y-2.1654
X7.8709Y-2.9154
X8.2709Y-2.1654
X8.2709Y-2.9154
T2
X2.2047Y-1.7717
X2.2047Y-3.4646
X8.4252Y-1.7717
X8.4252Y-3.4646
T3
X2.4125Y-2.5315
X2.6799Y-2.4996
X3.1554Y-2.7315
X3.3574Y-1.9803
X3.4228Y-2.6996
X3.6247Y-1.9484
X3.8987Y-2.9311
X4.1661Y-2.8992
X5.6768Y-2.3016
X5.6768Y-3.0496
X5.9268Y-2.2016
X5.9268Y-2.9496
X6.4248Y-2.0654
X6.4248Y-2.8154
X6.6748Y-1.9654
X6.6748Y-2.7154
X7.1728Y-2.0654
X7.1728Y-2.8154
X7.4228Y-1.9654
X7.4228Y-2.7154
X7.9209Y-2.0654
X7.9209Y-2.8154
X8.1709Y-1.9654
X8.1709Y-2.7154
T4
X2.5315Y-2.6669
X3.2744Y-2.8669
X3.4764Y-2.1157
X4.0177Y-3.0665
X5.8268Y-2.4016
X5.8268Y-3.1496
X6.5748Y-2.1654
X6.5748Y-2.9154
X7.3228Y-2.1654
X7.3228Y-2.9154
X8.0709Y-2.1654
X8.0709Y-2.9154
T0
M30
