%TF.GenerationSoftware,KiCad,Pcbnew,(6.0.1)*%
%TF.CreationDate,2023-06-02T16:05:18+02:00*%
%TF.ProjectId,cock,636f636b-2e6b-4696-9361-645f70636258,rev?*%
%TF.SameCoordinates,Original*%
%TF.FileFunction,Soldermask,Bot*%
%TF.FilePolarity,Negative*%
%FSLAX46Y46*%
G04 Gerber Fmt 4.6, Leading zero omitted, Abs format (unit mm)*
G04 Created by KiCad (PCBNEW (6.0.1)) date 2023-06-02 16:05:18*
%MOMM*%
%LPD*%
G01*
G04 APERTURE LIST*
G04 Aperture macros list*
%AMRotRect*
0 Rectangle, with rotation*
0 The origin of the aperture is its center*
0 $1 length*
0 $2 width*
0 $3 Rotation angle, in degrees counterclockwise*
0 Add horizontal line*
21,1,$1,$2,0,0,$3*%
G04 Aperture macros list end*
%ADD10C,3.000000*%
%ADD11C,1.701800*%
%ADD12C,3.987800*%
%ADD13RotRect,2.550000X2.500000X345.000000*%
%ADD14R,2.550000X2.500000*%
%ADD15C,2.200000*%
%ADD16R,2.600000X1.600000*%
%ADD17R,1.600000X2.600000*%
G04 APERTURE END LIST*
D10*
%TO.C,K3*%
X105818252Y-73640497D03*
D11*
X106956903Y-79204801D03*
D12*
X102050000Y-77890000D03*
D11*
X97143097Y-76575199D03*
D10*
X99027223Y-74450448D03*
D13*
X109440474Y-74611069D03*
X95405001Y-73479876D03*
%TD*%
D11*
%TO.C,K4*%
X69206903Y-69054801D03*
D10*
X61277223Y-64300448D03*
X68068252Y-63490497D03*
D12*
X64300000Y-67740000D03*
D11*
X59393097Y-66425199D03*
D13*
X71690474Y-64461069D03*
X57655001Y-63329876D03*
%TD*%
D11*
%TO.C,K2*%
X88076903Y-74134801D03*
X78263097Y-71505199D03*
D10*
X80147223Y-69380448D03*
D12*
X83170000Y-72820000D03*
D10*
X86938252Y-68570497D03*
D13*
X90560474Y-69541069D03*
X76525001Y-68409876D03*
%TD*%
D10*
%TO.C,K1*%
X85277223Y-50300448D03*
D12*
X88300000Y-53740000D03*
D10*
X92068252Y-49490497D03*
D11*
X83393097Y-52425199D03*
X93206903Y-55054801D03*
D13*
X95690474Y-50461069D03*
X81655001Y-49329876D03*
%TD*%
D10*
%TO.C,K5*%
X144190000Y-77460000D03*
D11*
X153080000Y-80000000D03*
X142920000Y-80000000D03*
D12*
X148000000Y-80000000D03*
D10*
X150540000Y-74920000D03*
D14*
X154290000Y-74920000D03*
X140440000Y-77460000D03*
%TD*%
D12*
%TO.C,K6*%
X167000000Y-74050000D03*
D11*
X172080000Y-74050000D03*
X161920000Y-74050000D03*
D10*
X169540000Y-68970000D03*
X163190000Y-71510000D03*
D14*
X173290000Y-68970000D03*
X159440000Y-71510000D03*
%TD*%
D10*
%TO.C,K7*%
X150540000Y-55920000D03*
D12*
X148000000Y-61000000D03*
D11*
X142920000Y-61000000D03*
X153080000Y-61000000D03*
D10*
X144190000Y-58460000D03*
D14*
X154290000Y-55920000D03*
X140440000Y-58460000D03*
%TD*%
D11*
%TO.C,K8*%
X161920000Y-55000000D03*
D12*
X167000000Y-55000000D03*
D10*
X169540000Y-49920000D03*
X163190000Y-52460000D03*
D11*
X172080000Y-55000000D03*
D14*
X173290000Y-49920000D03*
X159440000Y-52460000D03*
%TD*%
D10*
%TO.C,K9*%
X207540000Y-68970000D03*
D11*
X199920000Y-74050000D03*
D10*
X201190000Y-71510000D03*
D11*
X210080000Y-74050000D03*
D12*
X205000000Y-74050000D03*
D14*
X211290000Y-68970000D03*
X197440000Y-71510000D03*
%TD*%
D11*
%TO.C,K10*%
X199920000Y-55000000D03*
D10*
X201190000Y-52460000D03*
D11*
X210080000Y-55000000D03*
D12*
X205000000Y-55000000D03*
D10*
X207540000Y-49920000D03*
D14*
X211290000Y-49920000D03*
X197440000Y-52460000D03*
%TD*%
D11*
%TO.C,K11*%
X180920000Y-74050000D03*
D10*
X182190000Y-71510000D03*
X188540000Y-68970000D03*
D12*
X186000000Y-74050000D03*
D11*
X191080000Y-74050000D03*
D14*
X192290000Y-68970000D03*
X178440000Y-71510000D03*
%TD*%
D11*
%TO.C,K12*%
X180920000Y-55000000D03*
D12*
X186000000Y-55000000D03*
D11*
X191080000Y-55000000D03*
D10*
X188540000Y-49920000D03*
X182190000Y-52460000D03*
D14*
X192290000Y-49920000D03*
X178440000Y-52460000D03*
%TD*%
D15*
%TO.C,REF\u002A\u002A*%
X214000000Y-45000000D03*
%TD*%
%TO.C,REF\u002A\u002A*%
X56000000Y-45000000D03*
%TD*%
%TO.C,REF\u002A\u002A*%
X56000000Y-88000000D03*
%TD*%
%TO.C,REF\u002A\u002A*%
X214000000Y-88000000D03*
%TD*%
D16*
%TO.C,RZ1*%
X117238000Y-41844000D03*
X117238000Y-44384000D03*
X117238000Y-46924000D03*
X117238000Y-49464000D03*
X117238000Y-52004000D03*
X117238000Y-54544000D03*
X117238000Y-57084000D03*
X117238000Y-59624000D03*
X117238000Y-62164000D03*
D17*
X119778000Y-62374000D03*
X122318000Y-62374000D03*
X124858000Y-62374000D03*
X127398000Y-62374000D03*
X129938000Y-62374000D03*
D16*
X132478000Y-62164000D03*
X132478000Y-59624000D03*
X132478000Y-57084000D03*
X132478000Y-54544000D03*
X132478000Y-52004000D03*
X132478000Y-49464000D03*
X132478000Y-46924000D03*
X132478000Y-41844000D03*
X132478000Y-44384000D03*
%TD*%
M02*
