%TF.GenerationSoftware,KiCad,Pcbnew,(6.0.1)*%
%TF.CreationDate,2023-06-02T16:05:18+02:00*%
%TF.ProjectId,cock,636f636b-2e6b-4696-9361-645f70636258,rev?*%
%TF.SameCoordinates,Original*%
%TF.FileFunction,Legend,Bot*%
%TF.FilePolarity,Positive*%
%FSLAX46Y46*%
G04 Gerber Fmt 4.6, Leading zero omitted, Abs format (unit mm)*
G04 Created by KiCad (PCBNEW (6.0.1)) date 2023-06-02 16:05:18*
%MOMM*%
%LPD*%
G01*
G04 APERTURE LIST*
%ADD10C,0.150000*%
%ADD11C,0.120000*%
G04 APERTURE END LIST*
D10*
%TO.C,K3*%
X103590690Y-69288282D02*
X103331871Y-70254208D01*
X104142648Y-69436179D02*
X103580783Y-69877214D01*
X103883829Y-70402104D02*
X103479768Y-69702250D01*
X104205804Y-70488377D02*
X104803758Y-70648599D01*
X104580380Y-70194354D01*
X104718370Y-70231328D01*
X104822687Y-70209981D01*
X104881009Y-70176309D01*
X104951655Y-70096641D01*
X105013278Y-69866659D01*
X104991931Y-69762341D01*
X104958259Y-69704020D01*
X104878591Y-69633374D01*
X104602612Y-69559426D01*
X104498295Y-69580773D01*
X104439974Y-69614444D01*
%TO.C,K4*%
X65840690Y-59138282D02*
X65581871Y-60104208D01*
X66392648Y-59286179D02*
X65830783Y-59727214D01*
X66133829Y-60252104D02*
X65729768Y-59552250D01*
X67048038Y-60151974D02*
X67220584Y-59508023D01*
X66719458Y-60458322D02*
X66674346Y-59706752D01*
X67272300Y-59866973D01*
%TO.C,K2*%
X84710690Y-64218282D02*
X84451871Y-65184208D01*
X85262648Y-64366179D02*
X84700783Y-64807214D01*
X85003829Y-65332104D02*
X84599768Y-64632250D01*
X85396450Y-65338709D02*
X85430122Y-65397030D01*
X85509790Y-65467676D01*
X85739772Y-65529300D01*
X85844090Y-65507953D01*
X85902411Y-65474281D01*
X85973057Y-65394613D01*
X85997706Y-65302620D01*
X85988684Y-65152306D01*
X85584623Y-64452452D01*
X86182577Y-64612673D01*
%TO.C,K1*%
X89840690Y-45138282D02*
X89581871Y-46104208D01*
X90392648Y-45286179D02*
X89830783Y-45727214D01*
X90133829Y-46252104D02*
X89729768Y-45552250D01*
X91312577Y-45532673D02*
X90760619Y-45384776D01*
X91036598Y-45458725D02*
X90777779Y-46424650D01*
X90722760Y-46262012D01*
X90655417Y-46145369D01*
X90575749Y-46074723D01*
%TO.C,K5*%
X148738095Y-72197380D02*
X148738095Y-71197380D01*
X148166666Y-72197380D02*
X148595238Y-71625952D01*
X148166666Y-71197380D02*
X148738095Y-71768809D01*
X147261904Y-71197380D02*
X147738095Y-71197380D01*
X147785714Y-71673571D01*
X147738095Y-71625952D01*
X147642857Y-71578333D01*
X147404761Y-71578333D01*
X147309523Y-71625952D01*
X147261904Y-71673571D01*
X147214285Y-71768809D01*
X147214285Y-72006904D01*
X147261904Y-72102142D01*
X147309523Y-72149761D01*
X147404761Y-72197380D01*
X147642857Y-72197380D01*
X147738095Y-72149761D01*
X147785714Y-72102142D01*
%TO.C,K6*%
X167738095Y-66247380D02*
X167738095Y-65247380D01*
X167166666Y-66247380D02*
X167595238Y-65675952D01*
X167166666Y-65247380D02*
X167738095Y-65818809D01*
X166309523Y-65247380D02*
X166500000Y-65247380D01*
X166595238Y-65295000D01*
X166642857Y-65342619D01*
X166738095Y-65485476D01*
X166785714Y-65675952D01*
X166785714Y-66056904D01*
X166738095Y-66152142D01*
X166690476Y-66199761D01*
X166595238Y-66247380D01*
X166404761Y-66247380D01*
X166309523Y-66199761D01*
X166261904Y-66152142D01*
X166214285Y-66056904D01*
X166214285Y-65818809D01*
X166261904Y-65723571D01*
X166309523Y-65675952D01*
X166404761Y-65628333D01*
X166595238Y-65628333D01*
X166690476Y-65675952D01*
X166738095Y-65723571D01*
X166785714Y-65818809D01*
%TO.C,K7*%
X148738095Y-53197380D02*
X148738095Y-52197380D01*
X148166666Y-53197380D02*
X148595238Y-52625952D01*
X148166666Y-52197380D02*
X148738095Y-52768809D01*
X147833333Y-52197380D02*
X147166666Y-52197380D01*
X147595238Y-53197380D01*
%TO.C,K8*%
X167738095Y-47197380D02*
X167738095Y-46197380D01*
X167166666Y-47197380D02*
X167595238Y-46625952D01*
X167166666Y-46197380D02*
X167738095Y-46768809D01*
X166595238Y-46625952D02*
X166690476Y-46578333D01*
X166738095Y-46530714D01*
X166785714Y-46435476D01*
X166785714Y-46387857D01*
X166738095Y-46292619D01*
X166690476Y-46245000D01*
X166595238Y-46197380D01*
X166404761Y-46197380D01*
X166309523Y-46245000D01*
X166261904Y-46292619D01*
X166214285Y-46387857D01*
X166214285Y-46435476D01*
X166261904Y-46530714D01*
X166309523Y-46578333D01*
X166404761Y-46625952D01*
X166595238Y-46625952D01*
X166690476Y-46673571D01*
X166738095Y-46721190D01*
X166785714Y-46816428D01*
X166785714Y-47006904D01*
X166738095Y-47102142D01*
X166690476Y-47149761D01*
X166595238Y-47197380D01*
X166404761Y-47197380D01*
X166309523Y-47149761D01*
X166261904Y-47102142D01*
X166214285Y-47006904D01*
X166214285Y-46816428D01*
X166261904Y-46721190D01*
X166309523Y-46673571D01*
X166404761Y-46625952D01*
%TO.C,K9*%
X205738095Y-66247380D02*
X205738095Y-65247380D01*
X205166666Y-66247380D02*
X205595238Y-65675952D01*
X205166666Y-65247380D02*
X205738095Y-65818809D01*
X204690476Y-66247380D02*
X204500000Y-66247380D01*
X204404761Y-66199761D01*
X204357142Y-66152142D01*
X204261904Y-66009285D01*
X204214285Y-65818809D01*
X204214285Y-65437857D01*
X204261904Y-65342619D01*
X204309523Y-65295000D01*
X204404761Y-65247380D01*
X204595238Y-65247380D01*
X204690476Y-65295000D01*
X204738095Y-65342619D01*
X204785714Y-65437857D01*
X204785714Y-65675952D01*
X204738095Y-65771190D01*
X204690476Y-65818809D01*
X204595238Y-65866428D01*
X204404761Y-65866428D01*
X204309523Y-65818809D01*
X204261904Y-65771190D01*
X204214285Y-65675952D01*
%TO.C,K10*%
X206214285Y-47197380D02*
X206214285Y-46197380D01*
X205642857Y-47197380D02*
X206071428Y-46625952D01*
X205642857Y-46197380D02*
X206214285Y-46768809D01*
X204690476Y-47197380D02*
X205261904Y-47197380D01*
X204976190Y-47197380D02*
X204976190Y-46197380D01*
X205071428Y-46340238D01*
X205166666Y-46435476D01*
X205261904Y-46483095D01*
X204071428Y-46197380D02*
X203976190Y-46197380D01*
X203880952Y-46245000D01*
X203833333Y-46292619D01*
X203785714Y-46387857D01*
X203738095Y-46578333D01*
X203738095Y-46816428D01*
X203785714Y-47006904D01*
X203833333Y-47102142D01*
X203880952Y-47149761D01*
X203976190Y-47197380D01*
X204071428Y-47197380D01*
X204166666Y-47149761D01*
X204214285Y-47102142D01*
X204261904Y-47006904D01*
X204309523Y-46816428D01*
X204309523Y-46578333D01*
X204261904Y-46387857D01*
X204214285Y-46292619D01*
X204166666Y-46245000D01*
X204071428Y-46197380D01*
%TO.C,K11*%
X187214285Y-66247380D02*
X187214285Y-65247380D01*
X186642857Y-66247380D02*
X187071428Y-65675952D01*
X186642857Y-65247380D02*
X187214285Y-65818809D01*
X185690476Y-66247380D02*
X186261904Y-66247380D01*
X185976190Y-66247380D02*
X185976190Y-65247380D01*
X186071428Y-65390238D01*
X186166666Y-65485476D01*
X186261904Y-65533095D01*
X184738095Y-66247380D02*
X185309523Y-66247380D01*
X185023809Y-66247380D02*
X185023809Y-65247380D01*
X185119047Y-65390238D01*
X185214285Y-65485476D01*
X185309523Y-65533095D01*
%TO.C,K12*%
X187214285Y-47197380D02*
X187214285Y-46197380D01*
X186642857Y-47197380D02*
X187071428Y-46625952D01*
X186642857Y-46197380D02*
X187214285Y-46768809D01*
X185690476Y-47197380D02*
X186261904Y-47197380D01*
X185976190Y-47197380D02*
X185976190Y-46197380D01*
X186071428Y-46340238D01*
X186166666Y-46435476D01*
X186261904Y-46483095D01*
X185309523Y-46292619D02*
X185261904Y-46245000D01*
X185166666Y-46197380D01*
X184928571Y-46197380D01*
X184833333Y-46245000D01*
X184785714Y-46292619D01*
X184738095Y-46387857D01*
X184738095Y-46483095D01*
X184785714Y-46625952D01*
X185357142Y-47197380D01*
X184738095Y-47197380D01*
%TO.C,RZ1*%
X125500857Y-49706380D02*
X125834190Y-49230190D01*
X126072285Y-49706380D02*
X126072285Y-48706380D01*
X125691333Y-48706380D01*
X125596095Y-48754000D01*
X125548476Y-48801619D01*
X125500857Y-48896857D01*
X125500857Y-49039714D01*
X125548476Y-49134952D01*
X125596095Y-49182571D01*
X125691333Y-49230190D01*
X126072285Y-49230190D01*
X125167523Y-48706380D02*
X124500857Y-48706380D01*
X125167523Y-49706380D01*
X124500857Y-49706380D01*
X123596095Y-49706380D02*
X124167523Y-49706380D01*
X123881809Y-49706380D02*
X123881809Y-48706380D01*
X123977047Y-48849238D01*
X124072285Y-48944476D01*
X124167523Y-48992095D01*
%TO.C,K3*%
X107614304Y-76751349D02*
X102707400Y-75436548D01*
X96179331Y-75265118D02*
X96080721Y-75633136D01*
X99834152Y-76638865D02*
X98166155Y-76191926D01*
X108764754Y-72457809D02*
X108666144Y-72825827D01*
X96448739Y-75731746D02*
X96080721Y-75633136D01*
X97066822Y-71952959D02*
X96968212Y-72320977D01*
X107877264Y-75769969D02*
X107614304Y-76751349D01*
X100177674Y-70156908D02*
X108764754Y-72457809D01*
X102707400Y-75436548D02*
G75*
G03*
X99829245Y-76657179I-657399J-2453454D01*
G01*
X100177674Y-70156908D02*
G75*
G03*
X97066822Y-71952959I-657401J-2453450D01*
G01*
%TO.C,K4*%
X58698739Y-65581746D02*
X58330721Y-65483136D01*
X59316822Y-61802959D02*
X59218212Y-62170977D01*
X69864304Y-66601349D02*
X64957400Y-65286548D01*
X71014754Y-62307809D02*
X70916144Y-62675827D01*
X70127264Y-65619969D02*
X69864304Y-66601349D01*
X58429331Y-65115118D02*
X58330721Y-65483136D01*
X62084152Y-66488865D02*
X60416155Y-66041926D01*
X62427674Y-60006908D02*
X71014754Y-62307809D01*
X62427674Y-60006908D02*
G75*
G03*
X59316822Y-61802959I-657401J-2453450D01*
G01*
X64957400Y-65286548D02*
G75*
G03*
X62079245Y-66507179I-657399J-2453454D01*
G01*
%TO.C,K2*%
X80954152Y-71568865D02*
X79286155Y-71121926D01*
X77568739Y-70661746D02*
X77200721Y-70563136D01*
X78186822Y-66882959D02*
X78088212Y-67250977D01*
X88734304Y-71681349D02*
X83827400Y-70366548D01*
X81297674Y-65086908D02*
X89884754Y-67387809D01*
X88997264Y-70699969D02*
X88734304Y-71681349D01*
X77299331Y-70195118D02*
X77200721Y-70563136D01*
X89884754Y-67387809D02*
X89786144Y-67755827D01*
X81297674Y-65086908D02*
G75*
G03*
X78186822Y-66882959I-657401J-2453450D01*
G01*
X83827400Y-70366548D02*
G75*
G03*
X80949245Y-71587179I-657399J-2453454D01*
G01*
%TO.C,K1*%
X82698739Y-51581746D02*
X82330721Y-51483136D01*
X94127264Y-51619969D02*
X93864304Y-52601349D01*
X93864304Y-52601349D02*
X88957400Y-51286548D01*
X86084152Y-52488865D02*
X84416155Y-52041926D01*
X86427674Y-46006908D02*
X95014754Y-48307809D01*
X83316822Y-47802959D02*
X83218212Y-48170977D01*
X82429331Y-51115118D02*
X82330721Y-51483136D01*
X95014754Y-48307809D02*
X94916144Y-48675827D01*
X88957400Y-51286548D02*
G75*
G03*
X86079245Y-52507179I-657399J-2453454D01*
G01*
X86427674Y-46006908D02*
G75*
G03*
X83316822Y-47802959I-657401J-2453450D01*
G01*
%TO.C,K5*%
X153080000Y-76444000D02*
X153080000Y-77460000D01*
X141650000Y-75555000D02*
X141650000Y-75936000D01*
X144190000Y-73015000D02*
X153080000Y-73015000D01*
X141650000Y-78984000D02*
X141650000Y-79365000D01*
X145535838Y-79365000D02*
X143809000Y-79365000D01*
X142031000Y-79365000D02*
X141650000Y-79365000D01*
X153080000Y-73015000D02*
X153080000Y-73396000D01*
X153080000Y-77460000D02*
X148000000Y-77460000D01*
X144190000Y-73015000D02*
G75*
G03*
X141650000Y-75555000I1J-2540001D01*
G01*
X148000000Y-77459999D02*
G75*
G03*
X145535838Y-79383960I0J-2540000D01*
G01*
%TO.C,K6*%
X164535838Y-73415000D02*
X162809000Y-73415000D01*
X172080000Y-71510000D02*
X167000000Y-71510000D01*
X172080000Y-70494000D02*
X172080000Y-71510000D01*
X172080000Y-67065000D02*
X172080000Y-67446000D01*
X160650000Y-69605000D02*
X160650000Y-69986000D01*
X163190000Y-67065000D02*
X172080000Y-67065000D01*
X160650000Y-73034000D02*
X160650000Y-73415000D01*
X161031000Y-73415000D02*
X160650000Y-73415000D01*
X163190000Y-67065000D02*
G75*
G03*
X160650000Y-69605000I1J-2540001D01*
G01*
X167000000Y-71509999D02*
G75*
G03*
X164535838Y-73433960I0J-2540000D01*
G01*
%TO.C,K7*%
X153080000Y-54015000D02*
X153080000Y-54396000D01*
X141650000Y-56555000D02*
X141650000Y-56936000D01*
X153080000Y-58460000D02*
X148000000Y-58460000D01*
X144190000Y-54015000D02*
X153080000Y-54015000D01*
X142031000Y-60365000D02*
X141650000Y-60365000D01*
X141650000Y-59984000D02*
X141650000Y-60365000D01*
X145535838Y-60365000D02*
X143809000Y-60365000D01*
X153080000Y-57444000D02*
X153080000Y-58460000D01*
X144190000Y-54015000D02*
G75*
G03*
X141650000Y-56555000I1J-2540001D01*
G01*
X148000000Y-58459999D02*
G75*
G03*
X145535838Y-60383960I0J-2540000D01*
G01*
%TO.C,K8*%
X172080000Y-51444000D02*
X172080000Y-52460000D01*
X163190000Y-48015000D02*
X172080000Y-48015000D01*
X172080000Y-52460000D02*
X167000000Y-52460000D01*
X160650000Y-50555000D02*
X160650000Y-50936000D01*
X172080000Y-48015000D02*
X172080000Y-48396000D01*
X161031000Y-54365000D02*
X160650000Y-54365000D01*
X160650000Y-53984000D02*
X160650000Y-54365000D01*
X164535838Y-54365000D02*
X162809000Y-54365000D01*
X163190000Y-48015000D02*
G75*
G03*
X160650000Y-50555000I1J-2540001D01*
G01*
X167000000Y-52459999D02*
G75*
G03*
X164535838Y-54383960I0J-2540000D01*
G01*
%TO.C,K9*%
X202535838Y-73415000D02*
X200809000Y-73415000D01*
X210080000Y-71510000D02*
X205000000Y-71510000D01*
X201190000Y-67065000D02*
X210080000Y-67065000D01*
X210080000Y-67065000D02*
X210080000Y-67446000D01*
X199031000Y-73415000D02*
X198650000Y-73415000D01*
X198650000Y-69605000D02*
X198650000Y-69986000D01*
X210080000Y-70494000D02*
X210080000Y-71510000D01*
X198650000Y-73034000D02*
X198650000Y-73415000D01*
X205000000Y-71509999D02*
G75*
G03*
X202535838Y-73433960I0J-2540000D01*
G01*
X201190000Y-67065000D02*
G75*
G03*
X198650000Y-69605000I1J-2540001D01*
G01*
%TO.C,K10*%
X199031000Y-54365000D02*
X198650000Y-54365000D01*
X201190000Y-48015000D02*
X210080000Y-48015000D01*
X210080000Y-51444000D02*
X210080000Y-52460000D01*
X210080000Y-48015000D02*
X210080000Y-48396000D01*
X198650000Y-53984000D02*
X198650000Y-54365000D01*
X198650000Y-50555000D02*
X198650000Y-50936000D01*
X202535838Y-54365000D02*
X200809000Y-54365000D01*
X210080000Y-52460000D02*
X205000000Y-52460000D01*
X205000000Y-52459999D02*
G75*
G03*
X202535838Y-54383960I0J-2540000D01*
G01*
X201190000Y-48015000D02*
G75*
G03*
X198650000Y-50555000I1J-2540001D01*
G01*
%TO.C,K11*%
X179650000Y-73034000D02*
X179650000Y-73415000D01*
X191080000Y-67065000D02*
X191080000Y-67446000D01*
X191080000Y-71510000D02*
X186000000Y-71510000D01*
X182190000Y-67065000D02*
X191080000Y-67065000D01*
X183535838Y-73415000D02*
X181809000Y-73415000D01*
X191080000Y-70494000D02*
X191080000Y-71510000D01*
X179650000Y-69605000D02*
X179650000Y-69986000D01*
X180031000Y-73415000D02*
X179650000Y-73415000D01*
X182190000Y-67065000D02*
G75*
G03*
X179650000Y-69605000I1J-2540001D01*
G01*
X186000000Y-71509999D02*
G75*
G03*
X183535838Y-73433960I0J-2540000D01*
G01*
%TO.C,K12*%
X182190000Y-48015000D02*
X191080000Y-48015000D01*
X191080000Y-52460000D02*
X186000000Y-52460000D01*
X179650000Y-53984000D02*
X179650000Y-54365000D01*
X179650000Y-50555000D02*
X179650000Y-50936000D01*
X191080000Y-48015000D02*
X191080000Y-48396000D01*
X183535838Y-54365000D02*
X181809000Y-54365000D01*
X191080000Y-51444000D02*
X191080000Y-52460000D01*
X180031000Y-54365000D02*
X179650000Y-54365000D01*
X186000000Y-52459999D02*
G75*
G03*
X183535838Y-54383960I0J-2540000D01*
G01*
X182190000Y-48015000D02*
G75*
G03*
X179650000Y-50555000I1J-2540001D01*
G01*
D11*
%TO.C,RZ1*%
X133858000Y-63754000D02*
X115858000Y-63754000D01*
X115858000Y-63754000D02*
X115858000Y-40254000D01*
X133858000Y-40254000D02*
X133858000Y-63754000D01*
X115858000Y-40254000D02*
X133858000Y-40254000D01*
%TD*%
M02*
