%TF.GenerationSoftware,KiCad,Pcbnew,(6.0.1)*%
%TF.CreationDate,2023-06-03T01:29:09+02:00*%
%TF.ProjectId,cock,636f636b-2e6b-4696-9361-645f70636258,rev?*%
%TF.SameCoordinates,Original*%
%TF.FileFunction,Soldermask,Bot*%
%TF.FilePolarity,Negative*%
%FSLAX46Y46*%
G04 Gerber Fmt 4.6, Leading zero omitted, Abs format (unit mm)*
G04 Created by KiCad (PCBNEW (6.0.1)) date 2023-06-03 01:29:09*
%MOMM*%
%LPD*%
G01*
G04 APERTURE LIST*
G04 Aperture macros list*
%AMRotRect*
0 Rectangle, with rotation*
0 The origin of the aperture is its center*
0 $1 length*
0 $2 width*
0 $3 Rotation angle, in degrees counterclockwise*
0 Add horizontal line*
21,1,$1,$2,0,0,$3*%
G04 Aperture macros list end*
%ADD10C,3.000000*%
%ADD11C,1.701800*%
%ADD12C,3.987800*%
%ADD13R,2.550000X2.500000*%
%ADD14RotRect,2.550000X2.500000X15.000000*%
%ADD15C,2.200000*%
%ADD16R,2.600000X1.600000*%
%ADD17R,1.600000X2.600000*%
G04 APERTURE END LIST*
D10*
%TO.C,K5*%
X61190000Y-74460000D03*
D11*
X70080000Y-77000000D03*
X59920000Y-77000000D03*
D12*
X65000000Y-77000000D03*
D10*
X67540000Y-71920000D03*
D13*
X71290000Y-71920000D03*
X57440000Y-74460000D03*
%TD*%
D12*
%TO.C,K6*%
X84000000Y-71050000D03*
D11*
X89080000Y-71050000D03*
X78920000Y-71050000D03*
D10*
X86540000Y-65970000D03*
X80190000Y-68510000D03*
D13*
X90290000Y-65970000D03*
X76440000Y-68510000D03*
%TD*%
D10*
%TO.C,K7*%
X105540000Y-65970000D03*
D12*
X103000000Y-71050000D03*
D11*
X97920000Y-71050000D03*
X108080000Y-71050000D03*
D10*
X99190000Y-68510000D03*
D13*
X109290000Y-65970000D03*
X95440000Y-68510000D03*
%TD*%
D11*
%TO.C,K8*%
X116920000Y-71050000D03*
D12*
X122000000Y-71050000D03*
D10*
X124540000Y-65970000D03*
X118190000Y-68510000D03*
D11*
X127080000Y-71050000D03*
D13*
X128290000Y-65970000D03*
X114440000Y-68510000D03*
%TD*%
D10*
%TO.C,K9*%
X124540000Y-46920000D03*
D11*
X116920000Y-52000000D03*
D10*
X118190000Y-49460000D03*
D11*
X127080000Y-52000000D03*
D12*
X122000000Y-52000000D03*
D13*
X128290000Y-46920000D03*
X114440000Y-49460000D03*
%TD*%
D11*
%TO.C,K10*%
X97920000Y-52000000D03*
D10*
X99190000Y-49460000D03*
D11*
X108080000Y-52000000D03*
D12*
X103000000Y-52000000D03*
D10*
X105540000Y-46920000D03*
D13*
X109290000Y-46920000D03*
X95440000Y-49460000D03*
%TD*%
D11*
%TO.C,K11*%
X78920000Y-52000000D03*
D10*
X80190000Y-49460000D03*
X86540000Y-46920000D03*
D12*
X84000000Y-52000000D03*
D11*
X89080000Y-52000000D03*
D13*
X90290000Y-46920000D03*
X76440000Y-49460000D03*
%TD*%
D11*
%TO.C,K12*%
X59920000Y-58000000D03*
D12*
X65000000Y-58000000D03*
D11*
X70080000Y-58000000D03*
D10*
X67540000Y-52920000D03*
X61190000Y-55460000D03*
D13*
X71290000Y-52920000D03*
X57440000Y-55460000D03*
%TD*%
D11*
%TO.C,K2*%
X163318097Y-78429801D03*
D10*
X163887422Y-75647649D03*
D11*
X173131903Y-75800199D03*
D12*
X168225000Y-77115000D03*
D10*
X169363651Y-71550696D03*
D14*
X172985873Y-70580125D03*
X160265200Y-76618220D03*
%TD*%
D12*
%TO.C,K4*%
X205975000Y-66875000D03*
D11*
X210881903Y-65560199D03*
X201068097Y-68189801D03*
D10*
X207113651Y-61310696D03*
X201637422Y-65407649D03*
D14*
X210735873Y-60340125D03*
X198015200Y-66378220D03*
%TD*%
D15*
%TO.C,REF\u002A\u002A*%
X214000000Y-45000000D03*
%TD*%
D10*
%TO.C,K1*%
X177637422Y-51407649D03*
D12*
X181975000Y-52875000D03*
D10*
X183113651Y-47310696D03*
D11*
X186881903Y-51560199D03*
X177068097Y-54189801D03*
D14*
X186735873Y-46340125D03*
X174015200Y-52378220D03*
%TD*%
D15*
%TO.C,REF\u002A\u002A*%
X56000000Y-45000000D03*
%TD*%
%TO.C,REF\u002A\u002A*%
X56000000Y-88000000D03*
%TD*%
D11*
%TO.C,K3*%
X192011903Y-70680199D03*
D12*
X187105000Y-71995000D03*
D10*
X182767422Y-70527649D03*
X188243651Y-66430696D03*
D11*
X182198097Y-73309801D03*
D14*
X191865873Y-65460125D03*
X179145200Y-71498220D03*
%TD*%
D15*
%TO.C,REF\u002A\u002A*%
X214000000Y-88000000D03*
%TD*%
D16*
%TO.C,RZ1*%
X138081000Y-41802000D03*
X138081000Y-44342000D03*
X138081000Y-46882000D03*
X138081000Y-49422000D03*
X138081000Y-51962000D03*
X138081000Y-54502000D03*
X138081000Y-57042000D03*
X138081000Y-59582000D03*
X138081000Y-62122000D03*
D17*
X140621000Y-62332000D03*
X143161000Y-62332000D03*
X145701000Y-62332000D03*
X148241000Y-62332000D03*
X150781000Y-62332000D03*
D16*
X153321000Y-62122000D03*
X153321000Y-59582000D03*
X153321000Y-57042000D03*
X153321000Y-54502000D03*
X153321000Y-51962000D03*
X153321000Y-49422000D03*
X153321000Y-46882000D03*
X153321000Y-41802000D03*
X153321000Y-44342000D03*
%TD*%
M02*
