M48
; DRILL file {KiCad (6.0.1)} date Sat Jun  3 01:28:22 2023
; FORMAT={-:-/ absolute / inch / decimal}
; #@! TF.CreationDate,2023-06-03T01:28:22+02:00
; #@! TF.GenerationSoftware,Kicad,Pcbnew,(6.0.1)
; #@! TF.FileFunction,NonPlated,1,2,NPTH
FMAT,2
INCH
; #@! TA.AperFunction,NonPlated,NPTH,ComponentDrill
T1C0.0670
; #@! TA.AperFunction,NonPlated,NPTH,ComponentDrill
T2C0.0866
; #@! TA.AperFunction,NonPlated,NPTH,ComponentDrill
T3C0.1181
; #@! TA.AperFunction,NonPlated,NPTH,ComponentDrill
T4C0.1570
%
G90
G05
T1
X2.3591Y-2.2835
X2.3591Y-3.0315
X2.7591Y-2.2835
X2.7591Y-3.0315
X3.1071Y-2.0472
X3.1071Y-2.7972
X3.5071Y-2.0472
X3.5071Y-2.7972
X3.8551Y-2.0472
X3.8551Y-2.7972
X4.2551Y-2.0472
X4.2551Y-2.7972
X4.6031Y-2.0472
X4.6031Y-2.7972
X5.0031Y-2.0472
X5.0031Y-2.7972
X6.4298Y-3.0878
X6.8162Y-2.9843
X6.9712Y-2.1335
X7.1732Y-2.8862
X7.3576Y-2.0299
X7.5595Y-2.7827
X7.9161Y-2.6846
X8.3024Y-2.5811
T2
X2.2047Y-1.7717
X2.2047Y-3.4646
X8.4252Y-1.7717
X8.4252Y-3.4646
T3
X2.4091Y-2.1835
X2.4091Y-2.9315
X2.6591Y-2.0835
X2.6591Y-2.8315
X3.1571Y-1.9472
X3.1571Y-2.6972
X3.4071Y-1.8472
X3.4071Y-2.5972
X3.9051Y-1.9472
X3.9051Y-2.6972
X4.1551Y-1.8472
X4.1551Y-2.5972
X4.6531Y-1.9472
X4.6531Y-2.6972
X4.9031Y-1.8472
X4.9031Y-2.5972
X6.4523Y-2.9783
X6.6679Y-2.817
X6.9936Y-2.0239
X7.1956Y-2.7767
X7.2092Y-1.8626
X7.4112Y-2.6154
X7.9385Y-2.5751
X8.1541Y-2.4138
T4
X2.5591Y-2.2835
X2.5591Y-3.0315
X3.3071Y-2.0472
X3.3071Y-2.7972
X4.0551Y-2.0472
X4.0551Y-2.7972
X4.8031Y-2.0472
X4.8031Y-2.7972
X6.623Y-3.036
X7.1644Y-2.0817
X7.3663Y-2.8344
X8.1093Y-2.6329
T0
M30
