%TF.GenerationSoftware,KiCad,Pcbnew,(6.0.1)*%
%TF.CreationDate,2023-06-03T01:29:09+02:00*%
%TF.ProjectId,cock,636f636b-2e6b-4696-9361-645f70636258,rev?*%
%TF.SameCoordinates,Original*%
%TF.FileFunction,Legend,Bot*%
%TF.FilePolarity,Positive*%
%FSLAX46Y46*%
G04 Gerber Fmt 4.6, Leading zero omitted, Abs format (unit mm)*
G04 Created by KiCad (PCBNEW (6.0.1)) date 2023-06-03 01:29:09*
%MOMM*%
%LPD*%
G01*
G04 APERTURE LIST*
%ADD10C,0.150000*%
%ADD11C,0.120000*%
G04 APERTURE END LIST*
D10*
%TO.C,K5*%
X65738095Y-69197380D02*
X65738095Y-68197380D01*
X65166666Y-69197380D02*
X65595238Y-68625952D01*
X65166666Y-68197380D02*
X65738095Y-68768809D01*
X64261904Y-68197380D02*
X64738095Y-68197380D01*
X64785714Y-68673571D01*
X64738095Y-68625952D01*
X64642857Y-68578333D01*
X64404761Y-68578333D01*
X64309523Y-68625952D01*
X64261904Y-68673571D01*
X64214285Y-68768809D01*
X64214285Y-69006904D01*
X64261904Y-69102142D01*
X64309523Y-69149761D01*
X64404761Y-69197380D01*
X64642857Y-69197380D01*
X64738095Y-69149761D01*
X64785714Y-69102142D01*
%TO.C,K6*%
X84738095Y-63247380D02*
X84738095Y-62247380D01*
X84166666Y-63247380D02*
X84595238Y-62675952D01*
X84166666Y-62247380D02*
X84738095Y-62818809D01*
X83309523Y-62247380D02*
X83500000Y-62247380D01*
X83595238Y-62295000D01*
X83642857Y-62342619D01*
X83738095Y-62485476D01*
X83785714Y-62675952D01*
X83785714Y-63056904D01*
X83738095Y-63152142D01*
X83690476Y-63199761D01*
X83595238Y-63247380D01*
X83404761Y-63247380D01*
X83309523Y-63199761D01*
X83261904Y-63152142D01*
X83214285Y-63056904D01*
X83214285Y-62818809D01*
X83261904Y-62723571D01*
X83309523Y-62675952D01*
X83404761Y-62628333D01*
X83595238Y-62628333D01*
X83690476Y-62675952D01*
X83738095Y-62723571D01*
X83785714Y-62818809D01*
%TO.C,K7*%
X103738095Y-63247380D02*
X103738095Y-62247380D01*
X103166666Y-63247380D02*
X103595238Y-62675952D01*
X103166666Y-62247380D02*
X103738095Y-62818809D01*
X102833333Y-62247380D02*
X102166666Y-62247380D01*
X102595238Y-63247380D01*
%TO.C,K8*%
X122738095Y-63247380D02*
X122738095Y-62247380D01*
X122166666Y-63247380D02*
X122595238Y-62675952D01*
X122166666Y-62247380D02*
X122738095Y-62818809D01*
X121595238Y-62675952D02*
X121690476Y-62628333D01*
X121738095Y-62580714D01*
X121785714Y-62485476D01*
X121785714Y-62437857D01*
X121738095Y-62342619D01*
X121690476Y-62295000D01*
X121595238Y-62247380D01*
X121404761Y-62247380D01*
X121309523Y-62295000D01*
X121261904Y-62342619D01*
X121214285Y-62437857D01*
X121214285Y-62485476D01*
X121261904Y-62580714D01*
X121309523Y-62628333D01*
X121404761Y-62675952D01*
X121595238Y-62675952D01*
X121690476Y-62723571D01*
X121738095Y-62771190D01*
X121785714Y-62866428D01*
X121785714Y-63056904D01*
X121738095Y-63152142D01*
X121690476Y-63199761D01*
X121595238Y-63247380D01*
X121404761Y-63247380D01*
X121309523Y-63199761D01*
X121261904Y-63152142D01*
X121214285Y-63056904D01*
X121214285Y-62866428D01*
X121261904Y-62771190D01*
X121309523Y-62723571D01*
X121404761Y-62675952D01*
%TO.C,K9*%
X122738095Y-44197380D02*
X122738095Y-43197380D01*
X122166666Y-44197380D02*
X122595238Y-43625952D01*
X122166666Y-43197380D02*
X122738095Y-43768809D01*
X121690476Y-44197380D02*
X121500000Y-44197380D01*
X121404761Y-44149761D01*
X121357142Y-44102142D01*
X121261904Y-43959285D01*
X121214285Y-43768809D01*
X121214285Y-43387857D01*
X121261904Y-43292619D01*
X121309523Y-43245000D01*
X121404761Y-43197380D01*
X121595238Y-43197380D01*
X121690476Y-43245000D01*
X121738095Y-43292619D01*
X121785714Y-43387857D01*
X121785714Y-43625952D01*
X121738095Y-43721190D01*
X121690476Y-43768809D01*
X121595238Y-43816428D01*
X121404761Y-43816428D01*
X121309523Y-43768809D01*
X121261904Y-43721190D01*
X121214285Y-43625952D01*
%TO.C,K10*%
X104214285Y-44197380D02*
X104214285Y-43197380D01*
X103642857Y-44197380D02*
X104071428Y-43625952D01*
X103642857Y-43197380D02*
X104214285Y-43768809D01*
X102690476Y-44197380D02*
X103261904Y-44197380D01*
X102976190Y-44197380D02*
X102976190Y-43197380D01*
X103071428Y-43340238D01*
X103166666Y-43435476D01*
X103261904Y-43483095D01*
X102071428Y-43197380D02*
X101976190Y-43197380D01*
X101880952Y-43245000D01*
X101833333Y-43292619D01*
X101785714Y-43387857D01*
X101738095Y-43578333D01*
X101738095Y-43816428D01*
X101785714Y-44006904D01*
X101833333Y-44102142D01*
X101880952Y-44149761D01*
X101976190Y-44197380D01*
X102071428Y-44197380D01*
X102166666Y-44149761D01*
X102214285Y-44102142D01*
X102261904Y-44006904D01*
X102309523Y-43816428D01*
X102309523Y-43578333D01*
X102261904Y-43387857D01*
X102214285Y-43292619D01*
X102166666Y-43245000D01*
X102071428Y-43197380D01*
%TO.C,K11*%
X85214285Y-44197380D02*
X85214285Y-43197380D01*
X84642857Y-44197380D02*
X85071428Y-43625952D01*
X84642857Y-43197380D02*
X85214285Y-43768809D01*
X83690476Y-44197380D02*
X84261904Y-44197380D01*
X83976190Y-44197380D02*
X83976190Y-43197380D01*
X84071428Y-43340238D01*
X84166666Y-43435476D01*
X84261904Y-43483095D01*
X82738095Y-44197380D02*
X83309523Y-44197380D01*
X83023809Y-44197380D02*
X83023809Y-43197380D01*
X83119047Y-43340238D01*
X83214285Y-43435476D01*
X83309523Y-43483095D01*
%TO.C,K12*%
X66214285Y-50197380D02*
X66214285Y-49197380D01*
X65642857Y-50197380D02*
X66071428Y-49625952D01*
X65642857Y-49197380D02*
X66214285Y-49768809D01*
X64690476Y-50197380D02*
X65261904Y-50197380D01*
X64976190Y-50197380D02*
X64976190Y-49197380D01*
X65071428Y-49340238D01*
X65166666Y-49435476D01*
X65261904Y-49483095D01*
X64309523Y-49292619D02*
X64261904Y-49245000D01*
X64166666Y-49197380D01*
X63928571Y-49197380D01*
X63833333Y-49245000D01*
X63785714Y-49292619D01*
X63738095Y-49387857D01*
X63738095Y-49483095D01*
X63785714Y-49625952D01*
X64357142Y-50197380D01*
X63738095Y-50197380D01*
%TO.C,K2*%
X166918479Y-69387215D02*
X166659660Y-68421289D01*
X166366521Y-69535111D02*
X166632593Y-68872231D01*
X166107702Y-68569186D02*
X166807556Y-68973247D01*
X165764380Y-68759776D02*
X165706058Y-68726105D01*
X165601741Y-68704757D01*
X165371758Y-68766381D01*
X165292090Y-68837027D01*
X165258418Y-68895348D01*
X165237071Y-68999666D01*
X165261721Y-69091659D01*
X165344691Y-69217323D01*
X166044546Y-69621384D01*
X165446592Y-69781606D01*
%TO.C,K4*%
X204668479Y-59147215D02*
X204409660Y-58181289D01*
X204116521Y-59295111D02*
X204382593Y-58632231D01*
X203857702Y-58329186D02*
X204557556Y-58733247D01*
X203116038Y-58873006D02*
X203288585Y-59516956D01*
X203247423Y-58443410D02*
X203662276Y-59071734D01*
X203064322Y-59231955D01*
%TO.C,K1*%
X180668479Y-45147215D02*
X180409660Y-44181289D01*
X180116521Y-45295111D02*
X180382593Y-44632231D01*
X179857702Y-44329186D02*
X180557556Y-44733247D01*
X179196592Y-45541606D02*
X179748549Y-45393709D01*
X179472570Y-45467657D02*
X179213751Y-44501732D01*
X179342718Y-44615072D01*
X179459361Y-44682415D01*
X179563678Y-44703762D01*
%TO.C,K3*%
X185798479Y-64267215D02*
X185539660Y-63301289D01*
X185246521Y-64415111D02*
X185512593Y-63752231D01*
X184987702Y-63449186D02*
X185687556Y-63853247D01*
X184665727Y-63535459D02*
X184067773Y-63695680D01*
X184488346Y-63977379D01*
X184350356Y-64014353D01*
X184270688Y-64084999D01*
X184237016Y-64143320D01*
X184215669Y-64247638D01*
X184277293Y-64477620D01*
X184347939Y-64557288D01*
X184406260Y-64590960D01*
X184510577Y-64612307D01*
X184786556Y-64538359D01*
X184866224Y-64467713D01*
X184899896Y-64409392D01*
%TO.C,RZ1*%
X146343857Y-49664380D02*
X146677190Y-49188190D01*
X146915285Y-49664380D02*
X146915285Y-48664380D01*
X146534333Y-48664380D01*
X146439095Y-48712000D01*
X146391476Y-48759619D01*
X146343857Y-48854857D01*
X146343857Y-48997714D01*
X146391476Y-49092952D01*
X146439095Y-49140571D01*
X146534333Y-49188190D01*
X146915285Y-49188190D01*
X146010523Y-48664380D02*
X145343857Y-48664380D01*
X146010523Y-49664380D01*
X145343857Y-49664380D01*
X144439095Y-49664380D02*
X145010523Y-49664380D01*
X144724809Y-49664380D02*
X144724809Y-48664380D01*
X144820047Y-48807238D01*
X144915285Y-48902476D01*
X145010523Y-48950095D01*
%TO.C,K5*%
X70080000Y-73444000D02*
X70080000Y-74460000D01*
X58650000Y-72555000D02*
X58650000Y-72936000D01*
X61190000Y-70015000D02*
X70080000Y-70015000D01*
X58650000Y-75984000D02*
X58650000Y-76365000D01*
X62535838Y-76365000D02*
X60809000Y-76365000D01*
X59031000Y-76365000D02*
X58650000Y-76365000D01*
X70080000Y-70015000D02*
X70080000Y-70396000D01*
X70080000Y-74460000D02*
X65000000Y-74460000D01*
X61190000Y-70015000D02*
G75*
G03*
X58650000Y-72555000I1J-2540001D01*
G01*
X65000000Y-74459999D02*
G75*
G03*
X62535838Y-76383960I0J-2540000D01*
G01*
%TO.C,K6*%
X81535838Y-70415000D02*
X79809000Y-70415000D01*
X89080000Y-68510000D02*
X84000000Y-68510000D01*
X89080000Y-67494000D02*
X89080000Y-68510000D01*
X89080000Y-64065000D02*
X89080000Y-64446000D01*
X77650000Y-66605000D02*
X77650000Y-66986000D01*
X80190000Y-64065000D02*
X89080000Y-64065000D01*
X77650000Y-70034000D02*
X77650000Y-70415000D01*
X78031000Y-70415000D02*
X77650000Y-70415000D01*
X80190000Y-64065000D02*
G75*
G03*
X77650000Y-66605000I1J-2540001D01*
G01*
X84000000Y-68509999D02*
G75*
G03*
X81535838Y-70433960I0J-2540000D01*
G01*
%TO.C,K7*%
X108080000Y-64065000D02*
X108080000Y-64446000D01*
X96650000Y-66605000D02*
X96650000Y-66986000D01*
X108080000Y-68510000D02*
X103000000Y-68510000D01*
X99190000Y-64065000D02*
X108080000Y-64065000D01*
X97031000Y-70415000D02*
X96650000Y-70415000D01*
X96650000Y-70034000D02*
X96650000Y-70415000D01*
X100535838Y-70415000D02*
X98809000Y-70415000D01*
X108080000Y-67494000D02*
X108080000Y-68510000D01*
X99190000Y-64065000D02*
G75*
G03*
X96650000Y-66605000I1J-2540001D01*
G01*
X103000000Y-68509999D02*
G75*
G03*
X100535838Y-70433960I0J-2540000D01*
G01*
%TO.C,K8*%
X127080000Y-67494000D02*
X127080000Y-68510000D01*
X118190000Y-64065000D02*
X127080000Y-64065000D01*
X127080000Y-68510000D02*
X122000000Y-68510000D01*
X115650000Y-66605000D02*
X115650000Y-66986000D01*
X127080000Y-64065000D02*
X127080000Y-64446000D01*
X116031000Y-70415000D02*
X115650000Y-70415000D01*
X115650000Y-70034000D02*
X115650000Y-70415000D01*
X119535838Y-70415000D02*
X117809000Y-70415000D01*
X118190000Y-64065000D02*
G75*
G03*
X115650000Y-66605000I1J-2540001D01*
G01*
X122000000Y-68509999D02*
G75*
G03*
X119535838Y-70433960I0J-2540000D01*
G01*
%TO.C,K9*%
X119535838Y-51365000D02*
X117809000Y-51365000D01*
X127080000Y-49460000D02*
X122000000Y-49460000D01*
X118190000Y-45015000D02*
X127080000Y-45015000D01*
X127080000Y-45015000D02*
X127080000Y-45396000D01*
X116031000Y-51365000D02*
X115650000Y-51365000D01*
X115650000Y-47555000D02*
X115650000Y-47936000D01*
X127080000Y-48444000D02*
X127080000Y-49460000D01*
X115650000Y-50984000D02*
X115650000Y-51365000D01*
X122000000Y-49459999D02*
G75*
G03*
X119535838Y-51383960I0J-2540000D01*
G01*
X118190000Y-45015000D02*
G75*
G03*
X115650000Y-47555000I1J-2540001D01*
G01*
%TO.C,K10*%
X97031000Y-51365000D02*
X96650000Y-51365000D01*
X99190000Y-45015000D02*
X108080000Y-45015000D01*
X108080000Y-48444000D02*
X108080000Y-49460000D01*
X108080000Y-45015000D02*
X108080000Y-45396000D01*
X96650000Y-50984000D02*
X96650000Y-51365000D01*
X96650000Y-47555000D02*
X96650000Y-47936000D01*
X100535838Y-51365000D02*
X98809000Y-51365000D01*
X108080000Y-49460000D02*
X103000000Y-49460000D01*
X103000000Y-49459999D02*
G75*
G03*
X100535838Y-51383960I0J-2540000D01*
G01*
X99190000Y-45015000D02*
G75*
G03*
X96650000Y-47555000I1J-2540001D01*
G01*
%TO.C,K11*%
X77650000Y-50984000D02*
X77650000Y-51365000D01*
X89080000Y-45015000D02*
X89080000Y-45396000D01*
X89080000Y-49460000D02*
X84000000Y-49460000D01*
X80190000Y-45015000D02*
X89080000Y-45015000D01*
X81535838Y-51365000D02*
X79809000Y-51365000D01*
X89080000Y-48444000D02*
X89080000Y-49460000D01*
X77650000Y-47555000D02*
X77650000Y-47936000D01*
X78031000Y-51365000D02*
X77650000Y-51365000D01*
X80190000Y-45015000D02*
G75*
G03*
X77650000Y-47555000I1J-2540001D01*
G01*
X84000000Y-49459999D02*
G75*
G03*
X81535838Y-51383960I0J-2540000D01*
G01*
%TO.C,K12*%
X61190000Y-51015000D02*
X70080000Y-51015000D01*
X70080000Y-55460000D02*
X65000000Y-55460000D01*
X58650000Y-56984000D02*
X58650000Y-57365000D01*
X58650000Y-53555000D02*
X58650000Y-53936000D01*
X70080000Y-51015000D02*
X70080000Y-51396000D01*
X62535838Y-57365000D02*
X60809000Y-57365000D01*
X70080000Y-54444000D02*
X70080000Y-55460000D01*
X59031000Y-57365000D02*
X58650000Y-57365000D01*
X65000000Y-55459999D02*
G75*
G03*
X62535838Y-57383960I0J-2540000D01*
G01*
X61190000Y-51015000D02*
G75*
G03*
X58650000Y-53555000I1J-2540001D01*
G01*
%TO.C,K2*%
X172474503Y-73346748D02*
X167567600Y-74661548D01*
X162295039Y-78046528D02*
X161927021Y-78145138D01*
X161828411Y-77777120D02*
X161927021Y-78145138D01*
X165680452Y-77139409D02*
X164012455Y-77586348D01*
X172211543Y-72365367D02*
X172474503Y-73346748D01*
X162736972Y-71354109D02*
X171324052Y-69053207D01*
X160940920Y-74464961D02*
X161039530Y-74832978D01*
X171324052Y-69053207D02*
X171422662Y-69421225D01*
X167567600Y-74661547D02*
G75*
G03*
X165685359Y-77157723I657400J-2453452D01*
G01*
X162736972Y-71354109D02*
G75*
G03*
X160940920Y-74464961I657401J-2453452D01*
G01*
%TO.C,K4*%
X210224503Y-63106748D02*
X205317600Y-64421548D01*
X199578411Y-67537120D02*
X199677021Y-67905138D01*
X198690920Y-64224961D02*
X198789530Y-64592978D01*
X200045039Y-67806528D02*
X199677021Y-67905138D01*
X203430452Y-66899409D02*
X201762455Y-67346348D01*
X209074052Y-58813207D02*
X209172662Y-59181225D01*
X209961543Y-62125367D02*
X210224503Y-63106748D01*
X200486972Y-61114109D02*
X209074052Y-58813207D01*
X200486972Y-61114109D02*
G75*
G03*
X198690920Y-64224961I657401J-2453452D01*
G01*
X205317600Y-64421547D02*
G75*
G03*
X203435359Y-66917723I657400J-2453452D01*
G01*
%TO.C,K1*%
X185961543Y-48125367D02*
X186224503Y-49106748D01*
X176045039Y-53806528D02*
X175677021Y-53905138D01*
X179430452Y-52899409D02*
X177762455Y-53346348D01*
X185074052Y-44813207D02*
X185172662Y-45181225D01*
X174690920Y-50224961D02*
X174789530Y-50592978D01*
X176486972Y-47114109D02*
X185074052Y-44813207D01*
X175578411Y-53537120D02*
X175677021Y-53905138D01*
X186224503Y-49106748D02*
X181317600Y-50421548D01*
X176486972Y-47114109D02*
G75*
G03*
X174690920Y-50224961I657401J-2453452D01*
G01*
X181317600Y-50421547D02*
G75*
G03*
X179435359Y-52917723I657400J-2453452D01*
G01*
%TO.C,K3*%
X190204052Y-63933207D02*
X190302662Y-64301225D01*
X181175039Y-72926528D02*
X180807021Y-73025138D01*
X181616972Y-66234109D02*
X190204052Y-63933207D01*
X191091543Y-67245367D02*
X191354503Y-68226748D01*
X180708411Y-72657120D02*
X180807021Y-73025138D01*
X191354503Y-68226748D02*
X186447600Y-69541548D01*
X179820920Y-69344961D02*
X179919530Y-69712978D01*
X184560452Y-72019409D02*
X182892455Y-72466348D01*
X186447600Y-69541547D02*
G75*
G03*
X184565359Y-72037723I657400J-2453452D01*
G01*
X181616972Y-66234109D02*
G75*
G03*
X179820920Y-69344961I657401J-2453452D01*
G01*
D11*
%TO.C,RZ1*%
X136701000Y-40212000D02*
X154701000Y-40212000D01*
X154701000Y-40212000D02*
X154701000Y-63712000D01*
X136701000Y-63712000D02*
X136701000Y-40212000D01*
X154701000Y-63712000D02*
X136701000Y-63712000D01*
%TD*%
M02*
