%TF.GenerationSoftware,KiCad,Pcbnew,(6.0.1)*%
%TF.CreationDate,2023-06-03T01:29:09+02:00*%
%TF.ProjectId,cock,636f636b-2e6b-4696-9361-645f70636258,rev?*%
%TF.SameCoordinates,Original*%
%TF.FileFunction,Legend,Top*%
%TF.FilePolarity,Positive*%
%FSLAX46Y46*%
G04 Gerber Fmt 4.6, Leading zero omitted, Abs format (unit mm)*
G04 Created by KiCad (PCBNEW (6.0.1)) date 2023-06-03 01:29:09*
%MOMM*%
%LPD*%
G01*
G04 APERTURE LIST*
%ADD10C,0.250000*%
%ADD11C,0.150000*%
%ADD12C,0.120000*%
%ADD13C,0.010000*%
G04 APERTURE END LIST*
D10*
X206606488Y-92027380D02*
X206731488Y-91027380D01*
X207112440Y-91027380D01*
X207201726Y-91075000D01*
X207243392Y-91122619D01*
X207279107Y-91217857D01*
X207261250Y-91360714D01*
X207201726Y-91455952D01*
X207148154Y-91503571D01*
X207046964Y-91551190D01*
X206666011Y-91551190D01*
X207606488Y-92027380D02*
X207731488Y-91027380D01*
X208666011Y-91932142D02*
X208612440Y-91979761D01*
X208463630Y-92027380D01*
X208368392Y-92027380D01*
X208231488Y-91979761D01*
X208148154Y-91884523D01*
X208112440Y-91789285D01*
X208088630Y-91598809D01*
X208106488Y-91455952D01*
X208177916Y-91265476D01*
X208237440Y-91170238D01*
X208344583Y-91075000D01*
X208493392Y-91027380D01*
X208588630Y-91027380D01*
X208725535Y-91075000D01*
X208767202Y-91122619D01*
X209398154Y-91027380D02*
X209588630Y-91027380D01*
X209677916Y-91075000D01*
X209761250Y-91170238D01*
X209785059Y-91360714D01*
X209743392Y-91694047D01*
X209671964Y-91884523D01*
X209564821Y-91979761D01*
X209463630Y-92027380D01*
X209273154Y-92027380D01*
X209183869Y-91979761D01*
X209100535Y-91884523D01*
X209076726Y-91694047D01*
X209118392Y-91360714D01*
X209189821Y-91170238D01*
X209296964Y-91075000D01*
X209398154Y-91027380D01*
D11*
%TO.C,SW2*%
X111188666Y-80578761D02*
X111331523Y-80626380D01*
X111569619Y-80626380D01*
X111664857Y-80578761D01*
X111712476Y-80531142D01*
X111760095Y-80435904D01*
X111760095Y-80340666D01*
X111712476Y-80245428D01*
X111664857Y-80197809D01*
X111569619Y-80150190D01*
X111379142Y-80102571D01*
X111283904Y-80054952D01*
X111236285Y-80007333D01*
X111188666Y-79912095D01*
X111188666Y-79816857D01*
X111236285Y-79721619D01*
X111283904Y-79674000D01*
X111379142Y-79626380D01*
X111617238Y-79626380D01*
X111760095Y-79674000D01*
X112093428Y-79626380D02*
X112331523Y-80626380D01*
X112522000Y-79912095D01*
X112712476Y-80626380D01*
X112950571Y-79626380D01*
X113283904Y-79721619D02*
X113331523Y-79674000D01*
X113426761Y-79626380D01*
X113664857Y-79626380D01*
X113760095Y-79674000D01*
X113807714Y-79721619D01*
X113855333Y-79816857D01*
X113855333Y-79912095D01*
X113807714Y-80054952D01*
X113236285Y-80626380D01*
X113855333Y-80626380D01*
%TO.C,SW3*%
X101666666Y-80578761D02*
X101809523Y-80626380D01*
X102047619Y-80626380D01*
X102142857Y-80578761D01*
X102190476Y-80531142D01*
X102238095Y-80435904D01*
X102238095Y-80340666D01*
X102190476Y-80245428D01*
X102142857Y-80197809D01*
X102047619Y-80150190D01*
X101857142Y-80102571D01*
X101761904Y-80054952D01*
X101714285Y-80007333D01*
X101666666Y-79912095D01*
X101666666Y-79816857D01*
X101714285Y-79721619D01*
X101761904Y-79674000D01*
X101857142Y-79626380D01*
X102095238Y-79626380D01*
X102238095Y-79674000D01*
X102571428Y-79626380D02*
X102809523Y-80626380D01*
X103000000Y-79912095D01*
X103190476Y-80626380D01*
X103428571Y-79626380D01*
X103714285Y-79626380D02*
X104333333Y-79626380D01*
X104000000Y-80007333D01*
X104142857Y-80007333D01*
X104238095Y-80054952D01*
X104285714Y-80102571D01*
X104333333Y-80197809D01*
X104333333Y-80435904D01*
X104285714Y-80531142D01*
X104238095Y-80578761D01*
X104142857Y-80626380D01*
X103857142Y-80626380D01*
X103761904Y-80578761D01*
X103714285Y-80531142D01*
%TO.C,SW4*%
X92138666Y-80832761D02*
X92281523Y-80880380D01*
X92519619Y-80880380D01*
X92614857Y-80832761D01*
X92662476Y-80785142D01*
X92710095Y-80689904D01*
X92710095Y-80594666D01*
X92662476Y-80499428D01*
X92614857Y-80451809D01*
X92519619Y-80404190D01*
X92329142Y-80356571D01*
X92233904Y-80308952D01*
X92186285Y-80261333D01*
X92138666Y-80166095D01*
X92138666Y-80070857D01*
X92186285Y-79975619D01*
X92233904Y-79928000D01*
X92329142Y-79880380D01*
X92567238Y-79880380D01*
X92710095Y-79928000D01*
X93043428Y-79880380D02*
X93281523Y-80880380D01*
X93472000Y-80166095D01*
X93662476Y-80880380D01*
X93900571Y-79880380D01*
X94710095Y-80213714D02*
X94710095Y-80880380D01*
X94472000Y-79832761D02*
X94233904Y-80547047D01*
X94852952Y-80547047D01*
%TO.C,SW1*%
X118035666Y-65698761D02*
X118178523Y-65746380D01*
X118416619Y-65746380D01*
X118511857Y-65698761D01*
X118559476Y-65651142D01*
X118607095Y-65555904D01*
X118607095Y-65460666D01*
X118559476Y-65365428D01*
X118511857Y-65317809D01*
X118416619Y-65270190D01*
X118226142Y-65222571D01*
X118130904Y-65174952D01*
X118083285Y-65127333D01*
X118035666Y-65032095D01*
X118035666Y-64936857D01*
X118083285Y-64841619D01*
X118130904Y-64794000D01*
X118226142Y-64746380D01*
X118464238Y-64746380D01*
X118607095Y-64794000D01*
X118940428Y-64746380D02*
X119178523Y-65746380D01*
X119369000Y-65032095D01*
X119559476Y-65746380D01*
X119797571Y-64746380D01*
X120702333Y-65746380D02*
X120130904Y-65746380D01*
X120416619Y-65746380D02*
X120416619Y-64746380D01*
X120321380Y-64889238D01*
X120226142Y-64984476D01*
X120130904Y-65032095D01*
%TO.C,SW5*%
X82486666Y-89154761D02*
X82629523Y-89202380D01*
X82867619Y-89202380D01*
X82962857Y-89154761D01*
X83010476Y-89107142D01*
X83058095Y-89011904D01*
X83058095Y-88916666D01*
X83010476Y-88821428D01*
X82962857Y-88773809D01*
X82867619Y-88726190D01*
X82677142Y-88678571D01*
X82581904Y-88630952D01*
X82534285Y-88583333D01*
X82486666Y-88488095D01*
X82486666Y-88392857D01*
X82534285Y-88297619D01*
X82581904Y-88250000D01*
X82677142Y-88202380D01*
X82915238Y-88202380D01*
X83058095Y-88250000D01*
X83391428Y-88202380D02*
X83629523Y-89202380D01*
X83820000Y-88488095D01*
X84010476Y-89202380D01*
X84248571Y-88202380D01*
X85105714Y-88202380D02*
X84629523Y-88202380D01*
X84581904Y-88678571D01*
X84629523Y-88630952D01*
X84724761Y-88583333D01*
X84962857Y-88583333D01*
X85058095Y-88630952D01*
X85105714Y-88678571D01*
X85153333Y-88773809D01*
X85153333Y-89011904D01*
X85105714Y-89107142D01*
X85058095Y-89154761D01*
X84962857Y-89202380D01*
X84724761Y-89202380D01*
X84629523Y-89154761D01*
X84581904Y-89107142D01*
D12*
%TO.C,SW2*%
X114222000Y-87300000D02*
X113772000Y-87750000D01*
X113772000Y-82250000D02*
X111272000Y-82250000D01*
X109772000Y-86000000D02*
X109772000Y-84000000D01*
X110822000Y-87300000D02*
X111272000Y-87750000D01*
X113772000Y-87750000D02*
X111272000Y-87750000D01*
X114222000Y-82700000D02*
X113772000Y-82250000D01*
X110822000Y-82700000D02*
X111272000Y-82250000D01*
X115272000Y-86000000D02*
X115272000Y-84000000D01*
%TO.C,SW3*%
X101300000Y-87300000D02*
X101750000Y-87750000D01*
X105750000Y-86000000D02*
X105750000Y-84000000D01*
X104700000Y-87300000D02*
X104250000Y-87750000D01*
X104250000Y-82250000D02*
X101750000Y-82250000D01*
X100250000Y-86000000D02*
X100250000Y-84000000D01*
X101300000Y-82700000D02*
X101750000Y-82250000D01*
X104700000Y-82700000D02*
X104250000Y-82250000D01*
X104250000Y-87750000D02*
X101750000Y-87750000D01*
%TO.C,SW4*%
X91772000Y-82700000D02*
X92222000Y-82250000D01*
X91772000Y-87300000D02*
X92222000Y-87750000D01*
X90722000Y-86000000D02*
X90722000Y-84000000D01*
X94722000Y-87750000D02*
X92222000Y-87750000D01*
X95172000Y-87300000D02*
X94722000Y-87750000D01*
X96222000Y-86000000D02*
X96222000Y-84000000D01*
X95172000Y-82700000D02*
X94722000Y-82250000D01*
X94722000Y-82250000D02*
X92222000Y-82250000D01*
D11*
%TO.C,K5*%
X72000000Y-83000000D02*
X72000000Y-84000000D01*
X58000000Y-71000000D02*
X58000000Y-70000000D01*
X58000000Y-84000000D02*
X59000000Y-84000000D01*
X59000000Y-70000000D02*
X58000000Y-70000000D01*
X72000000Y-70000000D02*
X72000000Y-71000000D01*
X58000000Y-84000000D02*
X58000000Y-83000000D01*
X72000000Y-70000000D02*
X71000000Y-70000000D01*
X71000000Y-84000000D02*
X72000000Y-84000000D01*
%TO.C,K6*%
X78000000Y-64050000D02*
X77000000Y-64050000D01*
X77000000Y-78050000D02*
X78000000Y-78050000D01*
X90000000Y-78050000D02*
X91000000Y-78050000D01*
X91000000Y-64050000D02*
X90000000Y-64050000D01*
X91000000Y-77050000D02*
X91000000Y-78050000D01*
X77000000Y-65050000D02*
X77000000Y-64050000D01*
X91000000Y-64050000D02*
X91000000Y-65050000D01*
X77000000Y-78050000D02*
X77000000Y-77050000D01*
%TO.C,K7*%
X96000000Y-78050000D02*
X96000000Y-77050000D01*
X97000000Y-64050000D02*
X96000000Y-64050000D01*
X110000000Y-77050000D02*
X110000000Y-78050000D01*
X96000000Y-65050000D02*
X96000000Y-64050000D01*
X110000000Y-64050000D02*
X110000000Y-65050000D01*
X110000000Y-64050000D02*
X109000000Y-64050000D01*
X109000000Y-78050000D02*
X110000000Y-78050000D01*
X96000000Y-78050000D02*
X97000000Y-78050000D01*
%TO.C,K8*%
X128000000Y-78050000D02*
X129000000Y-78050000D01*
X115000000Y-78050000D02*
X115000000Y-77050000D01*
X115000000Y-78050000D02*
X116000000Y-78050000D01*
X116000000Y-64050000D02*
X115000000Y-64050000D01*
X115000000Y-65050000D02*
X115000000Y-64050000D01*
X129000000Y-77050000D02*
X129000000Y-78050000D01*
X129000000Y-64050000D02*
X129000000Y-65050000D01*
X129000000Y-64050000D02*
X128000000Y-64050000D01*
%TO.C,K9*%
X116000000Y-45000000D02*
X115000000Y-45000000D01*
X129000000Y-45000000D02*
X128000000Y-45000000D01*
X129000000Y-45000000D02*
X129000000Y-46000000D01*
X115000000Y-46000000D02*
X115000000Y-45000000D01*
X129000000Y-58000000D02*
X129000000Y-59000000D01*
X115000000Y-59000000D02*
X116000000Y-59000000D01*
X115000000Y-59000000D02*
X115000000Y-58000000D01*
X128000000Y-59000000D02*
X129000000Y-59000000D01*
%TO.C,K10*%
X110000000Y-58000000D02*
X110000000Y-59000000D01*
X110000000Y-45000000D02*
X109000000Y-45000000D01*
X96000000Y-59000000D02*
X97000000Y-59000000D01*
X109000000Y-59000000D02*
X110000000Y-59000000D01*
X96000000Y-59000000D02*
X96000000Y-58000000D01*
X110000000Y-45000000D02*
X110000000Y-46000000D01*
X96000000Y-46000000D02*
X96000000Y-45000000D01*
X97000000Y-45000000D02*
X96000000Y-45000000D01*
%TO.C,K11*%
X91000000Y-58000000D02*
X91000000Y-59000000D01*
X78000000Y-45000000D02*
X77000000Y-45000000D01*
X77000000Y-59000000D02*
X77000000Y-58000000D01*
X91000000Y-45000000D02*
X90000000Y-45000000D01*
X77000000Y-46000000D02*
X77000000Y-45000000D01*
X90000000Y-59000000D02*
X91000000Y-59000000D01*
X91000000Y-45000000D02*
X91000000Y-46000000D01*
X77000000Y-59000000D02*
X78000000Y-59000000D01*
%TO.C,K12*%
X71000000Y-65000000D02*
X72000000Y-65000000D01*
X72000000Y-51000000D02*
X72000000Y-52000000D01*
X72000000Y-51000000D02*
X71000000Y-51000000D01*
X72000000Y-64000000D02*
X72000000Y-65000000D01*
X58000000Y-65000000D02*
X59000000Y-65000000D01*
X58000000Y-65000000D02*
X58000000Y-64000000D01*
X59000000Y-51000000D02*
X58000000Y-51000000D01*
X58000000Y-52000000D02*
X58000000Y-51000000D01*
%TO.C,K2*%
X176539395Y-81098822D02*
X176798214Y-82064747D01*
X173174747Y-68541786D02*
X173433567Y-69507712D01*
X163275253Y-85688214D02*
X164241178Y-85429395D01*
X159910605Y-73131178D02*
X159651786Y-72165253D01*
X175832288Y-82323567D02*
X176798214Y-82064747D01*
X160617712Y-71906433D02*
X159651786Y-72165253D01*
X163275253Y-85688214D02*
X163016433Y-84722288D01*
X173174747Y-68541786D02*
X172208822Y-68800605D01*
%TO.C,K4*%
X197660605Y-62891178D02*
X197401786Y-61925253D01*
X214289395Y-70858822D02*
X214548214Y-71824747D01*
X210924747Y-58301786D02*
X209958822Y-58560605D01*
X201025253Y-75448214D02*
X201991178Y-75189395D01*
X213582288Y-72083567D02*
X214548214Y-71824747D01*
X210924747Y-58301786D02*
X211183567Y-59267712D01*
X198367712Y-61666433D02*
X197401786Y-61925253D01*
X201025253Y-75448214D02*
X200766433Y-74482288D01*
%TO.C,K1*%
X177025253Y-61448214D02*
X177991178Y-61189395D01*
X186924747Y-44301786D02*
X187183567Y-45267712D01*
X174367712Y-47666433D02*
X173401786Y-47925253D01*
X189582288Y-58083567D02*
X190548214Y-57824747D01*
X173660605Y-48891178D02*
X173401786Y-47925253D01*
X186924747Y-44301786D02*
X185958822Y-44560605D01*
X190289395Y-56858822D02*
X190548214Y-57824747D01*
X177025253Y-61448214D02*
X176766433Y-60482288D01*
D12*
%TO.C,SW1*%
X119170000Y-84000000D02*
X119170000Y-86000000D01*
X120670000Y-82250000D02*
X123170000Y-82250000D01*
X123620000Y-87300000D02*
X123170000Y-87750000D01*
X120220000Y-87300000D02*
X120670000Y-87750000D01*
X120670000Y-87750000D02*
X123170000Y-87750000D01*
X123620000Y-82700000D02*
X123170000Y-82250000D01*
X124670000Y-84000000D02*
X124670000Y-86000000D01*
X120220000Y-82700000D02*
X120670000Y-82250000D01*
D11*
%TO.C,K3*%
X182155253Y-80568214D02*
X181896433Y-79602288D01*
X195419395Y-75978822D02*
X195678214Y-76944747D01*
X179497712Y-66786433D02*
X178531786Y-67045253D01*
X194712288Y-77203567D02*
X195678214Y-76944747D01*
X182155253Y-80568214D02*
X183121178Y-80309395D01*
X192054747Y-63421786D02*
X192313567Y-64387712D01*
X178790605Y-68011178D02*
X178531786Y-67045253D01*
X192054747Y-63421786D02*
X191088822Y-63680605D01*
D12*
%TO.C,SW5*%
X85070000Y-87750000D02*
X82570000Y-87750000D01*
X86570000Y-86000000D02*
X86570000Y-84000000D01*
X85520000Y-82700000D02*
X85070000Y-82250000D01*
X81070000Y-86000000D02*
X81070000Y-84000000D01*
X85520000Y-87300000D02*
X85070000Y-87750000D01*
X82120000Y-82700000D02*
X82570000Y-82250000D01*
X82120000Y-87300000D02*
X82570000Y-87750000D01*
X85070000Y-82250000D02*
X82570000Y-82250000D01*
D13*
%TO.C,*%
X184039378Y-86544415D02*
X185202092Y-86544711D01*
X185202092Y-86544711D02*
X186401615Y-86545170D01*
X186401615Y-86545170D02*
X187634135Y-86545798D01*
X187634135Y-86545798D02*
X188895841Y-86546595D01*
X188895841Y-86546595D02*
X189971966Y-86547396D01*
X189971966Y-86547396D02*
X191554754Y-86548724D01*
X191554754Y-86548724D02*
X193038737Y-86550120D01*
X193038737Y-86550120D02*
X194426711Y-86551596D01*
X194426711Y-86551596D02*
X195721471Y-86553165D01*
X195721471Y-86553165D02*
X196925812Y-86554841D01*
X196925812Y-86554841D02*
X198042530Y-86556637D01*
X198042530Y-86556637D02*
X199074420Y-86558566D01*
X199074420Y-86558566D02*
X200024277Y-86560641D01*
X200024277Y-86560641D02*
X200894897Y-86562874D01*
X200894897Y-86562874D02*
X201689075Y-86565280D01*
X201689075Y-86565280D02*
X202409607Y-86567871D01*
X202409607Y-86567871D02*
X203059287Y-86570659D01*
X203059287Y-86570659D02*
X203640912Y-86573659D01*
X203640912Y-86573659D02*
X204157276Y-86576883D01*
X204157276Y-86576883D02*
X204611175Y-86580344D01*
X204611175Y-86580344D02*
X205005404Y-86584056D01*
X205005404Y-86584056D02*
X205342759Y-86588031D01*
X205342759Y-86588031D02*
X205626034Y-86592282D01*
X205626034Y-86592282D02*
X205858026Y-86596823D01*
X205858026Y-86596823D02*
X206041529Y-86601667D01*
X206041529Y-86601667D02*
X206179339Y-86606826D01*
X206179339Y-86606826D02*
X206274251Y-86612314D01*
X206274251Y-86612314D02*
X206329061Y-86618143D01*
X206329061Y-86618143D02*
X206346500Y-86623900D01*
X206346500Y-86623900D02*
X206298337Y-86629398D01*
X206298337Y-86629398D02*
X206153184Y-86634679D01*
X206153184Y-86634679D02*
X205915649Y-86639739D01*
X205915649Y-86639739D02*
X205590341Y-86644578D01*
X205590341Y-86644578D02*
X205181871Y-86649193D01*
X205181871Y-86649193D02*
X204694846Y-86653583D01*
X204694846Y-86653583D02*
X204133875Y-86657747D01*
X204133875Y-86657747D02*
X203503569Y-86661681D01*
X203503569Y-86661681D02*
X202808535Y-86665385D01*
X202808535Y-86665385D02*
X202053384Y-86668857D01*
X202053384Y-86668857D02*
X201242723Y-86672096D01*
X201242723Y-86672096D02*
X200381163Y-86675098D01*
X200381163Y-86675098D02*
X199473312Y-86677864D01*
X199473312Y-86677864D02*
X198523780Y-86680390D01*
X198523780Y-86680390D02*
X197537175Y-86682676D01*
X197537175Y-86682676D02*
X196518107Y-86684719D01*
X196518107Y-86684719D02*
X195471184Y-86686517D01*
X195471184Y-86686517D02*
X194401016Y-86688070D01*
X194401016Y-86688070D02*
X193312212Y-86689375D01*
X193312212Y-86689375D02*
X192209381Y-86690431D01*
X192209381Y-86690431D02*
X191097132Y-86691236D01*
X191097132Y-86691236D02*
X189980074Y-86691787D01*
X189980074Y-86691787D02*
X188862816Y-86692084D01*
X188862816Y-86692084D02*
X187749968Y-86692125D01*
X187749968Y-86692125D02*
X186646138Y-86691907D01*
X186646138Y-86691907D02*
X185555936Y-86691430D01*
X185555936Y-86691430D02*
X184483970Y-86690691D01*
X184483970Y-86690691D02*
X183434849Y-86689689D01*
X183434849Y-86689689D02*
X182413184Y-86688422D01*
X182413184Y-86688422D02*
X181423582Y-86686888D01*
X181423582Y-86686888D02*
X180470654Y-86685085D01*
X180470654Y-86685085D02*
X179559007Y-86683013D01*
X179559007Y-86683013D02*
X178693252Y-86680668D01*
X178693252Y-86680668D02*
X177877996Y-86678050D01*
X177877996Y-86678050D02*
X177117850Y-86675156D01*
X177117850Y-86675156D02*
X176417423Y-86671985D01*
X176417423Y-86671985D02*
X175781323Y-86668535D01*
X175781323Y-86668535D02*
X175214159Y-86664805D01*
X175214159Y-86664805D02*
X174720541Y-86660792D01*
X174720541Y-86660792D02*
X174305078Y-86656495D01*
X174305078Y-86656495D02*
X173972379Y-86651912D01*
X173972379Y-86651912D02*
X173727052Y-86647042D01*
X173727052Y-86647042D02*
X173573708Y-86641882D01*
X173573708Y-86641882D02*
X173516955Y-86636432D01*
X173516955Y-86636432D02*
X173516778Y-86636241D01*
X173516778Y-86636241D02*
X173525390Y-86576519D01*
X173525390Y-86576519D02*
X173551880Y-86559737D01*
X173551880Y-86559737D02*
X173607328Y-86557789D01*
X173607328Y-86557789D02*
X173760564Y-86555959D01*
X173760564Y-86555959D02*
X174007778Y-86554251D01*
X174007778Y-86554251D02*
X174345158Y-86552667D01*
X174345158Y-86552667D02*
X174768893Y-86551211D01*
X174768893Y-86551211D02*
X175275172Y-86549885D01*
X175275172Y-86549885D02*
X175860183Y-86548692D01*
X175860183Y-86548692D02*
X176520115Y-86547635D01*
X176520115Y-86547635D02*
X177251157Y-86546717D01*
X177251157Y-86546717D02*
X178049497Y-86545940D01*
X178049497Y-86545940D02*
X178911325Y-86545308D01*
X178911325Y-86545308D02*
X179832828Y-86544823D01*
X179832828Y-86544823D02*
X180810197Y-86544489D01*
X180810197Y-86544489D02*
X181839619Y-86544307D01*
X181839619Y-86544307D02*
X182917283Y-86544282D01*
X182917283Y-86544282D02*
X184039378Y-86544415D01*
X184039378Y-86544415D02*
X184039378Y-86544415D01*
G36*
X184039378Y-86544415D02*
G01*
X185202092Y-86544711D01*
X186401615Y-86545170D01*
X187634135Y-86545798D01*
X188895841Y-86546595D01*
X189971966Y-86547396D01*
X191554754Y-86548724D01*
X193038737Y-86550120D01*
X194426711Y-86551596D01*
X195721471Y-86553165D01*
X196925812Y-86554841D01*
X198042530Y-86556637D01*
X199074420Y-86558566D01*
X200024277Y-86560641D01*
X200894897Y-86562874D01*
X201689075Y-86565280D01*
X202409607Y-86567871D01*
X203059287Y-86570659D01*
X203640912Y-86573659D01*
X204157276Y-86576883D01*
X204611175Y-86580344D01*
X205005404Y-86584056D01*
X205342759Y-86588031D01*
X205626034Y-86592282D01*
X205858026Y-86596823D01*
X206041529Y-86601667D01*
X206179339Y-86606826D01*
X206274251Y-86612314D01*
X206329061Y-86618143D01*
X206346500Y-86623900D01*
X206298337Y-86629398D01*
X206153184Y-86634679D01*
X205915649Y-86639739D01*
X205590341Y-86644578D01*
X205181871Y-86649193D01*
X204694846Y-86653583D01*
X204133875Y-86657747D01*
X203503569Y-86661681D01*
X202808535Y-86665385D01*
X202053384Y-86668857D01*
X201242723Y-86672096D01*
X200381163Y-86675098D01*
X199473312Y-86677864D01*
X198523780Y-86680390D01*
X197537175Y-86682676D01*
X196518107Y-86684719D01*
X195471184Y-86686517D01*
X194401016Y-86688070D01*
X193312212Y-86689375D01*
X192209381Y-86690431D01*
X191097132Y-86691236D01*
X189980074Y-86691787D01*
X188862816Y-86692084D01*
X187749968Y-86692125D01*
X186646138Y-86691907D01*
X185555936Y-86691430D01*
X184483970Y-86690691D01*
X183434849Y-86689689D01*
X182413184Y-86688422D01*
X181423582Y-86686888D01*
X180470654Y-86685085D01*
X179559007Y-86683013D01*
X178693252Y-86680668D01*
X177877996Y-86678050D01*
X177117850Y-86675156D01*
X176417423Y-86671985D01*
X175781323Y-86668535D01*
X175214159Y-86664805D01*
X174720541Y-86660792D01*
X174305078Y-86656495D01*
X173972379Y-86651912D01*
X173727052Y-86647042D01*
X173573708Y-86641882D01*
X173516955Y-86636432D01*
X173516778Y-86636241D01*
X173525390Y-86576519D01*
X173551880Y-86559737D01*
X173607328Y-86557789D01*
X173760564Y-86555959D01*
X174007778Y-86554251D01*
X174345158Y-86552667D01*
X174768893Y-86551211D01*
X175275172Y-86549885D01*
X175860183Y-86548692D01*
X176520115Y-86547635D01*
X177251157Y-86546717D01*
X178049497Y-86545940D01*
X178911325Y-86545308D01*
X179832828Y-86544823D01*
X180810197Y-86544489D01*
X181839619Y-86544307D01*
X182917283Y-86544282D01*
X184039378Y-86544415D01*
G37*
X184039378Y-86544415D02*
X185202092Y-86544711D01*
X186401615Y-86545170D01*
X187634135Y-86545798D01*
X188895841Y-86546595D01*
X189971966Y-86547396D01*
X191554754Y-86548724D01*
X193038737Y-86550120D01*
X194426711Y-86551596D01*
X195721471Y-86553165D01*
X196925812Y-86554841D01*
X198042530Y-86556637D01*
X199074420Y-86558566D01*
X200024277Y-86560641D01*
X200894897Y-86562874D01*
X201689075Y-86565280D01*
X202409607Y-86567871D01*
X203059287Y-86570659D01*
X203640912Y-86573659D01*
X204157276Y-86576883D01*
X204611175Y-86580344D01*
X205005404Y-86584056D01*
X205342759Y-86588031D01*
X205626034Y-86592282D01*
X205858026Y-86596823D01*
X206041529Y-86601667D01*
X206179339Y-86606826D01*
X206274251Y-86612314D01*
X206329061Y-86618143D01*
X206346500Y-86623900D01*
X206298337Y-86629398D01*
X206153184Y-86634679D01*
X205915649Y-86639739D01*
X205590341Y-86644578D01*
X205181871Y-86649193D01*
X204694846Y-86653583D01*
X204133875Y-86657747D01*
X203503569Y-86661681D01*
X202808535Y-86665385D01*
X202053384Y-86668857D01*
X201242723Y-86672096D01*
X200381163Y-86675098D01*
X199473312Y-86677864D01*
X198523780Y-86680390D01*
X197537175Y-86682676D01*
X196518107Y-86684719D01*
X195471184Y-86686517D01*
X194401016Y-86688070D01*
X193312212Y-86689375D01*
X192209381Y-86690431D01*
X191097132Y-86691236D01*
X189980074Y-86691787D01*
X188862816Y-86692084D01*
X187749968Y-86692125D01*
X186646138Y-86691907D01*
X185555936Y-86691430D01*
X184483970Y-86690691D01*
X183434849Y-86689689D01*
X182413184Y-86688422D01*
X181423582Y-86686888D01*
X180470654Y-86685085D01*
X179559007Y-86683013D01*
X178693252Y-86680668D01*
X177877996Y-86678050D01*
X177117850Y-86675156D01*
X176417423Y-86671985D01*
X175781323Y-86668535D01*
X175214159Y-86664805D01*
X174720541Y-86660792D01*
X174305078Y-86656495D01*
X173972379Y-86651912D01*
X173727052Y-86647042D01*
X173573708Y-86641882D01*
X173516955Y-86636432D01*
X173516778Y-86636241D01*
X173525390Y-86576519D01*
X173551880Y-86559737D01*
X173607328Y-86557789D01*
X173760564Y-86555959D01*
X174007778Y-86554251D01*
X174345158Y-86552667D01*
X174768893Y-86551211D01*
X175275172Y-86549885D01*
X175860183Y-86548692D01*
X176520115Y-86547635D01*
X177251157Y-86546717D01*
X178049497Y-86545940D01*
X178911325Y-86545308D01*
X179832828Y-86544823D01*
X180810197Y-86544489D01*
X181839619Y-86544307D01*
X182917283Y-86544282D01*
X184039378Y-86544415D01*
X179590567Y-84964126D02*
X179759072Y-84973037D01*
X179759072Y-84973037D02*
X179861282Y-84986337D01*
X179861282Y-84986337D02*
X179882303Y-84998300D01*
X179882303Y-84998300D02*
X179807880Y-85150770D01*
X179807880Y-85150770D02*
X179748870Y-85244669D01*
X179748870Y-85244669D02*
X179679119Y-85294108D01*
X179679119Y-85294108D02*
X179572469Y-85313198D01*
X179572469Y-85313198D02*
X179402765Y-85316053D01*
X179402765Y-85316053D02*
X179293825Y-85315800D01*
X179293825Y-85315800D02*
X179086513Y-85317809D01*
X179086513Y-85317809D02*
X178964802Y-85326049D01*
X178964802Y-85326049D02*
X178912733Y-85343837D01*
X178912733Y-85343837D02*
X178914348Y-85374488D01*
X178914348Y-85374488D02*
X178927200Y-85392000D01*
X178927200Y-85392000D02*
X179024233Y-85443944D01*
X179024233Y-85443944D02*
X179209142Y-85466779D01*
X179209142Y-85466779D02*
X179289020Y-85468200D01*
X179289020Y-85468200D02*
X179447460Y-85474074D01*
X179447460Y-85474074D02*
X179554848Y-85489317D01*
X179554848Y-85489317D02*
X179585344Y-85506300D01*
X179585344Y-85506300D02*
X179559811Y-85563967D01*
X179559811Y-85563967D02*
X179493208Y-85686966D01*
X179493208Y-85686966D02*
X179397358Y-85853884D01*
X179397358Y-85853884D02*
X179339959Y-85950800D01*
X179339959Y-85950800D02*
X179096831Y-86357200D01*
X179096831Y-86357200D02*
X178734213Y-86372093D01*
X178734213Y-86372093D02*
X178371596Y-86386986D01*
X178371596Y-86386986D02*
X178293798Y-86200789D01*
X178293798Y-86200789D02*
X178244515Y-86078467D01*
X178244515Y-86078467D02*
X178217658Y-86003306D01*
X178217658Y-86003306D02*
X178216000Y-85995396D01*
X178216000Y-85995396D02*
X178262474Y-85985859D01*
X178262474Y-85985859D02*
X178384610Y-85978987D01*
X178384610Y-85978987D02*
X178556477Y-85976206D01*
X178556477Y-85976206D02*
X178565379Y-85976200D01*
X178565379Y-85976200D02*
X178785577Y-85967227D01*
X178785577Y-85967227D02*
X178921014Y-85938411D01*
X178921014Y-85938411D02*
X178978000Y-85900000D01*
X178978000Y-85900000D02*
X179003896Y-85852914D01*
X179003896Y-85852914D02*
X178966675Y-85830356D01*
X178966675Y-85830356D02*
X178848722Y-85823901D01*
X178848722Y-85823901D02*
X178818639Y-85823800D01*
X178818639Y-85823800D02*
X178657985Y-85809912D01*
X178657985Y-85809912D02*
X178563113Y-85760187D01*
X178563113Y-85760187D02*
X178529977Y-85718017D01*
X178529977Y-85718017D02*
X178501555Y-85653107D01*
X178501555Y-85653107D02*
X178506678Y-85579044D01*
X178506678Y-85579044D02*
X178552593Y-85471331D01*
X178552593Y-85471331D02*
X178646547Y-85305470D01*
X178646547Y-85305470D02*
X178657457Y-85287104D01*
X178657457Y-85287104D02*
X178851000Y-84961974D01*
X178851000Y-84961974D02*
X179375933Y-84961087D01*
X179375933Y-84961087D02*
X179590567Y-84964126D01*
X179590567Y-84964126D02*
X179590567Y-84964126D01*
G36*
X179590567Y-84964126D02*
G01*
X179759072Y-84973037D01*
X179861282Y-84986337D01*
X179882303Y-84998300D01*
X179807880Y-85150770D01*
X179748870Y-85244669D01*
X179679119Y-85294108D01*
X179572469Y-85313198D01*
X179402765Y-85316053D01*
X179293825Y-85315800D01*
X179086513Y-85317809D01*
X178964802Y-85326049D01*
X178912733Y-85343837D01*
X178914348Y-85374488D01*
X178927200Y-85392000D01*
X179024233Y-85443944D01*
X179209142Y-85466779D01*
X179289020Y-85468200D01*
X179447460Y-85474074D01*
X179554848Y-85489317D01*
X179585344Y-85506300D01*
X179559811Y-85563967D01*
X179493208Y-85686966D01*
X179397358Y-85853884D01*
X179339959Y-85950800D01*
X179096831Y-86357200D01*
X178734213Y-86372093D01*
X178371596Y-86386986D01*
X178293798Y-86200789D01*
X178244515Y-86078467D01*
X178217658Y-86003306D01*
X178216000Y-85995396D01*
X178262474Y-85985859D01*
X178384610Y-85978987D01*
X178556477Y-85976206D01*
X178565379Y-85976200D01*
X178785577Y-85967227D01*
X178921014Y-85938411D01*
X178978000Y-85900000D01*
X179003896Y-85852914D01*
X178966675Y-85830356D01*
X178848722Y-85823901D01*
X178818639Y-85823800D01*
X178657985Y-85809912D01*
X178563113Y-85760187D01*
X178529977Y-85718017D01*
X178501555Y-85653107D01*
X178506678Y-85579044D01*
X178552593Y-85471331D01*
X178646547Y-85305470D01*
X178657457Y-85287104D01*
X178851000Y-84961974D01*
X179375933Y-84961087D01*
X179590567Y-84964126D01*
G37*
X179590567Y-84964126D02*
X179759072Y-84973037D01*
X179861282Y-84986337D01*
X179882303Y-84998300D01*
X179807880Y-85150770D01*
X179748870Y-85244669D01*
X179679119Y-85294108D01*
X179572469Y-85313198D01*
X179402765Y-85316053D01*
X179293825Y-85315800D01*
X179086513Y-85317809D01*
X178964802Y-85326049D01*
X178912733Y-85343837D01*
X178914348Y-85374488D01*
X178927200Y-85392000D01*
X179024233Y-85443944D01*
X179209142Y-85466779D01*
X179289020Y-85468200D01*
X179447460Y-85474074D01*
X179554848Y-85489317D01*
X179585344Y-85506300D01*
X179559811Y-85563967D01*
X179493208Y-85686966D01*
X179397358Y-85853884D01*
X179339959Y-85950800D01*
X179096831Y-86357200D01*
X178734213Y-86372093D01*
X178371596Y-86386986D01*
X178293798Y-86200789D01*
X178244515Y-86078467D01*
X178217658Y-86003306D01*
X178216000Y-85995396D01*
X178262474Y-85985859D01*
X178384610Y-85978987D01*
X178556477Y-85976206D01*
X178565379Y-85976200D01*
X178785577Y-85967227D01*
X178921014Y-85938411D01*
X178978000Y-85900000D01*
X179003896Y-85852914D01*
X178966675Y-85830356D01*
X178848722Y-85823901D01*
X178818639Y-85823800D01*
X178657985Y-85809912D01*
X178563113Y-85760187D01*
X178529977Y-85718017D01*
X178501555Y-85653107D01*
X178506678Y-85579044D01*
X178552593Y-85471331D01*
X178646547Y-85305470D01*
X178657457Y-85287104D01*
X178851000Y-84961974D01*
X179375933Y-84961087D01*
X179590567Y-84964126D01*
X197539760Y-86942932D02*
X197945188Y-86944872D01*
X197945188Y-86944872D02*
X198306326Y-86948061D01*
X198306326Y-86948061D02*
X198612320Y-86952337D01*
X198612320Y-86952337D02*
X198852314Y-86957539D01*
X198852314Y-86957539D02*
X199015451Y-86963505D01*
X199015451Y-86963505D02*
X199090877Y-86970076D01*
X199090877Y-86970076D02*
X199094800Y-86971996D01*
X199094800Y-86971996D02*
X199069550Y-87022410D01*
X199069550Y-87022410D02*
X198998809Y-87146738D01*
X198998809Y-87146738D02*
X198890092Y-87332219D01*
X198890092Y-87332219D02*
X198750913Y-87566089D01*
X198750913Y-87566089D02*
X198588784Y-87835585D01*
X198588784Y-87835585D02*
X198503848Y-87975777D01*
X198503848Y-87975777D02*
X197912896Y-88948961D01*
X197912896Y-88948961D02*
X197006127Y-89443780D01*
X197006127Y-89443780D02*
X196099359Y-89938600D01*
X196099359Y-89938600D02*
X195399979Y-89940495D01*
X195399979Y-89940495D02*
X194700600Y-89942391D01*
X194700600Y-89942391D02*
X194094502Y-90984582D01*
X194094502Y-90984582D02*
X193923071Y-91278013D01*
X193923071Y-91278013D02*
X193768013Y-91540855D01*
X193768013Y-91540855D02*
X193636741Y-91760752D01*
X193636741Y-91760752D02*
X193536666Y-91925348D01*
X193536666Y-91925348D02*
X193475201Y-92022288D01*
X193475201Y-92022288D02*
X193459502Y-92043144D01*
X193459502Y-92043144D02*
X193419418Y-92011696D01*
X193419418Y-92011696D02*
X193332034Y-91913947D01*
X193332034Y-91913947D02*
X193210440Y-91765299D01*
X193210440Y-91765299D02*
X193075000Y-91590752D01*
X193075000Y-91590752D02*
X192934517Y-91401632D01*
X192934517Y-91401632D02*
X192820223Y-91240283D01*
X192820223Y-91240283D02*
X192744460Y-91124645D01*
X192744460Y-91124645D02*
X192719400Y-91073936D01*
X192719400Y-91073936D02*
X192744302Y-91021599D01*
X192744302Y-91021599D02*
X192815635Y-90890536D01*
X192815635Y-90890536D02*
X192928336Y-90689607D01*
X192928336Y-90689607D02*
X193077344Y-90427671D01*
X193077344Y-90427671D02*
X193257596Y-90113586D01*
X193257596Y-90113586D02*
X193464031Y-89756212D01*
X193464031Y-89756212D02*
X193643093Y-89447903D01*
X193643093Y-89447903D02*
X195015382Y-89447903D01*
X195015382Y-89447903D02*
X195249597Y-89316997D01*
X195249597Y-89316997D02*
X195371067Y-89249522D01*
X195371067Y-89249522D02*
X195561835Y-89144052D01*
X195561835Y-89144052D02*
X195802141Y-89011489D01*
X195802141Y-89011489D02*
X196072224Y-88862736D01*
X196072224Y-88862736D02*
X196301104Y-88736846D01*
X196301104Y-88736846D02*
X197118395Y-88287600D01*
X197118395Y-88287600D02*
X196143453Y-88273777D01*
X196143453Y-88273777D02*
X195839220Y-88270749D01*
X195839220Y-88270749D02*
X195571087Y-88270527D01*
X195571087Y-88270527D02*
X195355119Y-88272923D01*
X195355119Y-88272923D02*
X195207381Y-88277751D01*
X195207381Y-88277751D02*
X195143940Y-88284822D01*
X195143940Y-88284822D02*
X195143021Y-88285444D01*
X195143021Y-88285444D02*
X195153926Y-88338310D01*
X195153926Y-88338310D02*
X195209674Y-88445739D01*
X195209674Y-88445739D02*
X195259789Y-88525900D01*
X195259789Y-88525900D02*
X195402046Y-88740865D01*
X195402046Y-88740865D02*
X195015382Y-89447903D01*
X195015382Y-89447903D02*
X193643093Y-89447903D01*
X193643093Y-89447903D02*
X193691586Y-89364408D01*
X193691586Y-89364408D02*
X193913200Y-88984642D01*
X193913200Y-88984642D02*
X195107000Y-86943400D01*
X195107000Y-86943400D02*
X197100900Y-86942400D01*
X197100900Y-86942400D02*
X197539760Y-86942932D01*
X197539760Y-86942932D02*
X197539760Y-86942932D01*
G36*
X193913200Y-88984642D02*
G01*
X195107000Y-86943400D01*
X197100900Y-86942400D01*
X197539760Y-86942932D01*
X197945188Y-86944872D01*
X198306326Y-86948061D01*
X198612320Y-86952337D01*
X198852314Y-86957539D01*
X199015451Y-86963505D01*
X199090877Y-86970076D01*
X199094800Y-86971996D01*
X199069550Y-87022410D01*
X198998809Y-87146738D01*
X198890092Y-87332219D01*
X198750913Y-87566089D01*
X198588784Y-87835585D01*
X198503848Y-87975777D01*
X197912896Y-88948961D01*
X197006127Y-89443780D01*
X196099359Y-89938600D01*
X195399979Y-89940495D01*
X194700600Y-89942391D01*
X194094502Y-90984582D01*
X193923071Y-91278013D01*
X193768013Y-91540855D01*
X193636741Y-91760752D01*
X193536666Y-91925348D01*
X193475201Y-92022288D01*
X193459502Y-92043144D01*
X193419418Y-92011696D01*
X193332034Y-91913947D01*
X193210440Y-91765299D01*
X193075000Y-91590752D01*
X192934517Y-91401632D01*
X192820223Y-91240283D01*
X192744460Y-91124645D01*
X192719400Y-91073936D01*
X192744302Y-91021599D01*
X192815635Y-90890536D01*
X192928336Y-90689607D01*
X193077344Y-90427671D01*
X193257596Y-90113586D01*
X193464031Y-89756212D01*
X193643093Y-89447903D01*
X195015382Y-89447903D01*
X195249597Y-89316997D01*
X195371067Y-89249522D01*
X195561835Y-89144052D01*
X195802141Y-89011489D01*
X196072224Y-88862736D01*
X196301104Y-88736846D01*
X197118395Y-88287600D01*
X196143453Y-88273777D01*
X195839220Y-88270749D01*
X195571087Y-88270527D01*
X195355119Y-88272923D01*
X195207381Y-88277751D01*
X195143940Y-88284822D01*
X195143021Y-88285444D01*
X195153926Y-88338310D01*
X195209674Y-88445739D01*
X195259789Y-88525900D01*
X195402046Y-88740865D01*
X195015382Y-89447903D01*
X193643093Y-89447903D01*
X193691586Y-89364408D01*
X193913200Y-88984642D01*
G37*
X193913200Y-88984642D02*
X195107000Y-86943400D01*
X197100900Y-86942400D01*
X197539760Y-86942932D01*
X197945188Y-86944872D01*
X198306326Y-86948061D01*
X198612320Y-86952337D01*
X198852314Y-86957539D01*
X199015451Y-86963505D01*
X199090877Y-86970076D01*
X199094800Y-86971996D01*
X199069550Y-87022410D01*
X198998809Y-87146738D01*
X198890092Y-87332219D01*
X198750913Y-87566089D01*
X198588784Y-87835585D01*
X198503848Y-87975777D01*
X197912896Y-88948961D01*
X197006127Y-89443780D01*
X196099359Y-89938600D01*
X195399979Y-89940495D01*
X194700600Y-89942391D01*
X194094502Y-90984582D01*
X193923071Y-91278013D01*
X193768013Y-91540855D01*
X193636741Y-91760752D01*
X193536666Y-91925348D01*
X193475201Y-92022288D01*
X193459502Y-92043144D01*
X193419418Y-92011696D01*
X193332034Y-91913947D01*
X193210440Y-91765299D01*
X193075000Y-91590752D01*
X192934517Y-91401632D01*
X192820223Y-91240283D01*
X192744460Y-91124645D01*
X192719400Y-91073936D01*
X192744302Y-91021599D01*
X192815635Y-90890536D01*
X192928336Y-90689607D01*
X193077344Y-90427671D01*
X193257596Y-90113586D01*
X193464031Y-89756212D01*
X193643093Y-89447903D01*
X195015382Y-89447903D01*
X195249597Y-89316997D01*
X195371067Y-89249522D01*
X195561835Y-89144052D01*
X195802141Y-89011489D01*
X196072224Y-88862736D01*
X196301104Y-88736846D01*
X197118395Y-88287600D01*
X196143453Y-88273777D01*
X195839220Y-88270749D01*
X195571087Y-88270527D01*
X195355119Y-88272923D01*
X195207381Y-88277751D01*
X195143940Y-88284822D01*
X195143021Y-88285444D01*
X195153926Y-88338310D01*
X195209674Y-88445739D01*
X195259789Y-88525900D01*
X195402046Y-88740865D01*
X195015382Y-89447903D01*
X193643093Y-89447903D01*
X193691586Y-89364408D01*
X193913200Y-88984642D01*
X186353303Y-87512900D02*
X186283649Y-87628815D01*
X186283649Y-87628815D02*
X186179727Y-87803643D01*
X186179727Y-87803643D02*
X186058605Y-88008618D01*
X186058605Y-88008618D02*
X185991595Y-88122500D01*
X185991595Y-88122500D02*
X185730469Y-88566999D01*
X185730469Y-88566999D02*
X185478434Y-88567000D01*
X185478434Y-88567000D02*
X185334127Y-88573907D01*
X185334127Y-88573907D02*
X185242862Y-88591553D01*
X185242862Y-88591553D02*
X185226258Y-88605100D01*
X185226258Y-88605100D02*
X185248136Y-88669378D01*
X185248136Y-88669378D02*
X185303598Y-88787801D01*
X185303598Y-88787801D02*
X185335717Y-88850139D01*
X185335717Y-88850139D02*
X185445317Y-89057078D01*
X185445317Y-89057078D02*
X184561158Y-90563380D01*
X184561158Y-90563380D02*
X184352850Y-90917041D01*
X184352850Y-90917041D02*
X184160564Y-91241152D01*
X184160564Y-91241152D02*
X183990354Y-91525689D01*
X183990354Y-91525689D02*
X183848275Y-91760627D01*
X183848275Y-91760627D02*
X183740381Y-91935942D01*
X183740381Y-91935942D02*
X183672728Y-92041611D01*
X183672728Y-92041611D02*
X183651600Y-92069266D01*
X183651600Y-92069266D02*
X183614105Y-92031266D01*
X183614105Y-92031266D02*
X183532950Y-91931429D01*
X183532950Y-91931429D02*
X183423683Y-91790480D01*
X183423683Y-91790480D02*
X183301852Y-91629147D01*
X183301852Y-91629147D02*
X183183005Y-91468156D01*
X183183005Y-91468156D02*
X183082688Y-91328236D01*
X183082688Y-91328236D02*
X183016451Y-91230113D01*
X183016451Y-91230113D02*
X182999588Y-91200058D01*
X182999588Y-91200058D02*
X183015936Y-91139995D01*
X183015936Y-91139995D02*
X183073962Y-91014768D01*
X183073962Y-91014768D02*
X183163056Y-90846325D01*
X183163056Y-90846325D02*
X183215488Y-90753533D01*
X183215488Y-90753533D02*
X183317698Y-90573497D01*
X183317698Y-90573497D02*
X183397084Y-90428270D01*
X183397084Y-90428270D02*
X183442231Y-90339001D01*
X183442231Y-90339001D02*
X183448400Y-90321966D01*
X183448400Y-90321966D02*
X183400835Y-90311365D01*
X183400835Y-90311365D02*
X183271073Y-90302631D01*
X183271073Y-90302631D02*
X183078511Y-90296625D01*
X183078511Y-90296625D02*
X182842546Y-90294212D01*
X182842546Y-90294212D02*
X182823988Y-90294200D01*
X182823988Y-90294200D02*
X182199576Y-90294200D01*
X182199576Y-90294200D02*
X181723032Y-91109264D01*
X181723032Y-91109264D02*
X181568363Y-91372760D01*
X181568363Y-91372760D02*
X181428179Y-91609619D01*
X181428179Y-91609619D02*
X181311742Y-91804349D01*
X181311742Y-91804349D02*
X181228310Y-91941462D01*
X181228310Y-91941462D02*
X181188041Y-92004260D01*
X181188041Y-92004260D02*
X181153761Y-92028705D01*
X181153761Y-92028705D02*
X181105464Y-92009834D01*
X181105464Y-92009834D02*
X181031715Y-91936863D01*
X181031715Y-91936863D02*
X180921080Y-91799008D01*
X180921080Y-91799008D02*
X180803097Y-91641232D01*
X180803097Y-91641232D02*
X180671511Y-91455644D01*
X180671511Y-91455644D02*
X180568542Y-91296820D01*
X180568542Y-91296820D02*
X180506088Y-91184010D01*
X180506088Y-91184010D02*
X180493259Y-91139936D01*
X180493259Y-91139936D02*
X180522283Y-91085342D01*
X180522283Y-91085342D02*
X180598447Y-90953093D01*
X180598447Y-90953093D02*
X180716261Y-90752439D01*
X180716261Y-90752439D02*
X180870231Y-90492630D01*
X180870231Y-90492630D02*
X181054865Y-90182914D01*
X181054865Y-90182914D02*
X181264671Y-89832542D01*
X181264671Y-89832542D02*
X181494157Y-89450762D01*
X181494157Y-89450762D02*
X181598177Y-89278200D01*
X181598177Y-89278200D02*
X182791425Y-89278200D01*
X182791425Y-89278200D02*
X183437412Y-89277226D01*
X183437412Y-89277226D02*
X184083400Y-89276253D01*
X184083400Y-89276253D02*
X184273900Y-88950444D01*
X184273900Y-88950444D02*
X184365955Y-88789391D01*
X184365955Y-88789391D02*
X184433570Y-88664214D01*
X184433570Y-88664214D02*
X184463868Y-88598881D01*
X184463868Y-88598881D02*
X184464400Y-88595817D01*
X184464400Y-88595817D02*
X184416840Y-88584800D01*
X184416840Y-88584800D02*
X184287112Y-88575727D01*
X184287112Y-88575727D02*
X184094642Y-88569497D01*
X184094642Y-88569497D02*
X183858855Y-88567010D01*
X183858855Y-88567010D02*
X183841836Y-88567000D01*
X183841836Y-88567000D02*
X183219273Y-88567000D01*
X183219273Y-88567000D02*
X182791425Y-89278200D01*
X182791425Y-89278200D02*
X181598177Y-89278200D01*
X181598177Y-89278200D02*
X181636259Y-89215026D01*
X181636259Y-89215026D02*
X182762600Y-87348452D01*
X182762600Y-87348452D02*
X186453886Y-87347800D01*
X186453886Y-87347800D02*
X186353303Y-87512900D01*
X186353303Y-87512900D02*
X186353303Y-87512900D01*
G36*
X182762600Y-87348452D02*
G01*
X186453886Y-87347800D01*
X186353303Y-87512900D01*
X186283649Y-87628815D01*
X186179727Y-87803643D01*
X186058605Y-88008618D01*
X185991595Y-88122500D01*
X185730469Y-88566999D01*
X185478434Y-88567000D01*
X185334127Y-88573907D01*
X185242862Y-88591553D01*
X185226258Y-88605100D01*
X185248136Y-88669378D01*
X185303598Y-88787801D01*
X185335717Y-88850139D01*
X185445317Y-89057078D01*
X184561158Y-90563380D01*
X184352850Y-90917041D01*
X184160564Y-91241152D01*
X183990354Y-91525689D01*
X183848275Y-91760627D01*
X183740381Y-91935942D01*
X183672728Y-92041611D01*
X183651600Y-92069266D01*
X183614105Y-92031266D01*
X183532950Y-91931429D01*
X183423683Y-91790480D01*
X183301852Y-91629147D01*
X183183005Y-91468156D01*
X183082688Y-91328236D01*
X183016451Y-91230113D01*
X182999588Y-91200058D01*
X183015936Y-91139995D01*
X183073962Y-91014768D01*
X183163056Y-90846325D01*
X183215488Y-90753533D01*
X183317698Y-90573497D01*
X183397084Y-90428270D01*
X183442231Y-90339001D01*
X183448400Y-90321966D01*
X183400835Y-90311365D01*
X183271073Y-90302631D01*
X183078511Y-90296625D01*
X182842546Y-90294212D01*
X182823988Y-90294200D01*
X182199576Y-90294200D01*
X181723032Y-91109264D01*
X181568363Y-91372760D01*
X181428179Y-91609619D01*
X181311742Y-91804349D01*
X181228310Y-91941462D01*
X181188041Y-92004260D01*
X181153761Y-92028705D01*
X181105464Y-92009834D01*
X181031715Y-91936863D01*
X180921080Y-91799008D01*
X180803097Y-91641232D01*
X180671511Y-91455644D01*
X180568542Y-91296820D01*
X180506088Y-91184010D01*
X180493259Y-91139936D01*
X180522283Y-91085342D01*
X180598447Y-90953093D01*
X180716261Y-90752439D01*
X180870231Y-90492630D01*
X181054865Y-90182914D01*
X181264671Y-89832542D01*
X181494157Y-89450762D01*
X181598177Y-89278200D01*
X182791425Y-89278200D01*
X183437412Y-89277226D01*
X184083400Y-89276253D01*
X184273900Y-88950444D01*
X184365955Y-88789391D01*
X184433570Y-88664214D01*
X184463868Y-88598881D01*
X184464400Y-88595817D01*
X184416840Y-88584800D01*
X184287112Y-88575727D01*
X184094642Y-88569497D01*
X183858855Y-88567010D01*
X183841836Y-88567000D01*
X183219273Y-88567000D01*
X182791425Y-89278200D01*
X181598177Y-89278200D01*
X181636259Y-89215026D01*
X182762600Y-87348452D01*
G37*
X182762600Y-87348452D02*
X186453886Y-87347800D01*
X186353303Y-87512900D01*
X186283649Y-87628815D01*
X186179727Y-87803643D01*
X186058605Y-88008618D01*
X185991595Y-88122500D01*
X185730469Y-88566999D01*
X185478434Y-88567000D01*
X185334127Y-88573907D01*
X185242862Y-88591553D01*
X185226258Y-88605100D01*
X185248136Y-88669378D01*
X185303598Y-88787801D01*
X185335717Y-88850139D01*
X185445317Y-89057078D01*
X184561158Y-90563380D01*
X184352850Y-90917041D01*
X184160564Y-91241152D01*
X183990354Y-91525689D01*
X183848275Y-91760627D01*
X183740381Y-91935942D01*
X183672728Y-92041611D01*
X183651600Y-92069266D01*
X183614105Y-92031266D01*
X183532950Y-91931429D01*
X183423683Y-91790480D01*
X183301852Y-91629147D01*
X183183005Y-91468156D01*
X183082688Y-91328236D01*
X183016451Y-91230113D01*
X182999588Y-91200058D01*
X183015936Y-91139995D01*
X183073962Y-91014768D01*
X183163056Y-90846325D01*
X183215488Y-90753533D01*
X183317698Y-90573497D01*
X183397084Y-90428270D01*
X183442231Y-90339001D01*
X183448400Y-90321966D01*
X183400835Y-90311365D01*
X183271073Y-90302631D01*
X183078511Y-90296625D01*
X182842546Y-90294212D01*
X182823988Y-90294200D01*
X182199576Y-90294200D01*
X181723032Y-91109264D01*
X181568363Y-91372760D01*
X181428179Y-91609619D01*
X181311742Y-91804349D01*
X181228310Y-91941462D01*
X181188041Y-92004260D01*
X181153761Y-92028705D01*
X181105464Y-92009834D01*
X181031715Y-91936863D01*
X180921080Y-91799008D01*
X180803097Y-91641232D01*
X180671511Y-91455644D01*
X180568542Y-91296820D01*
X180506088Y-91184010D01*
X180493259Y-91139936D01*
X180522283Y-91085342D01*
X180598447Y-90953093D01*
X180716261Y-90752439D01*
X180870231Y-90492630D01*
X181054865Y-90182914D01*
X181264671Y-89832542D01*
X181494157Y-89450762D01*
X181598177Y-89278200D01*
X182791425Y-89278200D01*
X183437412Y-89277226D01*
X184083400Y-89276253D01*
X184273900Y-88950444D01*
X184365955Y-88789391D01*
X184433570Y-88664214D01*
X184463868Y-88598881D01*
X184464400Y-88595817D01*
X184416840Y-88584800D01*
X184287112Y-88575727D01*
X184094642Y-88569497D01*
X183858855Y-88567010D01*
X183841836Y-88567000D01*
X183219273Y-88567000D01*
X182791425Y-89278200D01*
X181598177Y-89278200D01*
X181636259Y-89215026D01*
X182762600Y-87348452D01*
X175447880Y-84811062D02*
X175627923Y-84819904D01*
X175627923Y-84819904D02*
X175744156Y-84832905D01*
X175744156Y-84832905D02*
X175777410Y-84845900D01*
X175777410Y-84845900D02*
X175753020Y-84910441D01*
X175753020Y-84910441D02*
X175692963Y-85021686D01*
X175692963Y-85021686D02*
X175676556Y-85049100D01*
X175676556Y-85049100D02*
X175575893Y-85214200D01*
X175575893Y-85214200D02*
X175139113Y-85214200D01*
X175139113Y-85214200D02*
X174917281Y-85218175D01*
X174917281Y-85218175D02*
X174783999Y-85231405D01*
X174783999Y-85231405D02*
X174726480Y-85255842D01*
X174726480Y-85255842D02*
X174723330Y-85277700D01*
X174723330Y-85277700D02*
X174787670Y-85317441D01*
X174787670Y-85317441D02*
X174945933Y-85344907D01*
X174945933Y-85344907D02*
X175112031Y-85356195D01*
X175112031Y-85356195D02*
X175287804Y-85368113D01*
X175287804Y-85368113D02*
X175412985Y-85385758D01*
X175412985Y-85385758D02*
X175463764Y-85405595D01*
X175463764Y-85405595D02*
X175463568Y-85408374D01*
X175463568Y-85408374D02*
X175432715Y-85465195D01*
X175432715Y-85465195D02*
X175361918Y-85589794D01*
X175361918Y-85589794D02*
X175262558Y-85762268D01*
X175262558Y-85762268D02*
X175174385Y-85914079D01*
X175174385Y-85914079D02*
X174901371Y-86382600D01*
X174901371Y-86382600D02*
X174532905Y-86382600D01*
X174532905Y-86382600D02*
X174290109Y-86372001D01*
X174290109Y-86372001D02*
X174145314Y-86340057D01*
X174145314Y-86340057D02*
X174107721Y-86314258D01*
X174107721Y-86314258D02*
X174057323Y-86216848D01*
X174057323Y-86216848D02*
X174019400Y-86087901D01*
X174019400Y-86087901D02*
X173987797Y-85929886D01*
X173987797Y-85929886D02*
X174383321Y-85914943D01*
X174383321Y-85914943D02*
X174618669Y-85897721D01*
X174618669Y-85897721D02*
X174758850Y-85867764D01*
X174758850Y-85867764D02*
X174799856Y-85836500D01*
X174799856Y-85836500D02*
X174777815Y-85794451D01*
X174777815Y-85794451D02*
X174669546Y-85775069D01*
X174669546Y-85775069D02*
X174586944Y-85773000D01*
X174586944Y-85773000D02*
X174435477Y-85764542D01*
X174435477Y-85764542D02*
X174350666Y-85729375D01*
X174350666Y-85729375D02*
X174298281Y-85652808D01*
X174298281Y-85652808D02*
X174296156Y-85648194D01*
X174296156Y-85648194D02*
X174273920Y-85574992D01*
X174273920Y-85574992D02*
X174282906Y-85494197D01*
X174282906Y-85494197D02*
X174330958Y-85382046D01*
X174330958Y-85382046D02*
X174425921Y-85214776D01*
X174425921Y-85214776D02*
X174455474Y-85165594D01*
X174455474Y-85165594D02*
X174671656Y-84807800D01*
X174671656Y-84807800D02*
X175224628Y-84807800D01*
X175224628Y-84807800D02*
X175447880Y-84811062D01*
X175447880Y-84811062D02*
X175447880Y-84811062D01*
G36*
X175447880Y-84811062D02*
G01*
X175627923Y-84819904D01*
X175744156Y-84832905D01*
X175777410Y-84845900D01*
X175753020Y-84910441D01*
X175692963Y-85021686D01*
X175676556Y-85049100D01*
X175575893Y-85214200D01*
X175139113Y-85214200D01*
X174917281Y-85218175D01*
X174783999Y-85231405D01*
X174726480Y-85255842D01*
X174723330Y-85277700D01*
X174787670Y-85317441D01*
X174945933Y-85344907D01*
X175112031Y-85356195D01*
X175287804Y-85368113D01*
X175412985Y-85385758D01*
X175463764Y-85405595D01*
X175463568Y-85408374D01*
X175432715Y-85465195D01*
X175361918Y-85589794D01*
X175262558Y-85762268D01*
X175174385Y-85914079D01*
X174901371Y-86382600D01*
X174532905Y-86382600D01*
X174290109Y-86372001D01*
X174145314Y-86340057D01*
X174107721Y-86314258D01*
X174057323Y-86216848D01*
X174019400Y-86087901D01*
X173987797Y-85929886D01*
X174383321Y-85914943D01*
X174618669Y-85897721D01*
X174758850Y-85867764D01*
X174799856Y-85836500D01*
X174777815Y-85794451D01*
X174669546Y-85775069D01*
X174586944Y-85773000D01*
X174435477Y-85764542D01*
X174350666Y-85729375D01*
X174298281Y-85652808D01*
X174296156Y-85648194D01*
X174273920Y-85574992D01*
X174282906Y-85494197D01*
X174330958Y-85382046D01*
X174425921Y-85214776D01*
X174455474Y-85165594D01*
X174671656Y-84807800D01*
X175224628Y-84807800D01*
X175447880Y-84811062D01*
G37*
X175447880Y-84811062D02*
X175627923Y-84819904D01*
X175744156Y-84832905D01*
X175777410Y-84845900D01*
X175753020Y-84910441D01*
X175692963Y-85021686D01*
X175676556Y-85049100D01*
X175575893Y-85214200D01*
X175139113Y-85214200D01*
X174917281Y-85218175D01*
X174783999Y-85231405D01*
X174726480Y-85255842D01*
X174723330Y-85277700D01*
X174787670Y-85317441D01*
X174945933Y-85344907D01*
X175112031Y-85356195D01*
X175287804Y-85368113D01*
X175412985Y-85385758D01*
X175463764Y-85405595D01*
X175463568Y-85408374D01*
X175432715Y-85465195D01*
X175361918Y-85589794D01*
X175262558Y-85762268D01*
X175174385Y-85914079D01*
X174901371Y-86382600D01*
X174532905Y-86382600D01*
X174290109Y-86372001D01*
X174145314Y-86340057D01*
X174107721Y-86314258D01*
X174057323Y-86216848D01*
X174019400Y-86087901D01*
X173987797Y-85929886D01*
X174383321Y-85914943D01*
X174618669Y-85897721D01*
X174758850Y-85867764D01*
X174799856Y-85836500D01*
X174777815Y-85794451D01*
X174669546Y-85775069D01*
X174586944Y-85773000D01*
X174435477Y-85764542D01*
X174350666Y-85729375D01*
X174298281Y-85652808D01*
X174296156Y-85648194D01*
X174273920Y-85574992D01*
X174282906Y-85494197D01*
X174330958Y-85382046D01*
X174425921Y-85214776D01*
X174455474Y-85165594D01*
X174671656Y-84807800D01*
X175224628Y-84807800D01*
X175447880Y-84811062D01*
X180483378Y-92234015D02*
X181646092Y-92234311D01*
X181646092Y-92234311D02*
X182845615Y-92234770D01*
X182845615Y-92234770D02*
X184078135Y-92235398D01*
X184078135Y-92235398D02*
X185339841Y-92236195D01*
X185339841Y-92236195D02*
X186415966Y-92236996D01*
X186415966Y-92236996D02*
X187998754Y-92238324D01*
X187998754Y-92238324D02*
X189482737Y-92239720D01*
X189482737Y-92239720D02*
X190870711Y-92241196D01*
X190870711Y-92241196D02*
X192165471Y-92242765D01*
X192165471Y-92242765D02*
X193369812Y-92244441D01*
X193369812Y-92244441D02*
X194486530Y-92246237D01*
X194486530Y-92246237D02*
X195518420Y-92248166D01*
X195518420Y-92248166D02*
X196468277Y-92250241D01*
X196468277Y-92250241D02*
X197338897Y-92252474D01*
X197338897Y-92252474D02*
X198133075Y-92254880D01*
X198133075Y-92254880D02*
X198853607Y-92257471D01*
X198853607Y-92257471D02*
X199503287Y-92260259D01*
X199503287Y-92260259D02*
X200084912Y-92263259D01*
X200084912Y-92263259D02*
X200601276Y-92266483D01*
X200601276Y-92266483D02*
X201055175Y-92269944D01*
X201055175Y-92269944D02*
X201449404Y-92273656D01*
X201449404Y-92273656D02*
X201786759Y-92277631D01*
X201786759Y-92277631D02*
X202070034Y-92281882D01*
X202070034Y-92281882D02*
X202302026Y-92286423D01*
X202302026Y-92286423D02*
X202485529Y-92291267D01*
X202485529Y-92291267D02*
X202623339Y-92296426D01*
X202623339Y-92296426D02*
X202718251Y-92301914D01*
X202718251Y-92301914D02*
X202773061Y-92307743D01*
X202773061Y-92307743D02*
X202790500Y-92313500D01*
X202790500Y-92313500D02*
X202742337Y-92318998D01*
X202742337Y-92318998D02*
X202597184Y-92324279D01*
X202597184Y-92324279D02*
X202359649Y-92329339D01*
X202359649Y-92329339D02*
X202034341Y-92334178D01*
X202034341Y-92334178D02*
X201625871Y-92338793D01*
X201625871Y-92338793D02*
X201138846Y-92343183D01*
X201138846Y-92343183D02*
X200577875Y-92347347D01*
X200577875Y-92347347D02*
X199947569Y-92351281D01*
X199947569Y-92351281D02*
X199252535Y-92354985D01*
X199252535Y-92354985D02*
X198497384Y-92358457D01*
X198497384Y-92358457D02*
X197686723Y-92361696D01*
X197686723Y-92361696D02*
X196825163Y-92364698D01*
X196825163Y-92364698D02*
X195917312Y-92367464D01*
X195917312Y-92367464D02*
X194967780Y-92369990D01*
X194967780Y-92369990D02*
X193981175Y-92372276D01*
X193981175Y-92372276D02*
X192962107Y-92374319D01*
X192962107Y-92374319D02*
X191915184Y-92376117D01*
X191915184Y-92376117D02*
X190845016Y-92377670D01*
X190845016Y-92377670D02*
X189756212Y-92378975D01*
X189756212Y-92378975D02*
X188653381Y-92380031D01*
X188653381Y-92380031D02*
X187541132Y-92380836D01*
X187541132Y-92380836D02*
X186424074Y-92381387D01*
X186424074Y-92381387D02*
X185306816Y-92381684D01*
X185306816Y-92381684D02*
X184193968Y-92381725D01*
X184193968Y-92381725D02*
X183090138Y-92381507D01*
X183090138Y-92381507D02*
X181999936Y-92381030D01*
X181999936Y-92381030D02*
X180927970Y-92380291D01*
X180927970Y-92380291D02*
X179878849Y-92379289D01*
X179878849Y-92379289D02*
X178857184Y-92378022D01*
X178857184Y-92378022D02*
X177867582Y-92376488D01*
X177867582Y-92376488D02*
X176914654Y-92374685D01*
X176914654Y-92374685D02*
X176003007Y-92372613D01*
X176003007Y-92372613D02*
X175137252Y-92370268D01*
X175137252Y-92370268D02*
X174321996Y-92367650D01*
X174321996Y-92367650D02*
X173561850Y-92364756D01*
X173561850Y-92364756D02*
X172861423Y-92361585D01*
X172861423Y-92361585D02*
X172225323Y-92358135D01*
X172225323Y-92358135D02*
X171658159Y-92354405D01*
X171658159Y-92354405D02*
X171164541Y-92350392D01*
X171164541Y-92350392D02*
X170749078Y-92346095D01*
X170749078Y-92346095D02*
X170416379Y-92341512D01*
X170416379Y-92341512D02*
X170171052Y-92336642D01*
X170171052Y-92336642D02*
X170017708Y-92331482D01*
X170017708Y-92331482D02*
X169960955Y-92326032D01*
X169960955Y-92326032D02*
X169960778Y-92325841D01*
X169960778Y-92325841D02*
X169969390Y-92266119D01*
X169969390Y-92266119D02*
X169995880Y-92249337D01*
X169995880Y-92249337D02*
X170051328Y-92247389D01*
X170051328Y-92247389D02*
X170204564Y-92245559D01*
X170204564Y-92245559D02*
X170451778Y-92243851D01*
X170451778Y-92243851D02*
X170789158Y-92242267D01*
X170789158Y-92242267D02*
X171212893Y-92240811D01*
X171212893Y-92240811D02*
X171719172Y-92239485D01*
X171719172Y-92239485D02*
X172304183Y-92238292D01*
X172304183Y-92238292D02*
X172964115Y-92237235D01*
X172964115Y-92237235D02*
X173695157Y-92236317D01*
X173695157Y-92236317D02*
X174493497Y-92235540D01*
X174493497Y-92235540D02*
X175355325Y-92234908D01*
X175355325Y-92234908D02*
X176276828Y-92234423D01*
X176276828Y-92234423D02*
X177254197Y-92234089D01*
X177254197Y-92234089D02*
X178283619Y-92233907D01*
X178283619Y-92233907D02*
X179361283Y-92233882D01*
X179361283Y-92233882D02*
X180483378Y-92234015D01*
X180483378Y-92234015D02*
X180483378Y-92234015D01*
G36*
X180483378Y-92234015D02*
G01*
X181646092Y-92234311D01*
X182845615Y-92234770D01*
X184078135Y-92235398D01*
X185339841Y-92236195D01*
X186415966Y-92236996D01*
X187998754Y-92238324D01*
X189482737Y-92239720D01*
X190870711Y-92241196D01*
X192165471Y-92242765D01*
X193369812Y-92244441D01*
X194486530Y-92246237D01*
X195518420Y-92248166D01*
X196468277Y-92250241D01*
X197338897Y-92252474D01*
X198133075Y-92254880D01*
X198853607Y-92257471D01*
X199503287Y-92260259D01*
X200084912Y-92263259D01*
X200601276Y-92266483D01*
X201055175Y-92269944D01*
X201449404Y-92273656D01*
X201786759Y-92277631D01*
X202070034Y-92281882D01*
X202302026Y-92286423D01*
X202485529Y-92291267D01*
X202623339Y-92296426D01*
X202718251Y-92301914D01*
X202773061Y-92307743D01*
X202790500Y-92313500D01*
X202742337Y-92318998D01*
X202597184Y-92324279D01*
X202359649Y-92329339D01*
X202034341Y-92334178D01*
X201625871Y-92338793D01*
X201138846Y-92343183D01*
X200577875Y-92347347D01*
X199947569Y-92351281D01*
X199252535Y-92354985D01*
X198497384Y-92358457D01*
X197686723Y-92361696D01*
X196825163Y-92364698D01*
X195917312Y-92367464D01*
X194967780Y-92369990D01*
X193981175Y-92372276D01*
X192962107Y-92374319D01*
X191915184Y-92376117D01*
X190845016Y-92377670D01*
X189756212Y-92378975D01*
X188653381Y-92380031D01*
X187541132Y-92380836D01*
X186424074Y-92381387D01*
X185306816Y-92381684D01*
X184193968Y-92381725D01*
X183090138Y-92381507D01*
X181999936Y-92381030D01*
X180927970Y-92380291D01*
X179878849Y-92379289D01*
X178857184Y-92378022D01*
X177867582Y-92376488D01*
X176914654Y-92374685D01*
X176003007Y-92372613D01*
X175137252Y-92370268D01*
X174321996Y-92367650D01*
X173561850Y-92364756D01*
X172861423Y-92361585D01*
X172225323Y-92358135D01*
X171658159Y-92354405D01*
X171164541Y-92350392D01*
X170749078Y-92346095D01*
X170416379Y-92341512D01*
X170171052Y-92336642D01*
X170017708Y-92331482D01*
X169960955Y-92326032D01*
X169960778Y-92325841D01*
X169969390Y-92266119D01*
X169995880Y-92249337D01*
X170051328Y-92247389D01*
X170204564Y-92245559D01*
X170451778Y-92243851D01*
X170789158Y-92242267D01*
X171212893Y-92240811D01*
X171719172Y-92239485D01*
X172304183Y-92238292D01*
X172964115Y-92237235D01*
X173695157Y-92236317D01*
X174493497Y-92235540D01*
X175355325Y-92234908D01*
X176276828Y-92234423D01*
X177254197Y-92234089D01*
X178283619Y-92233907D01*
X179361283Y-92233882D01*
X180483378Y-92234015D01*
G37*
X180483378Y-92234015D02*
X181646092Y-92234311D01*
X182845615Y-92234770D01*
X184078135Y-92235398D01*
X185339841Y-92236195D01*
X186415966Y-92236996D01*
X187998754Y-92238324D01*
X189482737Y-92239720D01*
X190870711Y-92241196D01*
X192165471Y-92242765D01*
X193369812Y-92244441D01*
X194486530Y-92246237D01*
X195518420Y-92248166D01*
X196468277Y-92250241D01*
X197338897Y-92252474D01*
X198133075Y-92254880D01*
X198853607Y-92257471D01*
X199503287Y-92260259D01*
X200084912Y-92263259D01*
X200601276Y-92266483D01*
X201055175Y-92269944D01*
X201449404Y-92273656D01*
X201786759Y-92277631D01*
X202070034Y-92281882D01*
X202302026Y-92286423D01*
X202485529Y-92291267D01*
X202623339Y-92296426D01*
X202718251Y-92301914D01*
X202773061Y-92307743D01*
X202790500Y-92313500D01*
X202742337Y-92318998D01*
X202597184Y-92324279D01*
X202359649Y-92329339D01*
X202034341Y-92334178D01*
X201625871Y-92338793D01*
X201138846Y-92343183D01*
X200577875Y-92347347D01*
X199947569Y-92351281D01*
X199252535Y-92354985D01*
X198497384Y-92358457D01*
X197686723Y-92361696D01*
X196825163Y-92364698D01*
X195917312Y-92367464D01*
X194967780Y-92369990D01*
X193981175Y-92372276D01*
X192962107Y-92374319D01*
X191915184Y-92376117D01*
X190845016Y-92377670D01*
X189756212Y-92378975D01*
X188653381Y-92380031D01*
X187541132Y-92380836D01*
X186424074Y-92381387D01*
X185306816Y-92381684D01*
X184193968Y-92381725D01*
X183090138Y-92381507D01*
X181999936Y-92381030D01*
X180927970Y-92380291D01*
X179878849Y-92379289D01*
X178857184Y-92378022D01*
X177867582Y-92376488D01*
X176914654Y-92374685D01*
X176003007Y-92372613D01*
X175137252Y-92370268D01*
X174321996Y-92367650D01*
X173561850Y-92364756D01*
X172861423Y-92361585D01*
X172225323Y-92358135D01*
X171658159Y-92354405D01*
X171164541Y-92350392D01*
X170749078Y-92346095D01*
X170416379Y-92341512D01*
X170171052Y-92336642D01*
X170017708Y-92331482D01*
X169960955Y-92326032D01*
X169960778Y-92325841D01*
X169969390Y-92266119D01*
X169995880Y-92249337D01*
X170051328Y-92247389D01*
X170204564Y-92245559D01*
X170451778Y-92243851D01*
X170789158Y-92242267D01*
X171212893Y-92240811D01*
X171719172Y-92239485D01*
X172304183Y-92238292D01*
X172964115Y-92237235D01*
X173695157Y-92236317D01*
X174493497Y-92235540D01*
X175355325Y-92234908D01*
X176276828Y-92234423D01*
X177254197Y-92234089D01*
X178283619Y-92233907D01*
X179361283Y-92233882D01*
X180483378Y-92234015D01*
X177805144Y-84962807D02*
X177978931Y-84969854D01*
X177978931Y-84969854D02*
X178087904Y-84980174D01*
X178087904Y-84980174D02*
X178114400Y-84989254D01*
X178114400Y-84989254D02*
X178090327Y-85048726D01*
X178090327Y-85048726D02*
X178030583Y-85160865D01*
X178030583Y-85160865D02*
X177953881Y-85293718D01*
X177953881Y-85293718D02*
X177878931Y-85415333D01*
X177878931Y-85415333D02*
X177824446Y-85493761D01*
X177824446Y-85493761D02*
X177811483Y-85506501D01*
X177811483Y-85506501D02*
X177754069Y-85539079D01*
X177754069Y-85539079D02*
X177646756Y-85603244D01*
X177646756Y-85603244D02*
X177619686Y-85619698D01*
X177619686Y-85619698D02*
X177514675Y-85693219D01*
X177514675Y-85693219D02*
X177484130Y-85756281D01*
X177484130Y-85756281D02*
X177510509Y-85841444D01*
X177510509Y-85841444D02*
X177535370Y-85931159D01*
X177535370Y-85931159D02*
X177513517Y-86025226D01*
X177513517Y-86025226D02*
X177436047Y-86158963D01*
X177436047Y-86158963D02*
X177426972Y-86172747D01*
X177426972Y-86172747D02*
X177288098Y-86382600D01*
X177288098Y-86382600D02*
X176951949Y-86381003D01*
X176951949Y-86381003D02*
X176764459Y-86375649D01*
X176764459Y-86375649D02*
X176648790Y-86356046D01*
X176648790Y-86356046D02*
X176575317Y-86313563D01*
X176575317Y-86313563D02*
X176526900Y-86257147D01*
X176526900Y-86257147D02*
X176462782Y-86153779D01*
X176462782Y-86153779D02*
X176438000Y-86085734D01*
X176438000Y-86085734D02*
X176462176Y-86025022D01*
X176462176Y-86025022D02*
X176502305Y-85946209D01*
X176502305Y-85946209D02*
X176868851Y-85946209D01*
X176868851Y-85946209D02*
X176910837Y-85972584D01*
X176910837Y-85972584D02*
X176995012Y-85976200D01*
X176995012Y-85976200D02*
X177102863Y-85967950D01*
X177102863Y-85967950D02*
X177149168Y-85948046D01*
X177149168Y-85948046D02*
X177149200Y-85947460D01*
X177149200Y-85947460D02*
X177127851Y-85884613D01*
X177127851Y-85884613D02*
X177095851Y-85819037D01*
X177095851Y-85819037D02*
X177030733Y-85750440D01*
X177030733Y-85750440D02*
X176958875Y-85780659D01*
X176958875Y-85780659D02*
X176893685Y-85877429D01*
X176893685Y-85877429D02*
X176868851Y-85946209D01*
X176868851Y-85946209D02*
X176502305Y-85946209D01*
X176502305Y-85946209D02*
X176528064Y-85895619D01*
X176528064Y-85895619D02*
X176625701Y-85716314D01*
X176625701Y-85716314D02*
X176715475Y-85558132D01*
X176715475Y-85558132D02*
X177087002Y-85558132D01*
X177087002Y-85558132D02*
X177089304Y-85579649D01*
X177089304Y-85579649D02*
X177156784Y-85559931D01*
X177156784Y-85559931D02*
X177266971Y-85509134D01*
X177266971Y-85509134D02*
X177397397Y-85437409D01*
X177397397Y-85437409D02*
X177504800Y-85369342D01*
X177504800Y-85369342D02*
X177526200Y-85337677D01*
X177526200Y-85337677D02*
X177465589Y-85321131D01*
X177465589Y-85321131D02*
X177334264Y-85316577D01*
X177334264Y-85316577D02*
X177187183Y-85321304D01*
X177187183Y-85321304D02*
X177120920Y-85341903D01*
X177120920Y-85341903D02*
X177115017Y-85386163D01*
X177115017Y-85386163D02*
X177119241Y-85398438D01*
X177119241Y-85398438D02*
X177116476Y-85503362D01*
X177116476Y-85503362D02*
X177087002Y-85558132D01*
X177087002Y-85558132D02*
X176715475Y-85558132D01*
X176715475Y-85558132D02*
X176745123Y-85505893D01*
X176745123Y-85505893D02*
X176749463Y-85498390D01*
X176749463Y-85498390D02*
X177060926Y-84960200D01*
X177060926Y-84960200D02*
X177587663Y-84960200D01*
X177587663Y-84960200D02*
X177805144Y-84962807D01*
X177805144Y-84962807D02*
X177805144Y-84962807D01*
G36*
X176625701Y-85716314D02*
G01*
X176715475Y-85558132D01*
X177087002Y-85558132D01*
X177089304Y-85579649D01*
X177156784Y-85559931D01*
X177266971Y-85509134D01*
X177397397Y-85437409D01*
X177504800Y-85369342D01*
X177526200Y-85337677D01*
X177465589Y-85321131D01*
X177334264Y-85316577D01*
X177187183Y-85321304D01*
X177120920Y-85341903D01*
X177115017Y-85386163D01*
X177119241Y-85398438D01*
X177116476Y-85503362D01*
X177087002Y-85558132D01*
X176715475Y-85558132D01*
X176745123Y-85505893D01*
X176749463Y-85498390D01*
X177060926Y-84960200D01*
X177587663Y-84960200D01*
X177805144Y-84962807D01*
X177978931Y-84969854D01*
X178087904Y-84980174D01*
X178114400Y-84989254D01*
X178090327Y-85048726D01*
X178030583Y-85160865D01*
X177953881Y-85293718D01*
X177878931Y-85415333D01*
X177824446Y-85493761D01*
X177811483Y-85506501D01*
X177754069Y-85539079D01*
X177646756Y-85603244D01*
X177619686Y-85619698D01*
X177514675Y-85693219D01*
X177484130Y-85756281D01*
X177510509Y-85841444D01*
X177535370Y-85931159D01*
X177513517Y-86025226D01*
X177436047Y-86158963D01*
X177426972Y-86172747D01*
X177288098Y-86382600D01*
X176951949Y-86381003D01*
X176764459Y-86375649D01*
X176648790Y-86356046D01*
X176575317Y-86313563D01*
X176526900Y-86257147D01*
X176462782Y-86153779D01*
X176438000Y-86085734D01*
X176462176Y-86025022D01*
X176502305Y-85946209D01*
X176868851Y-85946209D01*
X176910837Y-85972584D01*
X176995012Y-85976200D01*
X177102863Y-85967950D01*
X177149168Y-85948046D01*
X177149200Y-85947460D01*
X177127851Y-85884613D01*
X177095851Y-85819037D01*
X177030733Y-85750440D01*
X176958875Y-85780659D01*
X176893685Y-85877429D01*
X176868851Y-85946209D01*
X176502305Y-85946209D01*
X176528064Y-85895619D01*
X176625701Y-85716314D01*
G37*
X176625701Y-85716314D02*
X176715475Y-85558132D01*
X177087002Y-85558132D01*
X177089304Y-85579649D01*
X177156784Y-85559931D01*
X177266971Y-85509134D01*
X177397397Y-85437409D01*
X177504800Y-85369342D01*
X177526200Y-85337677D01*
X177465589Y-85321131D01*
X177334264Y-85316577D01*
X177187183Y-85321304D01*
X177120920Y-85341903D01*
X177115017Y-85386163D01*
X177119241Y-85398438D01*
X177116476Y-85503362D01*
X177087002Y-85558132D01*
X176715475Y-85558132D01*
X176745123Y-85505893D01*
X176749463Y-85498390D01*
X177060926Y-84960200D01*
X177587663Y-84960200D01*
X177805144Y-84962807D01*
X177978931Y-84969854D01*
X178087904Y-84980174D01*
X178114400Y-84989254D01*
X178090327Y-85048726D01*
X178030583Y-85160865D01*
X177953881Y-85293718D01*
X177878931Y-85415333D01*
X177824446Y-85493761D01*
X177811483Y-85506501D01*
X177754069Y-85539079D01*
X177646756Y-85603244D01*
X177619686Y-85619698D01*
X177514675Y-85693219D01*
X177484130Y-85756281D01*
X177510509Y-85841444D01*
X177535370Y-85931159D01*
X177513517Y-86025226D01*
X177436047Y-86158963D01*
X177426972Y-86172747D01*
X177288098Y-86382600D01*
X176951949Y-86381003D01*
X176764459Y-86375649D01*
X176648790Y-86356046D01*
X176575317Y-86313563D01*
X176526900Y-86257147D01*
X176462782Y-86153779D01*
X176438000Y-86085734D01*
X176462176Y-86025022D01*
X176502305Y-85946209D01*
X176868851Y-85946209D01*
X176910837Y-85972584D01*
X176995012Y-85976200D01*
X177102863Y-85967950D01*
X177149168Y-85948046D01*
X177149200Y-85947460D01*
X177127851Y-85884613D01*
X177095851Y-85819037D01*
X177030733Y-85750440D01*
X176958875Y-85780659D01*
X176893685Y-85877429D01*
X176868851Y-85946209D01*
X176502305Y-85946209D01*
X176528064Y-85895619D01*
X176625701Y-85716314D01*
X194451150Y-87487500D02*
X194401150Y-87575548D01*
X194401150Y-87575548D02*
X194308422Y-87733307D01*
X194308422Y-87733307D02*
X194183112Y-87943728D01*
X194183112Y-87943728D02*
X194035365Y-88189763D01*
X194035365Y-88189763D02*
X193899449Y-88414600D01*
X193899449Y-88414600D02*
X193422006Y-89202000D01*
X193422006Y-89202000D02*
X192576731Y-89659200D01*
X192576731Y-89659200D02*
X192312234Y-89804568D01*
X192312234Y-89804568D02*
X192081447Y-89935812D01*
X192081447Y-89935812D02*
X191898258Y-90044671D01*
X191898258Y-90044671D02*
X191776552Y-90122884D01*
X191776552Y-90122884D02*
X191730217Y-90162190D01*
X191730217Y-90162190D02*
X191730128Y-90162837D01*
X191730128Y-90162837D02*
X191758939Y-90215541D01*
X191758939Y-90215541D02*
X191840253Y-90336636D01*
X191840253Y-90336636D02*
X191965162Y-90513574D01*
X191965162Y-90513574D02*
X192124760Y-90733806D01*
X192124760Y-90733806D02*
X192310138Y-90984784D01*
X192310138Y-90984784D02*
X192379214Y-91077237D01*
X192379214Y-91077237D02*
X192573995Y-91337724D01*
X192573995Y-91337724D02*
X192749117Y-91572972D01*
X192749117Y-91572972D02*
X192895015Y-91770049D01*
X192895015Y-91770049D02*
X193002125Y-91916021D01*
X193002125Y-91916021D02*
X193060885Y-91997957D01*
X193060885Y-91997957D02*
X193068012Y-92008700D01*
X193068012Y-92008700D02*
X193062670Y-92035698D01*
X193062670Y-92035698D02*
X193000331Y-92054198D01*
X193000331Y-92054198D02*
X192868932Y-92065435D01*
X192868932Y-92065435D02*
X192656411Y-92070642D01*
X192656411Y-92070642D02*
X192455698Y-92071364D01*
X192455698Y-92071364D02*
X191805000Y-92070529D01*
X191805000Y-92070529D02*
X191170000Y-91133863D01*
X191170000Y-91133863D02*
X190984897Y-90862765D01*
X190984897Y-90862765D02*
X190818159Y-90622249D01*
X190818159Y-90622249D02*
X190678330Y-90424340D01*
X190678330Y-90424340D02*
X190573957Y-90281068D01*
X190573957Y-90281068D02*
X190513586Y-90204458D01*
X190513586Y-90204458D02*
X190502812Y-90194898D01*
X190502812Y-90194898D02*
X190468841Y-90236070D01*
X190468841Y-90236070D02*
X190391961Y-90352529D01*
X190391961Y-90352529D02*
X190280060Y-90531573D01*
X190280060Y-90531573D02*
X190141026Y-90760500D01*
X190141026Y-90760500D02*
X189982749Y-91026606D01*
X189982749Y-91026606D02*
X189920622Y-91132400D01*
X189920622Y-91132400D02*
X189757446Y-91409062D01*
X189757446Y-91409062D02*
X189610958Y-91653330D01*
X189610958Y-91653330D02*
X189488977Y-91852498D01*
X189488977Y-91852498D02*
X189399321Y-91993863D01*
X189399321Y-91993863D02*
X189349811Y-92064722D01*
X189349811Y-92064722D02*
X189343210Y-92070525D01*
X189343210Y-92070525D02*
X189303465Y-92031538D01*
X189303465Y-92031538D02*
X189218151Y-91927733D01*
X189218151Y-91927733D02*
X189101275Y-91776594D01*
X189101275Y-91776594D02*
X189011000Y-91655818D01*
X189011000Y-91655818D02*
X188880938Y-91477740D01*
X188880938Y-91477740D02*
X188774932Y-91329155D01*
X188774932Y-91329155D02*
X188706785Y-91229606D01*
X188706785Y-91229606D02*
X188689269Y-91200300D01*
X188689269Y-91200300D02*
X188710820Y-91150254D01*
X188710820Y-91150254D02*
X188777715Y-91023799D01*
X188777715Y-91023799D02*
X188883557Y-90831964D01*
X188883557Y-90831964D02*
X189021948Y-90585778D01*
X189021948Y-90585778D02*
X189186490Y-90296269D01*
X189186490Y-90296269D02*
X189370785Y-89974466D01*
X189370785Y-89974466D02*
X189568436Y-89631398D01*
X189568436Y-89631398D02*
X189773044Y-89278093D01*
X189773044Y-89278093D02*
X189978213Y-88925579D01*
X189978213Y-88925579D02*
X190177543Y-88584887D01*
X190177543Y-88584887D02*
X190364637Y-88267044D01*
X190364637Y-88267044D02*
X190533098Y-87983079D01*
X190533098Y-87983079D02*
X190676527Y-87744020D01*
X190676527Y-87744020D02*
X190788527Y-87560897D01*
X190788527Y-87560897D02*
X190862700Y-87444737D01*
X190862700Y-87444737D02*
X190888282Y-87409608D01*
X190888282Y-87409608D02*
X190950286Y-87379494D01*
X190950286Y-87379494D02*
X191077070Y-87361791D01*
X191077070Y-87361791D02*
X191281193Y-87355520D01*
X191281193Y-87355520D02*
X191539990Y-87358808D01*
X191539990Y-87358808D02*
X192131569Y-87373200D01*
X192131569Y-87373200D02*
X191788752Y-87957400D01*
X191788752Y-87957400D02*
X191445936Y-88541600D01*
X191445936Y-88541600D02*
X190863166Y-88592400D01*
X190863166Y-88592400D02*
X190991183Y-88780204D01*
X190991183Y-88780204D02*
X191077581Y-88917640D01*
X191077581Y-88917640D02*
X191109627Y-89021690D01*
X191109627Y-89021690D02*
X191087083Y-89129468D01*
X191087083Y-89129468D02*
X191009707Y-89278088D01*
X191009707Y-89278088D02*
X190987721Y-89315824D01*
X190987721Y-89315824D02*
X190916338Y-89445664D01*
X190916338Y-89445664D02*
X190876459Y-89534290D01*
X190876459Y-89534290D02*
X190873421Y-89556303D01*
X190873421Y-89556303D02*
X190921213Y-89538334D01*
X190921213Y-89538334D02*
X191043286Y-89478529D01*
X191043286Y-89478529D02*
X191225107Y-89384394D01*
X191225107Y-89384394D02*
X191452145Y-89263438D01*
X191452145Y-89263438D02*
X191678000Y-89140661D01*
X191678000Y-89140661D02*
X192465400Y-88708892D01*
X192465400Y-88708892D02*
X192870667Y-88028346D01*
X192870667Y-88028346D02*
X193275935Y-87347800D01*
X193275935Y-87347800D02*
X194525409Y-87347800D01*
X194525409Y-87347800D02*
X194451150Y-87487500D01*
X194451150Y-87487500D02*
X194451150Y-87487500D01*
G36*
X194451150Y-87487500D02*
G01*
X194401150Y-87575548D01*
X194308422Y-87733307D01*
X194183112Y-87943728D01*
X194035365Y-88189763D01*
X193899449Y-88414600D01*
X193422006Y-89202000D01*
X192576731Y-89659200D01*
X192312234Y-89804568D01*
X192081447Y-89935812D01*
X191898258Y-90044671D01*
X191776552Y-90122884D01*
X191730217Y-90162190D01*
X191730128Y-90162837D01*
X191758939Y-90215541D01*
X191840253Y-90336636D01*
X191965162Y-90513574D01*
X192124760Y-90733806D01*
X192310138Y-90984784D01*
X192379214Y-91077237D01*
X192573995Y-91337724D01*
X192749117Y-91572972D01*
X192895015Y-91770049D01*
X193002125Y-91916021D01*
X193060885Y-91997957D01*
X193068012Y-92008700D01*
X193062670Y-92035698D01*
X193000331Y-92054198D01*
X192868932Y-92065435D01*
X192656411Y-92070642D01*
X192455698Y-92071364D01*
X191805000Y-92070529D01*
X191170000Y-91133863D01*
X190984897Y-90862765D01*
X190818159Y-90622249D01*
X190678330Y-90424340D01*
X190573957Y-90281068D01*
X190513586Y-90204458D01*
X190502812Y-90194898D01*
X190468841Y-90236070D01*
X190391961Y-90352529D01*
X190280060Y-90531573D01*
X190141026Y-90760500D01*
X189982749Y-91026606D01*
X189920622Y-91132400D01*
X189757446Y-91409062D01*
X189610958Y-91653330D01*
X189488977Y-91852498D01*
X189399321Y-91993863D01*
X189349811Y-92064722D01*
X189343210Y-92070525D01*
X189303465Y-92031538D01*
X189218151Y-91927733D01*
X189101275Y-91776594D01*
X189011000Y-91655818D01*
X188880938Y-91477740D01*
X188774932Y-91329155D01*
X188706785Y-91229606D01*
X188689269Y-91200300D01*
X188710820Y-91150254D01*
X188777715Y-91023799D01*
X188883557Y-90831964D01*
X189021948Y-90585778D01*
X189186490Y-90296269D01*
X189370785Y-89974466D01*
X189568436Y-89631398D01*
X189773044Y-89278093D01*
X189978213Y-88925579D01*
X190177543Y-88584887D01*
X190364637Y-88267044D01*
X190533098Y-87983079D01*
X190676527Y-87744020D01*
X190788527Y-87560897D01*
X190862700Y-87444737D01*
X190888282Y-87409608D01*
X190950286Y-87379494D01*
X191077070Y-87361791D01*
X191281193Y-87355520D01*
X191539990Y-87358808D01*
X192131569Y-87373200D01*
X191788752Y-87957400D01*
X191445936Y-88541600D01*
X190863166Y-88592400D01*
X190991183Y-88780204D01*
X191077581Y-88917640D01*
X191109627Y-89021690D01*
X191087083Y-89129468D01*
X191009707Y-89278088D01*
X190987721Y-89315824D01*
X190916338Y-89445664D01*
X190876459Y-89534290D01*
X190873421Y-89556303D01*
X190921213Y-89538334D01*
X191043286Y-89478529D01*
X191225107Y-89384394D01*
X191452145Y-89263438D01*
X191678000Y-89140661D01*
X192465400Y-88708892D01*
X192870667Y-88028346D01*
X193275935Y-87347800D01*
X194525409Y-87347800D01*
X194451150Y-87487500D01*
G37*
X194451150Y-87487500D02*
X194401150Y-87575548D01*
X194308422Y-87733307D01*
X194183112Y-87943728D01*
X194035365Y-88189763D01*
X193899449Y-88414600D01*
X193422006Y-89202000D01*
X192576731Y-89659200D01*
X192312234Y-89804568D01*
X192081447Y-89935812D01*
X191898258Y-90044671D01*
X191776552Y-90122884D01*
X191730217Y-90162190D01*
X191730128Y-90162837D01*
X191758939Y-90215541D01*
X191840253Y-90336636D01*
X191965162Y-90513574D01*
X192124760Y-90733806D01*
X192310138Y-90984784D01*
X192379214Y-91077237D01*
X192573995Y-91337724D01*
X192749117Y-91572972D01*
X192895015Y-91770049D01*
X193002125Y-91916021D01*
X193060885Y-91997957D01*
X193068012Y-92008700D01*
X193062670Y-92035698D01*
X193000331Y-92054198D01*
X192868932Y-92065435D01*
X192656411Y-92070642D01*
X192455698Y-92071364D01*
X191805000Y-92070529D01*
X191170000Y-91133863D01*
X190984897Y-90862765D01*
X190818159Y-90622249D01*
X190678330Y-90424340D01*
X190573957Y-90281068D01*
X190513586Y-90204458D01*
X190502812Y-90194898D01*
X190468841Y-90236070D01*
X190391961Y-90352529D01*
X190280060Y-90531573D01*
X190141026Y-90760500D01*
X189982749Y-91026606D01*
X189920622Y-91132400D01*
X189757446Y-91409062D01*
X189610958Y-91653330D01*
X189488977Y-91852498D01*
X189399321Y-91993863D01*
X189349811Y-92064722D01*
X189343210Y-92070525D01*
X189303465Y-92031538D01*
X189218151Y-91927733D01*
X189101275Y-91776594D01*
X189011000Y-91655818D01*
X188880938Y-91477740D01*
X188774932Y-91329155D01*
X188706785Y-91229606D01*
X188689269Y-91200300D01*
X188710820Y-91150254D01*
X188777715Y-91023799D01*
X188883557Y-90831964D01*
X189021948Y-90585778D01*
X189186490Y-90296269D01*
X189370785Y-89974466D01*
X189568436Y-89631398D01*
X189773044Y-89278093D01*
X189978213Y-88925579D01*
X190177543Y-88584887D01*
X190364637Y-88267044D01*
X190533098Y-87983079D01*
X190676527Y-87744020D01*
X190788527Y-87560897D01*
X190862700Y-87444737D01*
X190888282Y-87409608D01*
X190950286Y-87379494D01*
X191077070Y-87361791D01*
X191281193Y-87355520D01*
X191539990Y-87358808D01*
X192131569Y-87373200D01*
X191788752Y-87957400D01*
X191445936Y-88541600D01*
X190863166Y-88592400D01*
X190991183Y-88780204D01*
X191077581Y-88917640D01*
X191109627Y-89021690D01*
X191087083Y-89129468D01*
X191009707Y-89278088D01*
X190987721Y-89315824D01*
X190916338Y-89445664D01*
X190876459Y-89534290D01*
X190873421Y-89556303D01*
X190921213Y-89538334D01*
X191043286Y-89478529D01*
X191225107Y-89384394D01*
X191452145Y-89263438D01*
X191678000Y-89140661D01*
X192465400Y-88708892D01*
X192870667Y-88028346D01*
X193275935Y-87347800D01*
X194525409Y-87347800D01*
X194451150Y-87487500D01*
X190447810Y-87462100D02*
X190392451Y-87551478D01*
X190392451Y-87551478D02*
X190299346Y-87705142D01*
X190299346Y-87705142D02*
X190182471Y-87899924D01*
X190182471Y-87899924D02*
X190080108Y-88071700D01*
X190080108Y-88071700D02*
X189785882Y-88567000D01*
X189785882Y-88567000D02*
X186795339Y-88567000D01*
X186795339Y-88567000D02*
X187070049Y-89055698D01*
X187070049Y-89055698D02*
X186554624Y-89930975D01*
X186554624Y-89930975D02*
X186397636Y-90198638D01*
X186397636Y-90198638D02*
X186259920Y-90435490D01*
X186259920Y-90435490D02*
X186149242Y-90628002D01*
X186149242Y-90628002D02*
X186073371Y-90762647D01*
X186073371Y-90762647D02*
X186040073Y-90825897D01*
X186040073Y-90825897D02*
X186039200Y-90828690D01*
X186039200Y-90828690D02*
X186087634Y-90835638D01*
X186087634Y-90835638D02*
X186223484Y-90842900D01*
X186223484Y-90842900D02*
X186432565Y-90850039D01*
X186432565Y-90850039D02*
X186700695Y-90856616D01*
X186700695Y-90856616D02*
X187013692Y-90862193D01*
X187013692Y-90862193D02*
X187207284Y-90864763D01*
X187207284Y-90864763D02*
X188375368Y-90878400D01*
X188375368Y-90878400D02*
X187659350Y-92072200D01*
X187659350Y-92072200D02*
X185251800Y-92067932D01*
X185251800Y-92067932D02*
X184928278Y-91631519D01*
X184928278Y-91631519D02*
X184785616Y-91436900D01*
X184785616Y-91436900D02*
X184695856Y-91304080D01*
X184695856Y-91304080D02*
X184650566Y-91213862D01*
X184650566Y-91213862D02*
X184641312Y-91147047D01*
X184641312Y-91147047D02*
X184659660Y-91084438D01*
X184659660Y-91084438D02*
X184674278Y-91053331D01*
X184674278Y-91053331D02*
X184714623Y-90979347D01*
X184714623Y-90979347D02*
X184800475Y-90827931D01*
X184800475Y-90827931D02*
X184925935Y-90609289D01*
X184925935Y-90609289D02*
X185085107Y-90333624D01*
X185085107Y-90333624D02*
X185272093Y-90011144D01*
X185272093Y-90011144D02*
X185480995Y-89652052D01*
X185480995Y-89652052D02*
X185705918Y-89266554D01*
X185705918Y-89266554D02*
X185785200Y-89130928D01*
X185785200Y-89130928D02*
X186826600Y-87350301D01*
X186826600Y-87350301D02*
X188673942Y-87349050D01*
X188673942Y-87349050D02*
X190521285Y-87347800D01*
X190521285Y-87347800D02*
X190447810Y-87462100D01*
X190447810Y-87462100D02*
X190447810Y-87462100D01*
G36*
X190447810Y-87462100D02*
G01*
X190392451Y-87551478D01*
X190299346Y-87705142D01*
X190182471Y-87899924D01*
X190080108Y-88071700D01*
X189785882Y-88567000D01*
X186795339Y-88567000D01*
X187070049Y-89055698D01*
X186554624Y-89930975D01*
X186397636Y-90198638D01*
X186259920Y-90435490D01*
X186149242Y-90628002D01*
X186073371Y-90762647D01*
X186040073Y-90825897D01*
X186039200Y-90828690D01*
X186087634Y-90835638D01*
X186223484Y-90842900D01*
X186432565Y-90850039D01*
X186700695Y-90856616D01*
X187013692Y-90862193D01*
X187207284Y-90864763D01*
X188375368Y-90878400D01*
X187659350Y-92072200D01*
X185251800Y-92067932D01*
X184928278Y-91631519D01*
X184785616Y-91436900D01*
X184695856Y-91304080D01*
X184650566Y-91213862D01*
X184641312Y-91147047D01*
X184659660Y-91084438D01*
X184674278Y-91053331D01*
X184714623Y-90979347D01*
X184800475Y-90827931D01*
X184925935Y-90609289D01*
X185085107Y-90333624D01*
X185272093Y-90011144D01*
X185480995Y-89652052D01*
X185705918Y-89266554D01*
X185785200Y-89130928D01*
X186826600Y-87350301D01*
X188673942Y-87349050D01*
X190521285Y-87347800D01*
X190447810Y-87462100D01*
G37*
X190447810Y-87462100D02*
X190392451Y-87551478D01*
X190299346Y-87705142D01*
X190182471Y-87899924D01*
X190080108Y-88071700D01*
X189785882Y-88567000D01*
X186795339Y-88567000D01*
X187070049Y-89055698D01*
X186554624Y-89930975D01*
X186397636Y-90198638D01*
X186259920Y-90435490D01*
X186149242Y-90628002D01*
X186073371Y-90762647D01*
X186040073Y-90825897D01*
X186039200Y-90828690D01*
X186087634Y-90835638D01*
X186223484Y-90842900D01*
X186432565Y-90850039D01*
X186700695Y-90856616D01*
X187013692Y-90862193D01*
X187207284Y-90864763D01*
X188375368Y-90878400D01*
X187659350Y-92072200D01*
X185251800Y-92067932D01*
X184928278Y-91631519D01*
X184785616Y-91436900D01*
X184695856Y-91304080D01*
X184650566Y-91213862D01*
X184641312Y-91147047D01*
X184659660Y-91084438D01*
X184674278Y-91053331D01*
X184714623Y-90979347D01*
X184800475Y-90827931D01*
X184925935Y-90609289D01*
X185085107Y-90333624D01*
X185272093Y-90011144D01*
X185480995Y-89652052D01*
X185705918Y-89266554D01*
X185785200Y-89130928D01*
X186826600Y-87350301D01*
X188673942Y-87349050D01*
X190521285Y-87347800D01*
X190447810Y-87462100D01*
X178716676Y-84813563D02*
X178773634Y-84827696D01*
X178773634Y-84827696D02*
X178774800Y-84830296D01*
X178774800Y-84830296D02*
X178751370Y-84884037D01*
X178751370Y-84884037D02*
X178692775Y-84991206D01*
X178692775Y-84991206D02*
X178668182Y-85033496D01*
X178668182Y-85033496D02*
X178584824Y-85152115D01*
X178584824Y-85152115D02*
X178494612Y-85203447D01*
X178494612Y-85203447D02*
X178360384Y-85214200D01*
X178360384Y-85214200D02*
X178230508Y-85204972D01*
X178230508Y-85204972D02*
X178188611Y-85174146D01*
X178188611Y-85174146D02*
X178195931Y-85150700D01*
X178195931Y-85150700D02*
X178311345Y-84968699D01*
X178311345Y-84968699D02*
X178410099Y-84863038D01*
X178410099Y-84863038D02*
X178513371Y-84815764D01*
X178513371Y-84815764D02*
X178600459Y-84807800D01*
X178600459Y-84807800D02*
X178716676Y-84813563D01*
X178716676Y-84813563D02*
X178716676Y-84813563D01*
G36*
X178716676Y-84813563D02*
G01*
X178773634Y-84827696D01*
X178774800Y-84830296D01*
X178751370Y-84884037D01*
X178692775Y-84991206D01*
X178668182Y-85033496D01*
X178584824Y-85152115D01*
X178494612Y-85203447D01*
X178360384Y-85214200D01*
X178230508Y-85204972D01*
X178188611Y-85174146D01*
X178195931Y-85150700D01*
X178311345Y-84968699D01*
X178410099Y-84863038D01*
X178513371Y-84815764D01*
X178600459Y-84807800D01*
X178716676Y-84813563D01*
G37*
X178716676Y-84813563D02*
X178773634Y-84827696D01*
X178774800Y-84830296D01*
X178751370Y-84884037D01*
X178692775Y-84991206D01*
X178668182Y-85033496D01*
X178584824Y-85152115D01*
X178494612Y-85203447D01*
X178360384Y-85214200D01*
X178230508Y-85204972D01*
X178188611Y-85174146D01*
X178195931Y-85150700D01*
X178311345Y-84968699D01*
X178410099Y-84863038D01*
X178513371Y-84815764D01*
X178600459Y-84807800D01*
X178716676Y-84813563D01*
X176859182Y-85125300D02*
X176806899Y-85207004D01*
X176806899Y-85207004D02*
X176749997Y-85257731D01*
X176749997Y-85257731D02*
X176663024Y-85286968D01*
X176663024Y-85286968D02*
X176520532Y-85304199D01*
X176520532Y-85304199D02*
X176348083Y-85315800D01*
X176348083Y-85315800D02*
X176131131Y-85333970D01*
X176131131Y-85333970D02*
X176006772Y-85357218D01*
X176006772Y-85357218D02*
X175966046Y-85387541D01*
X175966046Y-85387541D02*
X175969842Y-85400116D01*
X175969842Y-85400116D02*
X176043554Y-85449655D01*
X176043554Y-85449655D02*
X176146114Y-85476316D01*
X176146114Y-85476316D02*
X176285699Y-85493600D01*
X176285699Y-85493600D02*
X176184796Y-85658700D01*
X176184796Y-85658700D02*
X176100806Y-85769556D01*
X176100806Y-85769556D02*
X176002616Y-85815839D01*
X176002616Y-85815839D02*
X175881541Y-85823800D01*
X175881541Y-85823800D02*
X175751100Y-85832347D01*
X175751100Y-85832347D02*
X175703233Y-85863079D01*
X175703233Y-85863079D02*
X175707544Y-85897694D01*
X175707544Y-85897694D02*
X175773788Y-85948317D01*
X175773788Y-85948317D02*
X175930012Y-85978728D01*
X175930012Y-85978728D02*
X176037039Y-85986594D01*
X176037039Y-85986594D02*
X176338178Y-86001600D01*
X176338178Y-86001600D02*
X176208457Y-86192100D01*
X176208457Y-86192100D02*
X176129636Y-86298983D01*
X176129636Y-86298983D02*
X176056306Y-86355878D01*
X176056306Y-86355878D02*
X175953056Y-86378508D01*
X175953056Y-86378508D02*
X175784478Y-86382599D01*
X175784478Y-86382599D02*
X175779455Y-86382600D01*
X175779455Y-86382600D02*
X175603023Y-86376931D01*
X175603023Y-86376931D02*
X175493483Y-86352232D01*
X175493483Y-86352232D02*
X175416399Y-86296959D01*
X175416399Y-86296959D02*
X175373001Y-86246351D01*
X175373001Y-86246351D02*
X175307331Y-86134571D01*
X175307331Y-86134571D02*
X175291200Y-86045153D01*
X175291200Y-86045153D02*
X175292935Y-86039461D01*
X175292935Y-86039461D02*
X175329229Y-85969882D01*
X175329229Y-85969882D02*
X175407345Y-85834219D01*
X175407345Y-85834219D02*
X175515447Y-85652667D01*
X175515447Y-85652667D02*
X175629952Y-85464510D01*
X175629952Y-85464510D02*
X175939862Y-84960199D01*
X175939862Y-84960199D02*
X176955352Y-84960199D01*
X176955352Y-84960199D02*
X176859182Y-85125300D01*
X176859182Y-85125300D02*
X176859182Y-85125300D01*
G36*
X176859182Y-85125300D02*
G01*
X176806899Y-85207004D01*
X176749997Y-85257731D01*
X176663024Y-85286968D01*
X176520532Y-85304199D01*
X176348083Y-85315800D01*
X176131131Y-85333970D01*
X176006772Y-85357218D01*
X175966046Y-85387541D01*
X175969842Y-85400116D01*
X176043554Y-85449655D01*
X176146114Y-85476316D01*
X176285699Y-85493600D01*
X176184796Y-85658700D01*
X176100806Y-85769556D01*
X176002616Y-85815839D01*
X175881541Y-85823800D01*
X175751100Y-85832347D01*
X175703233Y-85863079D01*
X175707544Y-85897694D01*
X175773788Y-85948317D01*
X175930012Y-85978728D01*
X176037039Y-85986594D01*
X176338178Y-86001600D01*
X176208457Y-86192100D01*
X176129636Y-86298983D01*
X176056306Y-86355878D01*
X175953056Y-86378508D01*
X175784478Y-86382599D01*
X175779455Y-86382600D01*
X175603023Y-86376931D01*
X175493483Y-86352232D01*
X175416399Y-86296959D01*
X175373001Y-86246351D01*
X175307331Y-86134571D01*
X175291200Y-86045153D01*
X175292935Y-86039461D01*
X175329229Y-85969882D01*
X175407345Y-85834219D01*
X175515447Y-85652667D01*
X175629952Y-85464510D01*
X175939862Y-84960199D01*
X176955352Y-84960199D01*
X176859182Y-85125300D01*
G37*
X176859182Y-85125300D02*
X176806899Y-85207004D01*
X176749997Y-85257731D01*
X176663024Y-85286968D01*
X176520532Y-85304199D01*
X176348083Y-85315800D01*
X176131131Y-85333970D01*
X176006772Y-85357218D01*
X175966046Y-85387541D01*
X175969842Y-85400116D01*
X176043554Y-85449655D01*
X176146114Y-85476316D01*
X176285699Y-85493600D01*
X176184796Y-85658700D01*
X176100806Y-85769556D01*
X176002616Y-85815839D01*
X175881541Y-85823800D01*
X175751100Y-85832347D01*
X175703233Y-85863079D01*
X175707544Y-85897694D01*
X175773788Y-85948317D01*
X175930012Y-85978728D01*
X176037039Y-85986594D01*
X176338178Y-86001600D01*
X176208457Y-86192100D01*
X176129636Y-86298983D01*
X176056306Y-86355878D01*
X175953056Y-86378508D01*
X175784478Y-86382599D01*
X175779455Y-86382600D01*
X175603023Y-86376931D01*
X175493483Y-86352232D01*
X175416399Y-86296959D01*
X175373001Y-86246351D01*
X175307331Y-86134571D01*
X175291200Y-86045153D01*
X175292935Y-86039461D01*
X175329229Y-85969882D01*
X175407345Y-85834219D01*
X175515447Y-85652667D01*
X175629952Y-85464510D01*
X175939862Y-84960199D01*
X176955352Y-84960199D01*
X176859182Y-85125300D01*
X182162951Y-87563700D02*
X182075639Y-87712208D01*
X182075639Y-87712208D02*
X181959050Y-87910155D01*
X181959050Y-87910155D02*
X181835590Y-88119506D01*
X181835590Y-88119506D02*
X181811336Y-88160600D01*
X181811336Y-88160600D02*
X181586422Y-88541600D01*
X181586422Y-88541600D02*
X181323611Y-88556954D01*
X181323611Y-88556954D02*
X181152378Y-88577656D01*
X181152378Y-88577656D02*
X181074663Y-88622100D01*
X181074663Y-88622100D02*
X181083051Y-88702434D01*
X181083051Y-88702434D02*
X181162400Y-88821000D01*
X181162400Y-88821000D02*
X181233247Y-88932952D01*
X181233247Y-88932952D02*
X181262870Y-89021352D01*
X181262870Y-89021352D02*
X181238570Y-89078515D01*
X181238570Y-89078515D02*
X181169936Y-89209421D01*
X181169936Y-89209421D02*
X181064112Y-89401805D01*
X181064112Y-89401805D02*
X180928246Y-89643407D01*
X180928246Y-89643407D02*
X180769482Y-89921962D01*
X180769482Y-89921962D02*
X180594967Y-90225208D01*
X180594967Y-90225208D02*
X180411846Y-90540883D01*
X180411846Y-90540883D02*
X180227265Y-90856724D01*
X180227265Y-90856724D02*
X180048370Y-91160468D01*
X180048370Y-91160468D02*
X179882307Y-91439853D01*
X179882307Y-91439853D02*
X179736221Y-91682615D01*
X179736221Y-91682615D02*
X179617258Y-91876493D01*
X179617258Y-91876493D02*
X179532565Y-92009224D01*
X179532565Y-92009224D02*
X179489286Y-92068544D01*
X179489286Y-92068544D02*
X179486032Y-92070525D01*
X179486032Y-92070525D02*
X179448356Y-92031988D01*
X179448356Y-92031988D02*
X179367059Y-91931629D01*
X179367059Y-91931629D02*
X179257693Y-91790216D01*
X179257693Y-91790216D02*
X179135812Y-91628517D01*
X179135812Y-91628517D02*
X179016966Y-91467302D01*
X179016966Y-91467302D02*
X178916707Y-91327339D01*
X178916707Y-91327339D02*
X178850589Y-91229395D01*
X178850589Y-91229395D02*
X178833819Y-91199551D01*
X178833819Y-91199551D02*
X178854140Y-91146189D01*
X178854140Y-91146189D02*
X178920091Y-91017163D01*
X178920091Y-91017163D02*
X179025241Y-90824057D01*
X179025241Y-90824057D02*
X179163161Y-90578454D01*
X179163161Y-90578454D02*
X179327421Y-90291941D01*
X179327421Y-90291941D02*
X179511593Y-89976101D01*
X179511593Y-89976101D02*
X179533581Y-89938726D01*
X179533581Y-89938726D02*
X179722075Y-89617632D01*
X179722075Y-89617632D02*
X179894234Y-89322511D01*
X179894234Y-89322511D02*
X180043096Y-89065445D01*
X180043096Y-89065445D02*
X180161699Y-88858517D01*
X180161699Y-88858517D02*
X180243082Y-88713808D01*
X180243082Y-88713808D02*
X180280284Y-88643399D01*
X180280284Y-88643399D02*
X180281202Y-88641185D01*
X180281202Y-88641185D02*
X180284385Y-88595226D01*
X180284385Y-88595226D02*
X180234178Y-88574465D01*
X180234178Y-88574465D02*
X180110456Y-88573432D01*
X180110456Y-88573432D02*
X180044364Y-88576818D01*
X180044364Y-88576818D02*
X179776846Y-88592400D01*
X179776846Y-88592400D02*
X179070944Y-89786200D01*
X179070944Y-89786200D02*
X178883357Y-90103396D01*
X178883357Y-90103396D02*
X178711523Y-90393868D01*
X178711523Y-90393868D02*
X178562587Y-90645546D01*
X178562587Y-90645546D02*
X178443691Y-90846361D01*
X178443691Y-90846361D02*
X178361981Y-90984245D01*
X178361981Y-90984245D02*
X178324599Y-91047127D01*
X178324599Y-91047127D02*
X178324210Y-91047772D01*
X178324210Y-91047772D02*
X178283703Y-91051238D01*
X178283703Y-91051238D02*
X178204116Y-90982955D01*
X178204116Y-90982955D02*
X178080378Y-90837733D01*
X178080378Y-90837733D02*
X177941096Y-90655838D01*
X177941096Y-90655838D02*
X177598813Y-90196131D01*
X177598813Y-90196131D02*
X178059806Y-89411654D01*
X178059806Y-89411654D02*
X178207857Y-89158114D01*
X178207857Y-89158114D02*
X178336176Y-88935306D01*
X178336176Y-88935306D02*
X178436544Y-88757755D01*
X178436544Y-88757755D02*
X178500741Y-88639984D01*
X178500741Y-88639984D02*
X178520800Y-88597088D01*
X178520800Y-88597088D02*
X178473681Y-88584159D01*
X178473681Y-88584159D02*
X178347036Y-88574013D01*
X178347036Y-88574013D02*
X178162925Y-88568025D01*
X178162925Y-88568025D02*
X178038200Y-88567000D01*
X178038200Y-88567000D02*
X177830821Y-88569743D01*
X177830821Y-88569743D02*
X177668082Y-88577115D01*
X177668082Y-88577115D02*
X177572044Y-88587834D01*
X177572044Y-88587834D02*
X177555600Y-88595095D01*
X177555600Y-88595095D02*
X177581688Y-88650496D01*
X177581688Y-88650496D02*
X177647448Y-88757256D01*
X177647448Y-88757256D02*
X177682600Y-88810087D01*
X177682600Y-88810087D02*
X177759644Y-88930524D01*
X177759644Y-88930524D02*
X177804736Y-89014660D01*
X177804736Y-89014660D02*
X177809600Y-89031173D01*
X177809600Y-89031173D02*
X177784791Y-89082748D01*
X177784791Y-89082748D02*
X177715255Y-89209080D01*
X177715255Y-89209080D02*
X177608322Y-89397680D01*
X177608322Y-89397680D02*
X177471323Y-89636057D01*
X177471323Y-89636057D02*
X177311591Y-89911720D01*
X177311591Y-89911720D02*
X177136457Y-90212178D01*
X177136457Y-90212178D02*
X176953252Y-90524942D01*
X176953252Y-90524942D02*
X176769308Y-90837520D01*
X176769308Y-90837520D02*
X176591956Y-91137421D01*
X176591956Y-91137421D02*
X176428529Y-91412156D01*
X176428529Y-91412156D02*
X176286357Y-91649234D01*
X176286357Y-91649234D02*
X176172773Y-91836163D01*
X176172773Y-91836163D02*
X176095107Y-91960454D01*
X176095107Y-91960454D02*
X176062159Y-92008244D01*
X176062159Y-92008244D02*
X176021888Y-92019022D01*
X176021888Y-92019022D02*
X175958162Y-91976585D01*
X175958162Y-91976585D02*
X175861150Y-91871345D01*
X175861150Y-91871345D02*
X175721019Y-91693713D01*
X175721019Y-91693713D02*
X175669276Y-91625106D01*
X175669276Y-91625106D02*
X175335071Y-91178923D01*
X175335071Y-91178923D02*
X176458035Y-89263582D01*
X176458035Y-89263582D02*
X177581000Y-87348241D01*
X177581000Y-87348241D02*
X179935327Y-87348020D01*
X179935327Y-87348020D02*
X182289654Y-87347800D01*
X182289654Y-87347800D02*
X182162951Y-87563700D01*
X182162951Y-87563700D02*
X182162951Y-87563700D01*
G36*
X182162951Y-87563700D02*
G01*
X182075639Y-87712208D01*
X181959050Y-87910155D01*
X181835590Y-88119506D01*
X181811336Y-88160600D01*
X181586422Y-88541600D01*
X181323611Y-88556954D01*
X181152378Y-88577656D01*
X181074663Y-88622100D01*
X181083051Y-88702434D01*
X181162400Y-88821000D01*
X181233247Y-88932952D01*
X181262870Y-89021352D01*
X181238570Y-89078515D01*
X181169936Y-89209421D01*
X181064112Y-89401805D01*
X180928246Y-89643407D01*
X180769482Y-89921962D01*
X180594967Y-90225208D01*
X180411846Y-90540883D01*
X180227265Y-90856724D01*
X180048370Y-91160468D01*
X179882307Y-91439853D01*
X179736221Y-91682615D01*
X179617258Y-91876493D01*
X179532565Y-92009224D01*
X179489286Y-92068544D01*
X179486032Y-92070525D01*
X179448356Y-92031988D01*
X179367059Y-91931629D01*
X179257693Y-91790216D01*
X179135812Y-91628517D01*
X179016966Y-91467302D01*
X178916707Y-91327339D01*
X178850589Y-91229395D01*
X178833819Y-91199551D01*
X178854140Y-91146189D01*
X178920091Y-91017163D01*
X179025241Y-90824057D01*
X179163161Y-90578454D01*
X179327421Y-90291941D01*
X179511593Y-89976101D01*
X179533581Y-89938726D01*
X179722075Y-89617632D01*
X179894234Y-89322511D01*
X180043096Y-89065445D01*
X180161699Y-88858517D01*
X180243082Y-88713808D01*
X180280284Y-88643399D01*
X180281202Y-88641185D01*
X180284385Y-88595226D01*
X180234178Y-88574465D01*
X180110456Y-88573432D01*
X180044364Y-88576818D01*
X179776846Y-88592400D01*
X179070944Y-89786200D01*
X178883357Y-90103396D01*
X178711523Y-90393868D01*
X178562587Y-90645546D01*
X178443691Y-90846361D01*
X178361981Y-90984245D01*
X178324599Y-91047127D01*
X178324210Y-91047772D01*
X178283703Y-91051238D01*
X178204116Y-90982955D01*
X178080378Y-90837733D01*
X177941096Y-90655838D01*
X177598813Y-90196131D01*
X178059806Y-89411654D01*
X178207857Y-89158114D01*
X178336176Y-88935306D01*
X178436544Y-88757755D01*
X178500741Y-88639984D01*
X178520800Y-88597088D01*
X178473681Y-88584159D01*
X178347036Y-88574013D01*
X178162925Y-88568025D01*
X178038200Y-88567000D01*
X177830821Y-88569743D01*
X177668082Y-88577115D01*
X177572044Y-88587834D01*
X177555600Y-88595095D01*
X177581688Y-88650496D01*
X177647448Y-88757256D01*
X177682600Y-88810087D01*
X177759644Y-88930524D01*
X177804736Y-89014660D01*
X177809600Y-89031173D01*
X177784791Y-89082748D01*
X177715255Y-89209080D01*
X177608322Y-89397680D01*
X177471323Y-89636057D01*
X177311591Y-89911720D01*
X177136457Y-90212178D01*
X176953252Y-90524942D01*
X176769308Y-90837520D01*
X176591956Y-91137421D01*
X176428529Y-91412156D01*
X176286357Y-91649234D01*
X176172773Y-91836163D01*
X176095107Y-91960454D01*
X176062159Y-92008244D01*
X176021888Y-92019022D01*
X175958162Y-91976585D01*
X175861150Y-91871345D01*
X175721019Y-91693713D01*
X175669276Y-91625106D01*
X175335071Y-91178923D01*
X176458035Y-89263582D01*
X177581000Y-87348241D01*
X179935327Y-87348020D01*
X182289654Y-87347800D01*
X182162951Y-87563700D01*
G37*
X182162951Y-87563700D02*
X182075639Y-87712208D01*
X181959050Y-87910155D01*
X181835590Y-88119506D01*
X181811336Y-88160600D01*
X181586422Y-88541600D01*
X181323611Y-88556954D01*
X181152378Y-88577656D01*
X181074663Y-88622100D01*
X181083051Y-88702434D01*
X181162400Y-88821000D01*
X181233247Y-88932952D01*
X181262870Y-89021352D01*
X181238570Y-89078515D01*
X181169936Y-89209421D01*
X181064112Y-89401805D01*
X180928246Y-89643407D01*
X180769482Y-89921962D01*
X180594967Y-90225208D01*
X180411846Y-90540883D01*
X180227265Y-90856724D01*
X180048370Y-91160468D01*
X179882307Y-91439853D01*
X179736221Y-91682615D01*
X179617258Y-91876493D01*
X179532565Y-92009224D01*
X179489286Y-92068544D01*
X179486032Y-92070525D01*
X179448356Y-92031988D01*
X179367059Y-91931629D01*
X179257693Y-91790216D01*
X179135812Y-91628517D01*
X179016966Y-91467302D01*
X178916707Y-91327339D01*
X178850589Y-91229395D01*
X178833819Y-91199551D01*
X178854140Y-91146189D01*
X178920091Y-91017163D01*
X179025241Y-90824057D01*
X179163161Y-90578454D01*
X179327421Y-90291941D01*
X179511593Y-89976101D01*
X179533581Y-89938726D01*
X179722075Y-89617632D01*
X179894234Y-89322511D01*
X180043096Y-89065445D01*
X180161699Y-88858517D01*
X180243082Y-88713808D01*
X180280284Y-88643399D01*
X180281202Y-88641185D01*
X180284385Y-88595226D01*
X180234178Y-88574465D01*
X180110456Y-88573432D01*
X180044364Y-88576818D01*
X179776846Y-88592400D01*
X179070944Y-89786200D01*
X178883357Y-90103396D01*
X178711523Y-90393868D01*
X178562587Y-90645546D01*
X178443691Y-90846361D01*
X178361981Y-90984245D01*
X178324599Y-91047127D01*
X178324210Y-91047772D01*
X178283703Y-91051238D01*
X178204116Y-90982955D01*
X178080378Y-90837733D01*
X177941096Y-90655838D01*
X177598813Y-90196131D01*
X178059806Y-89411654D01*
X178207857Y-89158114D01*
X178336176Y-88935306D01*
X178436544Y-88757755D01*
X178500741Y-88639984D01*
X178520800Y-88597088D01*
X178473681Y-88584159D01*
X178347036Y-88574013D01*
X178162925Y-88568025D01*
X178038200Y-88567000D01*
X177830821Y-88569743D01*
X177668082Y-88577115D01*
X177572044Y-88587834D01*
X177555600Y-88595095D01*
X177581688Y-88650496D01*
X177647448Y-88757256D01*
X177682600Y-88810087D01*
X177759644Y-88930524D01*
X177804736Y-89014660D01*
X177809600Y-89031173D01*
X177784791Y-89082748D01*
X177715255Y-89209080D01*
X177608322Y-89397680D01*
X177471323Y-89636057D01*
X177311591Y-89911720D01*
X177136457Y-90212178D01*
X176953252Y-90524942D01*
X176769308Y-90837520D01*
X176591956Y-91137421D01*
X176428529Y-91412156D01*
X176286357Y-91649234D01*
X176172773Y-91836163D01*
X176095107Y-91960454D01*
X176062159Y-92008244D01*
X176021888Y-92019022D01*
X175958162Y-91976585D01*
X175861150Y-91871345D01*
X175721019Y-91693713D01*
X175669276Y-91625106D01*
X175335071Y-91178923D01*
X176458035Y-89263582D01*
X177581000Y-87348241D01*
X179935327Y-87348020D01*
X182289654Y-87347800D01*
X182162951Y-87563700D01*
X175665490Y-86944105D02*
X176060893Y-86946742D01*
X176060893Y-86946742D02*
X176411014Y-86951176D01*
X176411014Y-86951176D02*
X176704927Y-86957177D01*
X176704927Y-86957177D02*
X176931704Y-86964513D01*
X176931704Y-86964513D02*
X177080417Y-86972955D01*
X177080417Y-86972955D02*
X177140139Y-86982271D01*
X177140139Y-86982271D02*
X177140733Y-86983766D01*
X177140733Y-86983766D02*
X177110441Y-87041051D01*
X177110441Y-87041051D02*
X177038963Y-87169098D01*
X177038963Y-87169098D02*
X176935998Y-87350729D01*
X176935998Y-87350729D02*
X176811244Y-87568766D01*
X176811244Y-87568766D02*
X176768200Y-87643605D01*
X176768200Y-87643605D02*
X176412600Y-88261077D01*
X176412600Y-88261077D02*
X174875900Y-88261638D01*
X174875900Y-88261638D02*
X174492476Y-88262680D01*
X174492476Y-88262680D02*
X174143997Y-88265359D01*
X174143997Y-88265359D02*
X173842825Y-88269443D01*
X173842825Y-88269443D02*
X173601329Y-88274698D01*
X173601329Y-88274698D02*
X173431872Y-88280892D01*
X173431872Y-88280892D02*
X173346821Y-88287790D01*
X173346821Y-88287790D02*
X173339200Y-88290624D01*
X173339200Y-88290624D02*
X173369225Y-88341886D01*
X173369225Y-88341886D02*
X173446910Y-88445143D01*
X173446910Y-88445143D02*
X173527757Y-88544624D01*
X173527757Y-88544624D02*
X173716315Y-88770200D01*
X173716315Y-88770200D02*
X174903590Y-88770200D01*
X174903590Y-88770200D02*
X175237517Y-88771955D01*
X175237517Y-88771955D02*
X175533691Y-88776884D01*
X175533691Y-88776884D02*
X175778314Y-88784476D01*
X175778314Y-88784476D02*
X175957582Y-88794223D01*
X175957582Y-88794223D02*
X176057695Y-88805615D01*
X176057695Y-88805615D02*
X176073933Y-88813359D01*
X176073933Y-88813359D02*
X176045222Y-88865661D01*
X176045222Y-88865661D02*
X175970944Y-88995564D01*
X175970944Y-88995564D02*
X175856924Y-89193026D01*
X175856924Y-89193026D02*
X175708988Y-89448004D01*
X175708988Y-89448004D02*
X175532964Y-89750456D01*
X175532964Y-89750456D02*
X175334677Y-90090341D01*
X175334677Y-90090341D02*
X175119954Y-90457616D01*
X175119954Y-90457616D02*
X175117200Y-90462323D01*
X175117200Y-90462323D02*
X174177400Y-92068128D01*
X174177400Y-92068128D02*
X171467906Y-92072200D01*
X171467906Y-92072200D02*
X171215551Y-91424500D01*
X171215551Y-91424500D02*
X171125076Y-91185628D01*
X171125076Y-91185628D02*
X171052358Y-90980739D01*
X171052358Y-90980739D02*
X171003554Y-90828208D01*
X171003554Y-90828208D02*
X170984820Y-90746413D01*
X170984820Y-90746413D02*
X170985796Y-90738700D01*
X170985796Y-90738700D02*
X171040682Y-90728323D01*
X171040682Y-90728323D02*
X171183323Y-90719023D01*
X171183323Y-90719023D02*
X171399878Y-90711201D01*
X171399878Y-90711201D02*
X171676504Y-90705261D01*
X171676504Y-90705261D02*
X171999359Y-90701607D01*
X171999359Y-90701607D02*
X172293204Y-90700600D01*
X172293204Y-90700600D02*
X173578013Y-90700600D01*
X173578013Y-90700600D02*
X173738006Y-90443224D01*
X173738006Y-90443224D02*
X173823098Y-90303148D01*
X173823098Y-90303148D02*
X173881126Y-90201517D01*
X173881126Y-90201517D02*
X173898000Y-90165147D01*
X173898000Y-90165147D02*
X173850116Y-90157102D01*
X173850116Y-90157102D02*
X173718115Y-90148602D01*
X173718115Y-90148602D02*
X173519471Y-90140435D01*
X173519471Y-90140435D02*
X173271659Y-90133390D01*
X173271659Y-90133390D02*
X173128688Y-90130423D01*
X173128688Y-90130423D02*
X172359377Y-90116400D01*
X172359377Y-90116400D02*
X172112688Y-89718746D01*
X172112688Y-89718746D02*
X172004623Y-89541666D01*
X172004623Y-89541666D02*
X171920615Y-89398520D01*
X171920615Y-89398520D02*
X171872683Y-89310063D01*
X171872683Y-89310063D02*
X171866000Y-89292743D01*
X171866000Y-89292743D02*
X171891845Y-89243853D01*
X171891845Y-89243853D02*
X171964727Y-89120374D01*
X171964727Y-89120374D02*
X172077658Y-88933768D01*
X172077658Y-88933768D02*
X172223654Y-88695496D01*
X172223654Y-88695496D02*
X172395730Y-88417019D01*
X172395730Y-88417019D02*
X172586902Y-88109796D01*
X172586902Y-88109796D02*
X172589900Y-88104995D01*
X172589900Y-88104995D02*
X173313800Y-86945596D01*
X173313800Y-86945596D02*
X175235733Y-86943498D01*
X175235733Y-86943498D02*
X175665490Y-86944105D01*
X175665490Y-86944105D02*
X175665490Y-86944105D01*
G36*
X175665490Y-86944105D02*
G01*
X176060893Y-86946742D01*
X176411014Y-86951176D01*
X176704927Y-86957177D01*
X176931704Y-86964513D01*
X177080417Y-86972955D01*
X177140139Y-86982271D01*
X177140733Y-86983766D01*
X177110441Y-87041051D01*
X177038963Y-87169098D01*
X176935998Y-87350729D01*
X176811244Y-87568766D01*
X176768200Y-87643605D01*
X176412600Y-88261077D01*
X174875900Y-88261638D01*
X174492476Y-88262680D01*
X174143997Y-88265359D01*
X173842825Y-88269443D01*
X173601329Y-88274698D01*
X173431872Y-88280892D01*
X173346821Y-88287790D01*
X173339200Y-88290624D01*
X173369225Y-88341886D01*
X173446910Y-88445143D01*
X173527757Y-88544624D01*
X173716315Y-88770200D01*
X174903590Y-88770200D01*
X175237517Y-88771955D01*
X175533691Y-88776884D01*
X175778314Y-88784476D01*
X175957582Y-88794223D01*
X176057695Y-88805615D01*
X176073933Y-88813359D01*
X176045222Y-88865661D01*
X175970944Y-88995564D01*
X175856924Y-89193026D01*
X175708988Y-89448004D01*
X175532964Y-89750456D01*
X175334677Y-90090341D01*
X175119954Y-90457616D01*
X175117200Y-90462323D01*
X174177400Y-92068128D01*
X171467906Y-92072200D01*
X171215551Y-91424500D01*
X171125076Y-91185628D01*
X171052358Y-90980739D01*
X171003554Y-90828208D01*
X170984820Y-90746413D01*
X170985796Y-90738700D01*
X171040682Y-90728323D01*
X171183323Y-90719023D01*
X171399878Y-90711201D01*
X171676504Y-90705261D01*
X171999359Y-90701607D01*
X172293204Y-90700600D01*
X173578013Y-90700600D01*
X173738006Y-90443224D01*
X173823098Y-90303148D01*
X173881126Y-90201517D01*
X173898000Y-90165147D01*
X173850116Y-90157102D01*
X173718115Y-90148602D01*
X173519471Y-90140435D01*
X173271659Y-90133390D01*
X173128688Y-90130423D01*
X172359377Y-90116400D01*
X172112688Y-89718746D01*
X172004623Y-89541666D01*
X171920615Y-89398520D01*
X171872683Y-89310063D01*
X171866000Y-89292743D01*
X171891845Y-89243853D01*
X171964727Y-89120374D01*
X172077658Y-88933768D01*
X172223654Y-88695496D01*
X172395730Y-88417019D01*
X172586902Y-88109796D01*
X172589900Y-88104995D01*
X173313800Y-86945596D01*
X175235733Y-86943498D01*
X175665490Y-86944105D01*
G37*
X175665490Y-86944105D02*
X176060893Y-86946742D01*
X176411014Y-86951176D01*
X176704927Y-86957177D01*
X176931704Y-86964513D01*
X177080417Y-86972955D01*
X177140139Y-86982271D01*
X177140733Y-86983766D01*
X177110441Y-87041051D01*
X177038963Y-87169098D01*
X176935998Y-87350729D01*
X176811244Y-87568766D01*
X176768200Y-87643605D01*
X176412600Y-88261077D01*
X174875900Y-88261638D01*
X174492476Y-88262680D01*
X174143997Y-88265359D01*
X173842825Y-88269443D01*
X173601329Y-88274698D01*
X173431872Y-88280892D01*
X173346821Y-88287790D01*
X173339200Y-88290624D01*
X173369225Y-88341886D01*
X173446910Y-88445143D01*
X173527757Y-88544624D01*
X173716315Y-88770200D01*
X174903590Y-88770200D01*
X175237517Y-88771955D01*
X175533691Y-88776884D01*
X175778314Y-88784476D01*
X175957582Y-88794223D01*
X176057695Y-88805615D01*
X176073933Y-88813359D01*
X176045222Y-88865661D01*
X175970944Y-88995564D01*
X175856924Y-89193026D01*
X175708988Y-89448004D01*
X175532964Y-89750456D01*
X175334677Y-90090341D01*
X175119954Y-90457616D01*
X175117200Y-90462323D01*
X174177400Y-92068128D01*
X171467906Y-92072200D01*
X171215551Y-91424500D01*
X171125076Y-91185628D01*
X171052358Y-90980739D01*
X171003554Y-90828208D01*
X170984820Y-90746413D01*
X170985796Y-90738700D01*
X171040682Y-90728323D01*
X171183323Y-90719023D01*
X171399878Y-90711201D01*
X171676504Y-90705261D01*
X171999359Y-90701607D01*
X172293204Y-90700600D01*
X173578013Y-90700600D01*
X173738006Y-90443224D01*
X173823098Y-90303148D01*
X173881126Y-90201517D01*
X173898000Y-90165147D01*
X173850116Y-90157102D01*
X173718115Y-90148602D01*
X173519471Y-90140435D01*
X173271659Y-90133390D01*
X173128688Y-90130423D01*
X172359377Y-90116400D01*
X172112688Y-89718746D01*
X172004623Y-89541666D01*
X171920615Y-89398520D01*
X171872683Y-89310063D01*
X171866000Y-89292743D01*
X171891845Y-89243853D01*
X171964727Y-89120374D01*
X172077658Y-88933768D01*
X172223654Y-88695496D01*
X172395730Y-88417019D01*
X172586902Y-88109796D01*
X172589900Y-88104995D01*
X173313800Y-86945596D01*
X175235733Y-86943498D01*
X175665490Y-86944105D01*
X203108428Y-87347800D02*
X206606380Y-87347800D01*
X206606380Y-87347800D02*
X206867438Y-87779995D01*
X206867438Y-87779995D02*
X206976910Y-87970489D01*
X206976910Y-87970489D02*
X207060262Y-88133399D01*
X207060262Y-88133399D02*
X207106678Y-88246538D01*
X207106678Y-88246538D02*
X207112148Y-88282019D01*
X207112148Y-88282019D02*
X207082599Y-88340979D01*
X207082599Y-88340979D02*
X207006382Y-88475758D01*
X207006382Y-88475758D02*
X206889891Y-88675533D01*
X206889891Y-88675533D02*
X206739518Y-88929480D01*
X206739518Y-88929480D02*
X206561658Y-89226774D01*
X206561658Y-89226774D02*
X206362704Y-89556592D01*
X206362704Y-89556592D02*
X206234691Y-89767523D01*
X206234691Y-89767523D02*
X205373582Y-91183200D01*
X205373582Y-91183200D02*
X204837691Y-91626290D01*
X204837691Y-91626290D02*
X204301800Y-92069381D01*
X204301800Y-92069381D02*
X202790500Y-92070790D01*
X202790500Y-92070790D02*
X202410387Y-92070273D01*
X202410387Y-92070273D02*
X202065322Y-92068130D01*
X202065322Y-92068130D02*
X201767771Y-92064572D01*
X201767771Y-92064572D02*
X201530206Y-92059810D01*
X201530206Y-92059810D02*
X201365093Y-92054055D01*
X201365093Y-92054055D02*
X201284904Y-92047520D01*
X201284904Y-92047520D02*
X201279200Y-92045175D01*
X201279200Y-92045175D02*
X201304058Y-91997061D01*
X201304058Y-91997061D02*
X201375152Y-91870390D01*
X201375152Y-91870390D02*
X201487256Y-91674209D01*
X201487256Y-91674209D02*
X201635147Y-91417567D01*
X201635147Y-91417567D02*
X201813601Y-91109510D01*
X201813601Y-91109510D02*
X201975581Y-90830983D01*
X201975581Y-90830983D02*
X203209600Y-90830983D01*
X203209600Y-90830983D02*
X203256901Y-90840088D01*
X203256901Y-90840088D02*
X203384954Y-90845017D01*
X203384954Y-90845017D02*
X203572977Y-90845348D01*
X203572977Y-90845348D02*
X203752652Y-90842018D01*
X203752652Y-90842018D02*
X204295704Y-90827600D01*
X204295704Y-90827600D02*
X204867789Y-89887800D01*
X204867789Y-89887800D02*
X205043777Y-89598041D01*
X205043777Y-89598041D02*
X205208193Y-89326121D01*
X205208193Y-89326121D02*
X205351382Y-89088103D01*
X205351382Y-89088103D02*
X205463687Y-88900053D01*
X205463687Y-88900053D02*
X205535452Y-88778036D01*
X205535452Y-88778036D02*
X205547187Y-88757500D01*
X205547187Y-88757500D02*
X205654500Y-88567000D01*
X205654500Y-88567000D02*
X203965739Y-88567000D01*
X203965739Y-88567000D02*
X204103925Y-88812826D01*
X204103925Y-88812826D02*
X204242111Y-89058653D01*
X204242111Y-89058653D02*
X203725855Y-89932091D01*
X203725855Y-89932091D02*
X203568486Y-90199556D01*
X203568486Y-90199556D02*
X203430460Y-90436472D01*
X203430460Y-90436472D02*
X203319576Y-90629258D01*
X203319576Y-90629258D02*
X203243634Y-90764334D01*
X203243634Y-90764334D02*
X203210434Y-90828120D01*
X203210434Y-90828120D02*
X203209600Y-90830983D01*
X203209600Y-90830983D02*
X201975581Y-90830983D01*
X201975581Y-90830983D02*
X202017394Y-90759086D01*
X202017394Y-90759086D02*
X202241303Y-90375344D01*
X202241303Y-90375344D02*
X202397938Y-90107577D01*
X202397938Y-90107577D02*
X202674098Y-89632987D01*
X202674098Y-89632987D02*
X202915017Y-89212878D01*
X202915017Y-89212878D02*
X203117774Y-88852589D01*
X203117774Y-88852589D02*
X203279449Y-88557455D01*
X203279449Y-88557455D02*
X203397119Y-88332814D01*
X203397119Y-88332814D02*
X203467864Y-88184000D01*
X203467864Y-88184000D02*
X203488762Y-88116353D01*
X203488762Y-88116353D02*
X203488483Y-88115301D01*
X203488483Y-88115301D02*
X203440226Y-88030618D01*
X203440226Y-88030618D02*
X203348962Y-87906554D01*
X203348962Y-87906554D02*
X203290638Y-87835699D01*
X203290638Y-87835699D02*
X203120987Y-87637799D01*
X203120987Y-87637799D02*
X202849995Y-88102399D01*
X202849995Y-88102399D02*
X202579004Y-88566999D01*
X202579004Y-88566999D02*
X202310102Y-88567000D01*
X202310102Y-88567000D02*
X202160356Y-88571504D01*
X202160356Y-88571504D02*
X202062734Y-88583082D01*
X202062734Y-88583082D02*
X202041200Y-88593409D01*
X202041200Y-88593409D02*
X202066016Y-88648288D01*
X202066016Y-88648288D02*
X202128984Y-88757523D01*
X202128984Y-88757523D02*
X202169459Y-88822995D01*
X202169459Y-88822995D02*
X202246197Y-88960013D01*
X202246197Y-88960013D02*
X202266415Y-89053301D01*
X202266415Y-89053301D02*
X202239955Y-89134105D01*
X202239955Y-89134105D02*
X202187714Y-89227194D01*
X202187714Y-89227194D02*
X202094724Y-89388282D01*
X202094724Y-89388282D02*
X201968475Y-89604718D01*
X201968475Y-89604718D02*
X201816463Y-89863854D01*
X201816463Y-89863854D02*
X201646179Y-90153039D01*
X201646179Y-90153039D02*
X201465117Y-90459623D01*
X201465117Y-90459623D02*
X201280770Y-90770956D01*
X201280770Y-90770956D02*
X201100632Y-91074388D01*
X201100632Y-91074388D02*
X200932195Y-91357270D01*
X200932195Y-91357270D02*
X200782953Y-91606951D01*
X200782953Y-91606951D02*
X200660399Y-91810781D01*
X200660399Y-91810781D02*
X200572026Y-91956111D01*
X200572026Y-91956111D02*
X200525327Y-92030291D01*
X200525327Y-92030291D02*
X200520547Y-92036797D01*
X200520547Y-92036797D02*
X200476532Y-92015369D01*
X200476532Y-92015369D02*
X200387119Y-91926100D01*
X200387119Y-91926100D02*
X200265956Y-91783828D01*
X200265956Y-91783828D02*
X200146768Y-91630397D01*
X200146768Y-91630397D02*
X199812211Y-91183200D01*
X199812211Y-91183200D02*
X199943548Y-90954600D01*
X199943548Y-90954600D02*
X200052320Y-90765412D01*
X200052320Y-90765412D02*
X200166560Y-90566913D01*
X200166560Y-90566913D02*
X200200184Y-90508539D01*
X200200184Y-90508539D02*
X200325483Y-90291078D01*
X200325483Y-90291078D02*
X199678552Y-90305339D01*
X199678552Y-90305339D02*
X199031620Y-90319600D01*
X199031620Y-90319600D02*
X198517110Y-91195852D01*
X198517110Y-91195852D02*
X198359347Y-91462398D01*
X198359347Y-91462398D02*
X198218609Y-91696124D01*
X198218609Y-91696124D02*
X198103006Y-91883892D01*
X198103006Y-91883892D02*
X198020648Y-92012565D01*
X198020648Y-92012565D02*
X197979646Y-92069004D01*
X197979646Y-92069004D02*
X197977200Y-92070478D01*
X197977200Y-92070478D02*
X197938314Y-92031530D01*
X197938314Y-92031530D02*
X197853707Y-91927790D01*
X197853707Y-91927790D02*
X197737288Y-91776727D01*
X197737288Y-91776727D02*
X197647000Y-91655818D01*
X197647000Y-91655818D02*
X197516941Y-91477747D01*
X197516941Y-91477747D02*
X197410940Y-91329177D01*
X197410940Y-91329177D02*
X197342800Y-91229648D01*
X197342800Y-91229648D02*
X197325287Y-91200355D01*
X197325287Y-91200355D02*
X197347207Y-91149360D01*
X197347207Y-91149360D02*
X197416727Y-91020626D01*
X197416727Y-91020626D02*
X197528592Y-90823178D01*
X197528592Y-90823178D02*
X197677544Y-90566044D01*
X197677544Y-90566044D02*
X197858325Y-90258252D01*
X197858325Y-90258252D02*
X198065680Y-89908829D01*
X198065680Y-89908829D02*
X198294350Y-89526801D01*
X198294350Y-89526801D02*
X198459425Y-89252862D01*
X198459425Y-89252862D02*
X198467135Y-89240100D01*
X198467135Y-89240100D02*
X199667864Y-89240100D01*
X199667864Y-89240100D02*
X199707474Y-89254493D01*
X199707474Y-89254493D02*
X199830242Y-89266395D01*
X199830242Y-89266395D02*
X200017735Y-89274664D01*
X200017735Y-89274664D02*
X200251521Y-89278156D01*
X200251521Y-89278156D02*
X200281923Y-89278200D01*
X200281923Y-89278200D02*
X200916243Y-89278200D01*
X200916243Y-89278200D02*
X201097721Y-88979454D01*
X201097721Y-88979454D02*
X201189115Y-88821216D01*
X201189115Y-88821216D02*
X201254310Y-88693476D01*
X201254310Y-88693476D02*
X201279199Y-88623874D01*
X201279199Y-88623874D02*
X201279200Y-88623854D01*
X201279200Y-88623854D02*
X201234298Y-88596363D01*
X201234298Y-88596363D02*
X201097266Y-88578046D01*
X201097266Y-88578046D02*
X200864610Y-88568574D01*
X200864610Y-88568574D02*
X200673278Y-88567000D01*
X200673278Y-88567000D02*
X200067356Y-88567000D01*
X200067356Y-88567000D02*
X199877740Y-88884500D01*
X199877740Y-88884500D02*
X199782187Y-89045038D01*
X199782187Y-89045038D02*
X199707683Y-89171211D01*
X199707683Y-89171211D02*
X199669109Y-89237807D01*
X199669109Y-89237807D02*
X199667864Y-89240100D01*
X199667864Y-89240100D02*
X198467135Y-89240100D01*
X198467135Y-89240100D02*
X199610475Y-87347799D01*
X199610475Y-87347799D02*
X203108428Y-87347800D01*
X203108428Y-87347800D02*
X203108428Y-87347800D01*
G36*
X202241303Y-90375344D02*
G01*
X202397938Y-90107577D01*
X202674098Y-89632987D01*
X202915017Y-89212878D01*
X203117774Y-88852589D01*
X203279449Y-88557455D01*
X203397119Y-88332814D01*
X203467864Y-88184000D01*
X203488762Y-88116353D01*
X203488483Y-88115301D01*
X203440226Y-88030618D01*
X203348962Y-87906554D01*
X203290638Y-87835699D01*
X203120987Y-87637799D01*
X202849995Y-88102399D01*
X202579004Y-88566999D01*
X202310102Y-88567000D01*
X202160356Y-88571504D01*
X202062734Y-88583082D01*
X202041200Y-88593409D01*
X202066016Y-88648288D01*
X202128984Y-88757523D01*
X202169459Y-88822995D01*
X202246197Y-88960013D01*
X202266415Y-89053301D01*
X202239955Y-89134105D01*
X202187714Y-89227194D01*
X202094724Y-89388282D01*
X201968475Y-89604718D01*
X201816463Y-89863854D01*
X201646179Y-90153039D01*
X201465117Y-90459623D01*
X201280770Y-90770956D01*
X201100632Y-91074388D01*
X200932195Y-91357270D01*
X200782953Y-91606951D01*
X200660399Y-91810781D01*
X200572026Y-91956111D01*
X200525327Y-92030291D01*
X200520547Y-92036797D01*
X200476532Y-92015369D01*
X200387119Y-91926100D01*
X200265956Y-91783828D01*
X200146768Y-91630397D01*
X199812211Y-91183200D01*
X199943548Y-90954600D01*
X200052320Y-90765412D01*
X200166560Y-90566913D01*
X200200184Y-90508539D01*
X200325483Y-90291078D01*
X199678552Y-90305339D01*
X199031620Y-90319600D01*
X198517110Y-91195852D01*
X198359347Y-91462398D01*
X198218609Y-91696124D01*
X198103006Y-91883892D01*
X198020648Y-92012565D01*
X197979646Y-92069004D01*
X197977200Y-92070478D01*
X197938314Y-92031530D01*
X197853707Y-91927790D01*
X197737288Y-91776727D01*
X197647000Y-91655818D01*
X197516941Y-91477747D01*
X197410940Y-91329177D01*
X197342800Y-91229648D01*
X197325287Y-91200355D01*
X197347207Y-91149360D01*
X197416727Y-91020626D01*
X197528592Y-90823178D01*
X197677544Y-90566044D01*
X197858325Y-90258252D01*
X198065680Y-89908829D01*
X198294350Y-89526801D01*
X198459425Y-89252862D01*
X198467135Y-89240100D01*
X199667864Y-89240100D01*
X199707474Y-89254493D01*
X199830242Y-89266395D01*
X200017735Y-89274664D01*
X200251521Y-89278156D01*
X200281923Y-89278200D01*
X200916243Y-89278200D01*
X201097721Y-88979454D01*
X201189115Y-88821216D01*
X201254310Y-88693476D01*
X201279199Y-88623874D01*
X201279200Y-88623854D01*
X201234298Y-88596363D01*
X201097266Y-88578046D01*
X200864610Y-88568574D01*
X200673278Y-88567000D01*
X200067356Y-88567000D01*
X199877740Y-88884500D01*
X199782187Y-89045038D01*
X199707683Y-89171211D01*
X199669109Y-89237807D01*
X199667864Y-89240100D01*
X198467135Y-89240100D01*
X199610475Y-87347799D01*
X203108428Y-87347800D01*
X206606380Y-87347800D01*
X206867438Y-87779995D01*
X206976910Y-87970489D01*
X207060262Y-88133399D01*
X207106678Y-88246538D01*
X207112148Y-88282019D01*
X207082599Y-88340979D01*
X207006382Y-88475758D01*
X206889891Y-88675533D01*
X206739518Y-88929480D01*
X206561658Y-89226774D01*
X206362704Y-89556592D01*
X206234691Y-89767523D01*
X205373582Y-91183200D01*
X204837691Y-91626290D01*
X204301800Y-92069381D01*
X202790500Y-92070790D01*
X202410387Y-92070273D01*
X202065322Y-92068130D01*
X201767771Y-92064572D01*
X201530206Y-92059810D01*
X201365093Y-92054055D01*
X201284904Y-92047520D01*
X201279200Y-92045175D01*
X201304058Y-91997061D01*
X201375152Y-91870390D01*
X201487256Y-91674209D01*
X201635147Y-91417567D01*
X201813601Y-91109510D01*
X201975581Y-90830983D01*
X203209600Y-90830983D01*
X203256901Y-90840088D01*
X203384954Y-90845017D01*
X203572977Y-90845348D01*
X203752652Y-90842018D01*
X204295704Y-90827600D01*
X204867789Y-89887800D01*
X205043777Y-89598041D01*
X205208193Y-89326121D01*
X205351382Y-89088103D01*
X205463687Y-88900053D01*
X205535452Y-88778036D01*
X205547187Y-88757500D01*
X205654500Y-88567000D01*
X203965739Y-88567000D01*
X204103925Y-88812826D01*
X204242111Y-89058653D01*
X203725855Y-89932091D01*
X203568486Y-90199556D01*
X203430460Y-90436472D01*
X203319576Y-90629258D01*
X203243634Y-90764334D01*
X203210434Y-90828120D01*
X203209600Y-90830983D01*
X201975581Y-90830983D01*
X202017394Y-90759086D01*
X202241303Y-90375344D01*
G37*
X202241303Y-90375344D02*
X202397938Y-90107577D01*
X202674098Y-89632987D01*
X202915017Y-89212878D01*
X203117774Y-88852589D01*
X203279449Y-88557455D01*
X203397119Y-88332814D01*
X203467864Y-88184000D01*
X203488762Y-88116353D01*
X203488483Y-88115301D01*
X203440226Y-88030618D01*
X203348962Y-87906554D01*
X203290638Y-87835699D01*
X203120987Y-87637799D01*
X202849995Y-88102399D01*
X202579004Y-88566999D01*
X202310102Y-88567000D01*
X202160356Y-88571504D01*
X202062734Y-88583082D01*
X202041200Y-88593409D01*
X202066016Y-88648288D01*
X202128984Y-88757523D01*
X202169459Y-88822995D01*
X202246197Y-88960013D01*
X202266415Y-89053301D01*
X202239955Y-89134105D01*
X202187714Y-89227194D01*
X202094724Y-89388282D01*
X201968475Y-89604718D01*
X201816463Y-89863854D01*
X201646179Y-90153039D01*
X201465117Y-90459623D01*
X201280770Y-90770956D01*
X201100632Y-91074388D01*
X200932195Y-91357270D01*
X200782953Y-91606951D01*
X200660399Y-91810781D01*
X200572026Y-91956111D01*
X200525327Y-92030291D01*
X200520547Y-92036797D01*
X200476532Y-92015369D01*
X200387119Y-91926100D01*
X200265956Y-91783828D01*
X200146768Y-91630397D01*
X199812211Y-91183200D01*
X199943548Y-90954600D01*
X200052320Y-90765412D01*
X200166560Y-90566913D01*
X200200184Y-90508539D01*
X200325483Y-90291078D01*
X199678552Y-90305339D01*
X199031620Y-90319600D01*
X198517110Y-91195852D01*
X198359347Y-91462398D01*
X198218609Y-91696124D01*
X198103006Y-91883892D01*
X198020648Y-92012565D01*
X197979646Y-92069004D01*
X197977200Y-92070478D01*
X197938314Y-92031530D01*
X197853707Y-91927790D01*
X197737288Y-91776727D01*
X197647000Y-91655818D01*
X197516941Y-91477747D01*
X197410940Y-91329177D01*
X197342800Y-91229648D01*
X197325287Y-91200355D01*
X197347207Y-91149360D01*
X197416727Y-91020626D01*
X197528592Y-90823178D01*
X197677544Y-90566044D01*
X197858325Y-90258252D01*
X198065680Y-89908829D01*
X198294350Y-89526801D01*
X198459425Y-89252862D01*
X198467135Y-89240100D01*
X199667864Y-89240100D01*
X199707474Y-89254493D01*
X199830242Y-89266395D01*
X200017735Y-89274664D01*
X200251521Y-89278156D01*
X200281923Y-89278200D01*
X200916243Y-89278200D01*
X201097721Y-88979454D01*
X201189115Y-88821216D01*
X201254310Y-88693476D01*
X201279199Y-88623874D01*
X201279200Y-88623854D01*
X201234298Y-88596363D01*
X201097266Y-88578046D01*
X200864610Y-88568574D01*
X200673278Y-88567000D01*
X200067356Y-88567000D01*
X199877740Y-88884500D01*
X199782187Y-89045038D01*
X199707683Y-89171211D01*
X199669109Y-89237807D01*
X199667864Y-89240100D01*
X198467135Y-89240100D01*
X199610475Y-87347799D01*
X203108428Y-87347800D01*
X206606380Y-87347800D01*
X206867438Y-87779995D01*
X206976910Y-87970489D01*
X207060262Y-88133399D01*
X207106678Y-88246538D01*
X207112148Y-88282019D01*
X207082599Y-88340979D01*
X207006382Y-88475758D01*
X206889891Y-88675533D01*
X206739518Y-88929480D01*
X206561658Y-89226774D01*
X206362704Y-89556592D01*
X206234691Y-89767523D01*
X205373582Y-91183200D01*
X204837691Y-91626290D01*
X204301800Y-92069381D01*
X202790500Y-92070790D01*
X202410387Y-92070273D01*
X202065322Y-92068130D01*
X201767771Y-92064572D01*
X201530206Y-92059810D01*
X201365093Y-92054055D01*
X201284904Y-92047520D01*
X201279200Y-92045175D01*
X201304058Y-91997061D01*
X201375152Y-91870390D01*
X201487256Y-91674209D01*
X201635147Y-91417567D01*
X201813601Y-91109510D01*
X201975581Y-90830983D01*
X203209600Y-90830983D01*
X203256901Y-90840088D01*
X203384954Y-90845017D01*
X203572977Y-90845348D01*
X203752652Y-90842018D01*
X204295704Y-90827600D01*
X204867789Y-89887800D01*
X205043777Y-89598041D01*
X205208193Y-89326121D01*
X205351382Y-89088103D01*
X205463687Y-88900053D01*
X205535452Y-88778036D01*
X205547187Y-88757500D01*
X205654500Y-88567000D01*
X203965739Y-88567000D01*
X204103925Y-88812826D01*
X204242111Y-89058653D01*
X203725855Y-89932091D01*
X203568486Y-90199556D01*
X203430460Y-90436472D01*
X203319576Y-90629258D01*
X203243634Y-90764334D01*
X203210434Y-90828120D01*
X203209600Y-90830983D01*
X201975581Y-90830983D01*
X202017394Y-90759086D01*
X202241303Y-90375344D01*
%TD*%
M02*
